<svg width="36" height="35" viewBox="0 0 36 35" fill="none" xmlns="http://www.w3.org/2000/svg">
<path d="M3.33301 5.66666H5.65302C7.09302 5.66666 8.22634 6.90666 8.10634 8.33332L6.99967 21.6133C6.81301 23.7866 8.533 25.6533 10.7197 25.6533H24.9197C26.8397 25.6533 28.5197 24.08 28.6663 22.1733L29.3863 12.1733C29.5463 9.96 27.8663 8.15998 25.6397 8.15998H8.42635" stroke="white" stroke-width="2" stroke-miterlimit="10" stroke-linecap="round" stroke-linejoin="round"/>
<path d="M22.3332 32.3333C23.2536 32.3333 23.9998 31.5871 23.9998 30.6667C23.9998 29.7462 23.2536 29 22.3332 29C21.4127 29 20.6665 29.7462 20.6665 30.6667C20.6665 31.5871 21.4127 32.3333 22.3332 32.3333Z" stroke="white" stroke-width="2" stroke-miterlimit="10" stroke-linecap="round" stroke-linejoin="round"/>
<path d="M11.6662 32.3333C12.5867 32.3333 13.3328 31.5871 13.3328 30.6667C13.3328 29.7462 12.5867 29 11.6662 29C10.7457 29 9.99951 29.7462 9.99951 30.6667C9.99951 31.5871 10.7457 32.3333 11.6662 32.3333Z" stroke="white" stroke-width="2" stroke-miterlimit="10" stroke-linecap="round" stroke-linejoin="round"/>
<path d="M12.6665 13.6667H28.6665" stroke="white" stroke-width="2" stroke-miterlimit="10" stroke-linecap="round" stroke-linejoin="round"/>
</svg>
