<svg width="36" height="35" viewBox="0 0 36 35" fill="none" xmlns="http://www.w3.org/2000/svg">
<path d="M3.33301 5.66666H5.65302C7.09302 5.66666 8.22634 6.90666 8.10634 8.33332L6.99967 21.6133C6.81301 23.7866 8.533 25.6533 10.7197 25.6533H24.9197C26.8397 25.6533 28.5197 24.08 28.6663 22.1733L29.3863 12.1733C29.5463 9.96 27.8663 8.15998 25.6397 8.15998H8.42635" stroke="white" stroke-width="2" stroke-miterlimit="10" stroke-linecap="round" stroke-linejoin="round"/>
<path d="M22.3332 32.3333C23.2536 32.3333 23.9998 31.5871 23.9998 30.6667C23.9998 29.7462 23.2536 29 22.3332 29C21.4127 29 20.6665 29.7462 20.6665 30.6667C20.6665 31.5871 21.4127 32.3333 22.3332 32.3333Z" stroke="white" stroke-width="2" stroke-miterlimit="10" stroke-linecap="round" stroke-linejoin="round"/>
<path d="M11.6662 32.3333C12.5867 32.3333 13.3328 31.5871 13.3328 30.6667C13.3328 29.7462 12.5867 29 11.6662 29C10.7457 29 9.99951 29.7462 9.99951 30.6667C9.99951 31.5871 10.7457 32.3333 11.6662 32.3333Z" stroke="white" stroke-width="2" stroke-miterlimit="10" stroke-linecap="round" stroke-linejoin="round"/>
<path d="M12.6665 13.6667H28.6665" stroke="white" stroke-width="2" stroke-miterlimit="10" stroke-linecap="round" stroke-linejoin="round"/>
<rect x="18.5" y="0.5" width="17" height="17" rx="8.5" fill="#8347D8"/>
<rect x="18.5" y="0.5" width="17" height="17" rx="8.5" stroke="white"/>
<path d="M24.1109 13V11.89C24.3949 11.654 24.7209 11.38 25.0889 11.068C25.4569 10.752 25.8309 10.418 26.2109 10.066C26.5909 9.71 26.9409 9.356 27.2609 9.004C27.5809 8.648 27.8389 8.312 28.0349 7.996C28.2349 7.676 28.3349 7.398 28.3349 7.162C28.3349 6.894 28.2689 6.65 28.1369 6.43C28.0089 6.206 27.8349 6.028 27.6149 5.896C27.3949 5.76 27.1509 5.692 26.8829 5.692C26.6149 5.692 26.3689 5.76 26.1449 5.896C25.9249 6.028 25.7469 6.206 25.6109 6.43C25.4789 6.65 25.4129 6.894 25.4129 7.162H24.1649C24.1649 6.654 24.2889 6.196 24.5369 5.788C24.7889 5.376 25.1189 5.05 25.5269 4.81C25.9389 4.566 26.3909 4.444 26.8829 4.444C27.3789 4.444 27.8309 4.566 28.2389 4.81C28.6469 5.054 28.9729 5.382 29.2169 5.794C29.4609 6.202 29.5829 6.658 29.5829 7.162C29.5829 7.442 29.5249 7.73 29.4089 8.026C29.2929 8.322 29.1309 8.624 28.9229 8.932C28.7189 9.24 28.4809 9.552 28.2089 9.868C27.9369 10.184 27.6449 10.5 27.3329 10.816C27.0209 11.132 26.7029 11.444 26.3789 11.752H29.6549V13H24.1109Z" fill="white"/>
</svg>
