<svg width="156" height="49" viewBox="0 0 156 49" fill="none" xmlns="http://www.w3.org/2000/svg">
<path fill-rule="evenodd" clip-rule="evenodd" d="M48 24.1899C48 37.4448 37.2548 48.1899 24 48.1899C10.7452 48.1899 0 37.4448 0 24.1899C0 10.9351 10.7452 0.189941 24 0.189941C37.2548 0.189941 48 10.9351 48 24.1899ZM36 24.1899C36 30.8174 30.6274 36.1899 24 36.1899C17.3726 36.1899 12 30.8174 12 24.1899C12 17.5625 17.3726 12.1899 24 12.1899C30.6274 12.1899 36 17.5625 36 24.1899ZM24 32.1899C28.4183 32.1899 32 28.6082 32 24.1899C32 19.7717 28.4183 16.1899 24 16.1899C19.5817 16.1899 16 19.7717 16 24.1899C16 28.6082 19.5817 32.1899 24 32.1899Z" fill="white"/>
<path d="M68.288 35.6059C66.7733 35.6059 65.3493 35.3073 64.016 34.7099C62.6827 34.1019 61.5093 33.2646 60.496 32.1979C59.4933 31.1313 58.704 29.8993 58.128 28.5019C57.5627 27.0939 57.28 25.5899 57.28 23.9899C57.28 22.3793 57.5627 20.8753 58.128 19.4779C58.704 18.0699 59.4933 16.8379 60.496 15.7819C61.5093 14.7153 62.6827 13.8833 64.016 13.2859C65.3493 12.6779 66.7733 12.3739 68.288 12.3739C70.1013 12.3739 71.7707 12.7953 73.296 13.6379C74.8213 14.4699 76.0853 15.5846 77.088 16.9819L73.6 18.8539C72.9707 18.0753 72.1867 17.4513 71.248 16.9819C70.32 16.5126 69.3333 16.2779 68.288 16.2779C67.3067 16.2779 66.384 16.4806 65.52 16.8859C64.656 17.2806 63.8987 17.8353 63.248 18.5499C62.5973 19.2539 62.0907 20.0753 61.728 21.0139C61.3653 21.9419 61.184 22.9339 61.184 23.9899C61.184 25.0566 61.3653 26.0539 61.728 26.9819C62.1013 27.9099 62.6133 28.7313 63.264 29.4459C63.9147 30.1499 64.6667 30.7046 65.52 31.1099C66.384 31.5046 67.3067 31.7019 68.288 31.7019C69.3547 31.7019 70.3467 31.4673 71.264 30.9979C72.192 30.5179 72.9707 29.8886 73.6 29.1099L77.088 30.9979C76.0853 32.3846 74.8213 33.4993 73.296 34.3419C71.7707 35.1846 70.1013 35.6059 68.288 35.6059ZM95.8355 35.1899H90.7475L84.4595 26.4059L83.3715 27.7019V35.1899H79.4675V12.7899H83.3715V21.6379L90.7795 12.7899H95.8835L87.0035 23.3499L95.8355 35.1899ZM104.722 12.7899H109.218L117.362 35.1899H113.218L111.778 31.2219H102.178L100.738 35.1899H96.5938L104.722 12.7899ZM103.602 27.3179H110.338L106.962 18.0859L103.602 27.3179ZM119.406 35.1899V12.7899H127.998C129.214 12.7899 130.313 13.0939 131.294 13.7019C132.276 14.3099 133.054 15.1259 133.63 16.1499C134.206 17.1633 134.494 18.2886 134.494 19.5259C134.494 20.5393 134.308 21.4726 133.934 22.3259C133.572 23.1686 133.06 23.8993 132.398 24.5179C131.748 25.1366 130.996 25.6059 130.142 25.9259L135.502 35.1899H131.006L125.822 26.2779H123.31V35.1899H119.406ZM123.31 22.3739H127.55C128.105 22.3739 128.612 22.2353 129.07 21.9579C129.529 21.6806 129.897 21.3073 130.174 20.8379C130.452 20.3686 130.59 19.8459 130.59 19.2699C130.59 18.6833 130.452 18.1553 130.174 17.6859C129.897 17.2166 129.529 16.8433 129.07 16.5659C128.612 16.2886 128.105 16.1499 127.55 16.1499H123.31V22.3739ZM154.414 12.7899V16.6939H147.566V35.1899H143.662V16.6939H136.814V12.7899H154.414Z" fill="white"/>
</svg>
