<svg width="20" height="20" viewBox="0 0 20 20" fill="none" xmlns="http://www.w3.org/2000/svg">
<path d="M10.1341 9.05832C10.0508 9.04999 9.95078 9.04999 9.85911 9.05832C7.87578 8.99166 6.30078 7.36666 6.30078 5.36666C6.30078 3.32499 7.95078 1.66666 10.0008 1.66666C12.0424 1.66666 13.7008 3.32499 13.7008 5.36666C13.6924 7.36666 12.1174 8.99166 10.1341 9.05832Z" stroke="#5F6C72" stroke-width="1.5" stroke-linecap="round" stroke-linejoin="round"/>
<path d="M5.96563 12.1333C3.94896 13.4833 3.94896 15.6833 5.96563 17.025C8.25729 18.5583 12.0156 18.5583 14.3073 17.025C16.324 15.675 16.324 13.475 14.3073 12.1333C12.024 10.6083 8.26563 10.6083 5.96563 12.1333Z" stroke="#5F6C72" stroke-width="1.5" stroke-linecap="round" stroke-linejoin="round"/>
</svg>
