<svg width="16" height="16" viewBox="0 0 16 16" fill="none" xmlns="http://www.w3.org/2000/svg">
<g clip-path="url(#clip0_180_3435)">
<path fill-rule="evenodd" clip-rule="evenodd" d="M8 0C12.4183 0 16 3.58173 16 8C16 12.4183 12.4183 16 8 16C3.58173 16 0 12.4183 0 8C0 3.58173 3.58173 0 8 0Z" fill="#975BEC"/>
<path d="M9.04119 15.9328V9.75225H10.7847L11.0158 7.57697H9.04119L9.04412 6.48815C9.04412 5.92079 9.09805 5.61693 9.91348 5.61693H11.0035V3.44128H9.25968C7.16499 3.44128 6.42783 4.49647 6.42783 6.27123V7.57714H5.12207V9.75261H6.42783V15.8452C6.93653 15.9465 7.46243 16 8.00089 16C8.34875 16 8.69623 15.9776 9.04119 15.9328Z" fill="white"/>
</g>
<defs>
<clipPath id="clip0_180_3435">
<rect width="16" height="16" fill="white"/>
</clipPath>
</defs>
</svg>
