<svg width="24" height="24" viewBox="0 0 24 24" fill="none" xmlns="http://www.w3.org/2000/svg">
<path d="M22.5656 11.4188L20.25 12.5719L17.25 6.83438L19.5938 5.66251C19.7679 5.57372 19.9701 5.55741 20.1563 5.61712C20.3425 5.67683 20.4975 5.80772 20.5875 5.98126L22.8937 10.3969C22.9405 10.4853 22.9691 10.5821 22.9779 10.6817C22.9867 10.7813 22.9755 10.8817 22.9449 10.9769C22.9143 11.0721 22.865 11.1603 22.7999 11.2362C22.7348 11.312 22.6551 11.3741 22.5656 11.4188V11.4188Z" stroke="#975BEC" stroke-width="1.5" stroke-linecap="round" stroke-linejoin="round"/>
<path d="M3.74984 12.4781L1.43422 11.3156C1.34506 11.2719 1.26559 11.2107 1.20055 11.1357C1.13551 11.0607 1.08622 10.9734 1.05561 10.8789C1.02499 10.7844 1.01369 10.6848 1.02236 10.5859C1.03103 10.487 1.05951 10.3908 1.10609 10.3031L3.41234 5.88749C3.50256 5.71408 3.65691 5.58275 3.84253 5.52146C4.02814 5.46017 4.23035 5.47377 4.40609 5.55937L6.74984 6.73124L3.74984 12.4781Z" stroke="#975BEC" stroke-width="1.5" stroke-linecap="round" stroke-linejoin="round"/>
<path d="M20.25 12.5719L18.75 14.3344L15.3 17.7844C15.206 17.8723 15.092 17.9362 14.968 17.9704C14.8439 18.0047 14.7133 18.0085 14.5875 17.9813L9.15 16.6219C9.05067 16.5942 8.95812 16.5463 8.87812 16.4813L3.75 12.4781" stroke="#975BEC" stroke-width="1.5" stroke-linecap="round" stroke-linejoin="round"/>
<path d="M18.7496 14.3344L14.6246 11.3344L13.4246 12.2344C12.9047 12.6224 12.2733 12.832 11.6246 12.832C10.9759 12.832 10.3445 12.6224 9.82459 12.2344L9.31834 11.85C9.23274 11.7849 9.16193 11.7024 9.11061 11.6079C9.05929 11.5134 9.02862 11.409 9.02065 11.3018C9.01267 11.1946 9.02756 11.0868 9.06434 10.9858C9.10111 10.8847 9.15893 10.7926 9.23397 10.7156L12.909 7.04998C12.978 6.98129 13.0599 6.92688 13.15 6.88988C13.2401 6.85288 13.3366 6.83401 13.434 6.83436H17.2496" stroke="#975BEC" stroke-width="1.5" stroke-linecap="round" stroke-linejoin="round"/>
<path d="M6.80664 6.73127L11.616 5.32502C11.7869 5.27601 11.9696 5.2893 12.1316 5.36252L15.3754 6.83439" stroke="#975BEC" stroke-width="1.5" stroke-linecap="round" stroke-linejoin="round"/>
<path d="M10.5 19.9594L7.67813 19.2469C7.56313 19.2209 7.45666 19.166 7.36875 19.0875L5.25 17.25" stroke="#975BEC" stroke-width="1.5" stroke-linecap="round" stroke-linejoin="round"/>
</svg>
