<svg width="1920" height="656" viewBox="0 0 1920 656" fill="none" xmlns="http://www.w3.org/2000/svg">
<rect y="114" width="1920" height="404" fill="#975BEC"/>
<g opacity="0.14" filter="url(#filter0_dddddd_133_1801)">
<path d="M1606 5.21688C1613.74 0.751057 1623.26 0.751059 1631 5.21688L1715.55 54.0331C1723.29 58.4989 1728.05 66.7521 1728.05 75.6838V173.316C1728.05 182.248 1723.29 190.501 1715.55 194.967L1631 243.783C1623.26 248.249 1613.74 248.249 1606 243.783L1521.45 194.967C1513.71 190.501 1508.95 182.248 1508.95 173.316V75.6838C1508.95 66.7521 1513.71 58.4989 1521.45 54.0331L1606 5.21688Z" fill="white"/>
</g>
<g opacity="0.14" filter="url(#filter1_dddddd_133_1801)">
<path d="M459 129.33C463.641 126.651 469.359 126.651 474 129.33L493.208 140.42C497.849 143.099 500.708 148.051 500.708 153.41V175.59C500.708 180.949 497.849 185.901 493.208 188.58L474 199.67C469.359 202.349 463.641 202.349 459 199.67L439.792 188.58C435.151 185.901 432.292 180.949 432.292 175.59V153.41C432.292 148.051 435.151 143.099 439.792 140.42L459 129.33Z" fill="white"/>
</g>
<g opacity="0.14" filter="url(#filter2_dddddd_133_1801)">
<path d="M299 439.309C301.475 437.88 304.525 437.88 307 439.309L316.321 444.691C318.796 446.12 320.321 448.761 320.321 451.619V462.381C320.321 465.239 318.796 467.88 316.321 469.309L307 474.691C304.525 476.12 301.475 476.12 299 474.691L289.679 469.309C287.204 467.88 285.679 465.239 285.679 462.381V451.619C285.679 448.761 287.204 446.12 289.679 444.691L299 439.309Z" fill="white"/>
</g>
<g filter="url(#filter3_dddd_133_1801)">
<path d="M889.177 417V405.1H893.282C893.872 405.1 894.407 405.222 894.889 405.465C895.376 405.703 895.761 406.052 896.045 406.511C896.328 406.97 896.47 407.52 896.47 408.16C896.47 408.506 896.41 408.84 896.291 409.163C896.178 409.48 896.019 409.755 895.815 409.987C895.617 410.214 895.39 410.367 895.135 410.446C895.492 410.537 895.795 410.699 896.045 410.931C896.294 411.158 896.495 411.424 896.648 411.73C896.807 412.036 896.92 412.356 896.988 412.69C897.056 413.025 897.09 413.348 897.09 413.659C897.09 414.317 896.94 414.898 896.64 415.402C896.345 415.901 895.948 416.292 895.45 416.575C894.951 416.858 894.401 417 893.801 417H889.177ZM890.605 415.742H893.673C894.064 415.742 894.418 415.643 894.736 415.444C895.059 415.24 895.317 414.963 895.509 414.611C895.702 414.26 895.798 413.863 895.798 413.421C895.798 413.03 895.702 412.662 895.509 412.317C895.317 411.965 895.059 411.682 894.736 411.466C894.418 411.251 894.064 411.143 893.673 411.143H890.605V415.742ZM890.605 409.911H893.146C893.668 409.911 894.112 409.758 894.481 409.452C894.855 409.14 895.042 408.707 895.042 408.151C895.042 407.551 894.855 407.103 894.481 406.808C894.112 406.508 893.668 406.358 893.146 406.358H890.605V409.911ZM901.664 417.221C900.882 417.221 900.168 417.02 899.522 416.617C898.881 416.215 898.369 415.677 897.983 415.002C897.604 414.322 897.414 413.572 897.414 412.75C897.414 412.127 897.524 411.546 897.745 411.007C897.966 410.463 898.269 409.987 898.655 409.579C899.046 409.166 899.499 408.843 900.015 408.61C900.53 408.378 901.08 408.262 901.664 408.262C902.446 408.262 903.157 408.463 903.797 408.865C904.443 409.268 904.956 409.809 905.336 410.489C905.721 411.169 905.914 411.923 905.914 412.75C905.914 413.368 905.803 413.946 905.582 414.484C905.361 415.022 905.055 415.498 904.664 415.912C904.279 416.32 903.828 416.64 903.313 416.872C902.803 417.105 902.253 417.221 901.664 417.221ZM901.664 415.793C902.196 415.793 902.675 415.654 903.1 415.376C903.531 415.093 903.868 414.722 904.112 414.263C904.361 413.798 904.486 413.294 904.486 412.75C904.486 412.195 904.358 411.685 904.103 411.22C903.854 410.755 903.517 410.384 903.092 410.106C902.667 409.829 902.191 409.69 901.664 409.69C901.131 409.69 900.652 409.832 900.227 410.115C899.802 410.393 899.465 410.764 899.216 411.228C898.966 411.693 898.842 412.2 898.842 412.75C898.842 413.317 898.969 413.832 899.224 414.297C899.479 414.756 899.822 415.121 900.253 415.393C900.683 415.66 901.154 415.793 901.664 415.793ZM910.51 417.221C909.728 417.221 909.014 417.02 908.368 416.617C907.728 416.215 907.215 415.677 906.83 415.002C906.45 414.322 906.26 413.572 906.26 412.75C906.26 412.127 906.371 411.546 906.592 411.007C906.813 410.463 907.116 409.987 907.501 409.579C907.892 409.166 908.346 408.843 908.861 408.61C909.377 408.378 909.927 408.262 910.51 408.262C911.292 408.262 912.004 408.463 912.644 408.865C913.29 409.268 913.803 409.809 914.182 410.489C914.568 411.169 914.76 411.923 914.76 412.75C914.76 413.368 914.65 413.946 914.429 414.484C914.208 415.022 913.902 415.498 913.511 415.912C913.126 416.32 912.675 416.64 912.159 416.872C911.649 417.105 911.1 417.221 910.51 417.221ZM910.51 415.793C911.043 415.793 911.522 415.654 911.947 415.376C912.378 415.093 912.715 414.722 912.958 414.263C913.208 413.798 913.332 413.294 913.332 412.75C913.332 412.195 913.205 411.685 912.95 411.22C912.701 410.755 912.363 410.384 911.938 410.106C911.513 409.829 911.037 409.69 910.51 409.69C909.978 409.69 909.499 409.832 909.074 410.115C908.649 410.393 908.312 410.764 908.062 411.228C907.813 411.693 907.688 412.2 907.688 412.75C907.688 413.317 907.816 413.832 908.071 414.297C908.326 414.756 908.669 415.121 909.099 415.393C909.53 415.66 910 415.793 910.51 415.793ZM922.477 417H920.837L918.576 413.098L917.012 414.968V417H915.584V404.25H917.012V412.75L920.573 408.5H922.435L919.545 411.942L922.477 417ZM934.052 408.5H935.48V417H934.052L933.992 415.563C933.726 416.056 933.358 416.456 932.887 416.762C932.423 417.068 931.867 417.221 931.221 417.221C930.598 417.221 930.014 417.105 929.47 416.872C928.926 416.634 928.445 416.309 928.025 415.895C927.612 415.476 927.289 414.994 927.056 414.45C926.824 413.906 926.708 413.319 926.708 412.69C926.708 412.084 926.821 411.512 927.048 410.973C927.274 410.435 927.589 409.965 927.991 409.562C928.399 409.154 928.87 408.837 929.402 408.61C929.935 408.378 930.507 408.262 931.119 408.262C931.788 408.262 932.374 408.421 932.879 408.738C933.383 409.05 933.791 409.455 934.103 409.953L934.052 408.5ZM931.196 415.835C931.757 415.835 932.241 415.699 932.649 415.427C933.063 415.15 933.38 414.776 933.601 414.305C933.828 413.835 933.941 413.317 933.941 412.75C933.941 412.172 933.828 411.651 933.601 411.186C933.375 410.716 933.054 410.344 932.641 410.072C932.233 409.795 931.751 409.656 931.196 409.656C930.635 409.656 930.125 409.795 929.666 410.072C929.207 410.35 928.841 410.724 928.569 411.194C928.303 411.659 928.17 412.178 928.17 412.75C928.17 413.322 928.309 413.844 928.586 414.314C928.864 414.779 929.232 415.15 929.691 415.427C930.15 415.699 930.652 415.835 931.196 415.835ZM947.097 408.5H948.525V417H947.097L947.037 415.563C946.771 416.056 946.403 416.456 945.932 416.762C945.468 417.068 944.912 417.221 944.266 417.221C943.643 417.221 943.059 417.105 942.515 416.872C941.971 416.634 941.49 416.309 941.07 415.895C940.657 415.476 940.334 414.994 940.101 414.45C939.869 413.906 939.753 413.319 939.753 412.69C939.753 412.084 939.866 411.512 940.093 410.973C940.319 410.435 940.634 409.965 941.036 409.562C941.444 409.154 941.915 408.837 942.447 408.61C942.98 408.378 943.552 408.262 944.164 408.262C944.833 408.262 945.419 408.421 945.924 408.738C946.428 409.05 946.836 409.455 947.148 409.953L947.097 408.5ZM944.241 415.835C944.802 415.835 945.286 415.699 945.694 415.427C946.108 415.15 946.425 414.776 946.646 414.305C946.873 413.835 946.986 413.317 946.986 412.75C946.986 412.172 946.873 411.651 946.646 411.186C946.42 410.716 946.099 410.344 945.686 410.072C945.278 409.795 944.796 409.656 944.241 409.656C943.68 409.656 943.17 409.795 942.711 410.072C942.252 410.35 941.886 410.724 941.614 411.194C941.348 411.659 941.215 412.178 941.215 412.75C941.215 413.322 941.354 413.844 941.631 414.314C941.909 414.779 942.277 415.15 942.736 415.427C943.195 415.699 943.697 415.835 944.241 415.835ZM951.152 421.25H949.724V408.5H951.152V409.953C951.441 409.455 951.826 409.052 952.308 408.746C952.789 408.435 953.362 408.279 954.025 408.279C954.642 408.279 955.22 408.395 955.759 408.627C956.303 408.86 956.779 409.183 957.187 409.596C957.595 410.004 957.915 410.478 958.147 411.016C958.379 411.554 958.496 412.132 958.496 412.75C958.496 413.368 958.379 413.948 958.147 414.492C957.915 415.036 957.595 415.515 957.187 415.929C956.779 416.337 956.303 416.657 955.759 416.889C955.22 417.122 954.642 417.238 954.025 417.238C953.362 417.238 952.789 417.085 952.308 416.779C951.826 416.467 951.441 416.062 951.152 415.563V421.25ZM954.008 409.664C953.458 409.664 952.976 409.803 952.563 410.081C952.149 410.359 951.829 410.73 951.602 411.194C951.381 411.659 951.271 412.178 951.271 412.75C951.271 413.317 951.381 413.835 951.602 414.305C951.829 414.776 952.146 415.15 952.554 415.427C952.968 415.705 953.452 415.844 954.008 415.844C954.557 415.844 955.062 415.708 955.521 415.436C955.98 415.158 956.348 414.787 956.626 414.322C956.903 413.852 957.042 413.328 957.042 412.75C957.042 412.183 956.906 411.668 956.634 411.203C956.362 410.733 955.997 410.359 955.538 410.081C955.079 409.803 954.569 409.664 954.008 409.664ZM960.845 421.25H959.417V408.5H960.845V409.953C961.134 409.455 961.519 409.052 962.001 408.746C962.483 408.435 963.055 408.279 963.718 408.279C964.336 408.279 964.914 408.395 965.452 408.627C965.996 408.86 966.472 409.183 966.88 409.596C967.288 410.004 967.608 410.478 967.84 411.016C968.073 411.554 968.189 412.132 968.189 412.75C968.189 413.368 968.073 413.948 967.84 414.492C967.608 415.036 967.288 415.515 966.88 415.929C966.472 416.337 965.996 416.657 965.452 416.889C964.914 417.122 964.336 417.238 963.718 417.238C963.055 417.238 962.483 417.085 962.001 416.779C961.519 416.467 961.134 416.062 960.845 415.563V421.25ZM963.701 409.664C963.151 409.664 962.67 409.803 962.256 410.081C961.842 410.359 961.522 410.73 961.295 411.194C961.074 411.659 960.964 412.178 960.964 412.75C960.964 413.317 961.074 413.835 961.295 414.305C961.522 414.776 961.839 415.15 962.247 415.427C962.661 415.705 963.146 415.844 963.701 415.844C964.251 415.844 964.755 415.708 965.214 415.436C965.673 415.158 966.041 414.787 966.319 414.322C966.597 413.852 966.735 413.328 966.735 412.75C966.735 412.183 966.599 411.668 966.327 411.203C966.055 410.733 965.69 410.359 965.231 410.081C964.772 409.803 964.262 409.664 963.701 409.664ZM972.801 417.221C972.019 417.221 971.305 417.02 970.659 416.617C970.018 416.215 969.505 415.677 969.12 415.002C968.74 414.322 968.551 413.572 968.551 412.75C968.551 412.127 968.661 411.546 968.882 411.007C969.103 410.463 969.406 409.987 969.792 409.579C970.183 409.166 970.636 408.843 971.152 408.61C971.667 408.378 972.217 408.262 972.801 408.262C973.583 408.262 974.294 408.463 974.934 408.865C975.58 409.268 976.093 409.809 976.473 410.489C976.858 411.169 977.051 411.923 977.051 412.75C977.051 413.368 976.94 413.946 976.719 414.484C976.498 415.022 976.192 415.498 975.801 415.912C975.416 416.32 974.965 416.64 974.45 416.872C973.94 417.105 973.39 417.221 972.801 417.221ZM972.801 415.793C973.333 415.793 973.812 415.654 974.237 415.376C974.668 415.093 975.005 414.722 975.249 414.263C975.498 413.798 975.623 413.294 975.623 412.75C975.623 412.195 975.495 411.685 975.24 411.22C974.991 410.755 974.654 410.384 974.229 410.106C973.804 409.829 973.328 409.69 972.801 409.69C972.268 409.69 971.789 409.832 971.364 410.115C970.939 410.393 970.602 410.764 970.353 411.228C970.103 411.693 969.979 412.2 969.979 412.75C969.979 413.317 970.106 413.832 970.361 414.297C970.616 414.756 970.959 415.121 971.39 415.393C971.82 415.66 972.291 415.793 972.801 415.793ZM977.841 408.5H979.269V417H977.841V408.5ZM978.572 407.114C978.345 407.114 978.155 407.041 978.002 406.893C977.849 406.746 977.773 406.562 977.773 406.341C977.773 406.12 977.849 405.936 978.002 405.788C978.155 405.641 978.342 405.567 978.563 405.567C978.784 405.567 978.971 405.641 979.124 405.788C979.277 405.936 979.354 406.12 979.354 406.341C979.354 406.562 979.277 406.746 979.124 406.893C978.977 407.041 978.793 407.114 978.572 407.114ZM988.275 411.713V417H986.847V412.027C986.847 411.597 986.742 411.206 986.532 410.854C986.323 410.503 986.042 410.225 985.691 410.021C985.339 409.812 984.948 409.707 984.518 409.707C984.093 409.707 983.702 409.812 983.345 410.021C982.993 410.225 982.713 410.503 982.503 410.854C982.294 411.206 982.189 411.597 982.189 412.027V417H980.761V408.5H982.189V409.562C982.489 409.166 982.869 408.851 983.328 408.619C983.787 408.381 984.285 408.262 984.824 408.262C985.458 408.262 986.036 408.418 986.558 408.729C987.085 409.035 987.501 409.449 987.807 409.97C988.119 410.492 988.275 411.073 988.275 411.713ZM993.878 409.928H991.948L991.94 417H990.512L990.52 409.928H989.058V408.5H990.52L990.512 405.831H991.94L991.948 408.5H993.878V409.928ZM994.901 417V408.5H996.329V409.562C996.63 409.166 997.007 408.851 997.46 408.619C997.919 408.381 998.418 408.262 998.956 408.262C999.585 408.262 1000.16 408.415 1000.68 408.721C1001.2 409.027 1001.61 409.432 1001.91 409.936C1002.21 409.432 1002.62 409.027 1003.14 408.721C1003.66 408.415 1004.23 408.262 1004.85 408.262C1005.5 408.262 1006.08 408.418 1006.6 408.729C1007.12 409.035 1007.53 409.449 1007.84 409.97C1008.15 410.492 1008.31 411.073 1008.31 411.713V417H1006.88V412.053C1006.88 411.634 1006.78 411.245 1006.57 410.888C1006.37 410.531 1006.09 410.245 1005.75 410.03C1005.4 409.815 1005.02 409.707 1004.6 409.707C1004.18 409.707 1003.8 409.809 1003.45 410.013C1003.11 410.211 1002.83 410.489 1002.63 410.846C1002.42 411.197 1002.32 411.6 1002.32 412.053V417H1000.89V412.053C1000.89 411.6 1000.79 411.197 1000.59 410.846C1000.38 410.489 1000.11 410.211 999.755 410.013C999.409 409.809 999.027 409.707 998.607 409.707C998.194 409.707 997.811 409.815 997.46 410.03C997.114 410.245 996.839 410.531 996.635 410.888C996.431 411.245 996.329 411.634 996.329 412.053V417H994.901ZM1013.08 417.221C1012.3 417.221 1011.59 417.02 1010.94 416.617C1010.3 416.215 1009.79 415.677 1009.4 415.002C1009.02 414.322 1008.83 413.572 1008.83 412.75C1008.83 412.127 1008.94 411.546 1009.16 411.007C1009.39 410.463 1009.69 409.987 1010.07 409.579C1010.46 409.166 1010.92 408.843 1011.43 408.61C1011.95 408.378 1012.5 408.262 1013.08 408.262C1013.72 408.262 1014.31 408.392 1014.84 408.653C1015.38 408.908 1015.84 409.265 1016.22 409.724C1016.6 410.183 1016.89 410.716 1017.08 411.322C1017.27 411.928 1017.34 412.577 1017.29 413.268H1010.35C1010.42 413.75 1010.58 414.181 1010.83 414.56C1011.08 414.934 1011.4 415.232 1011.78 415.453C1012.17 415.674 1012.61 415.787 1013.08 415.793C1013.59 415.793 1014.05 415.663 1014.47 415.402C1014.88 415.136 1015.22 414.773 1015.47 414.314L1016.92 414.654C1016.58 415.408 1016.07 416.025 1015.39 416.507C1014.7 416.983 1013.93 417.221 1013.08 417.221ZM1010.31 412.146H1015.85C1015.81 411.67 1015.66 411.237 1015.39 410.846C1015.13 410.449 1014.8 410.132 1014.4 409.894C1014 409.656 1013.56 409.537 1013.08 409.537C1012.61 409.537 1012.17 409.653 1011.77 409.885C1011.38 410.118 1011.05 410.432 1010.79 410.829C1010.53 411.22 1010.37 411.659 1010.31 412.146ZM1025.74 411.713V417H1024.31V412.027C1024.31 411.597 1024.2 411.206 1023.99 410.854C1023.78 410.503 1023.5 410.225 1023.15 410.021C1022.8 409.812 1022.41 409.707 1021.98 409.707C1021.55 409.707 1021.16 409.812 1020.81 410.021C1020.46 410.225 1020.17 410.503 1019.97 410.854C1019.76 411.206 1019.65 411.597 1019.65 412.027V417H1018.22V408.5H1019.65V409.562C1019.95 409.166 1020.33 408.851 1020.79 408.619C1021.25 408.381 1021.75 408.262 1022.29 408.262C1022.92 408.262 1023.5 408.418 1024.02 408.729C1024.55 409.035 1024.96 409.449 1025.27 409.97C1025.58 410.492 1025.74 411.073 1025.74 411.713ZM1031.34 409.928H1029.41L1029.4 417H1027.97L1027.98 409.928H1026.52V408.5H1027.98L1027.97 405.831H1029.4L1029.41 408.5H1031.34V409.928Z" fill="#975BEC"/>
</g>
<defs>
<filter id="filter0_dddddd_133_1801" x="1428.95" y="0.571135" width="379.104" height="426.561" filterUnits="userSpaceOnUse" color-interpolation-filters="sRGB">
<feFlood flood-opacity="0" result="BackgroundImageFix"/>
<feColorMatrix in="SourceAlpha" type="matrix" values="0 0 0 0 0 0 0 0 0 0 0 0 0 0 0 0 0 0 127 0" result="hardAlpha"/>
<feOffset dy="1.85185"/>
<feGaussianBlur stdDeviation="1.57407"/>
<feColorMatrix type="matrix" values="0 0 0 0 0 0 0 0 0 0 0 0 0 0 0 0 0 0 0.01 0"/>
<feBlend mode="normal" in2="BackgroundImageFix" result="effect1_dropShadow_133_1801"/>
<feColorMatrix in="SourceAlpha" type="matrix" values="0 0 0 0 0 0 0 0 0 0 0 0 0 0 0 0 0 0 127 0" result="hardAlpha"/>
<feOffset dy="8.14815"/>
<feGaussianBlur stdDeviation="3.25926"/>
<feColorMatrix type="matrix" values="0 0 0 0 0 0 0 0 0 0 0 0 0 0 0 0 0 0 0.0117778 0"/>
<feBlend mode="normal" in2="effect1_dropShadow_133_1801" result="effect2_dropShadow_133_1801"/>
<feColorMatrix in="SourceAlpha" type="matrix" values="0 0 0 0 0 0 0 0 0 0 0 0 0 0 0 0 0 0 127 0" result="hardAlpha"/>
<feOffset dy="20"/>
<feGaussianBlur stdDeviation="6.5"/>
<feColorMatrix type="matrix" values="0 0 0 0 0 0 0 0 0 0 0 0 0 0 0 0 0 0 0.015 0"/>
<feBlend mode="normal" in2="effect2_dropShadow_133_1801" result="effect3_dropShadow_133_1801"/>
<feColorMatrix in="SourceAlpha" type="matrix" values="0 0 0 0 0 0 0 0 0 0 0 0 0 0 0 0 0 0 127 0" result="hardAlpha"/>
<feOffset dy="38.5185"/>
<feGaussianBlur stdDeviation="12.7407"/>
<feColorMatrix type="matrix" values="0 0 0 0 0 0 0 0 0 0 0 0 0 0 0 0 0 0 0.0182222 0"/>
<feBlend mode="normal" in2="effect3_dropShadow_133_1801" result="effect4_dropShadow_133_1801"/>
<feColorMatrix in="SourceAlpha" type="matrix" values="0 0 0 0 0 0 0 0 0 0 0 0 0 0 0 0 0 0 127 0" result="hardAlpha"/>
<feOffset dy="64.8148"/>
<feGaussianBlur stdDeviation="23.4259"/>
<feColorMatrix type="matrix" values="0 0 0 0 0 0 0 0 0 0 0 0 0 0 0 0 0 0 0.0227778 0"/>
<feBlend mode="normal" in2="effect4_dropShadow_133_1801" result="effect5_dropShadow_133_1801"/>
<feColorMatrix in="SourceAlpha" type="matrix" values="0 0 0 0 0 0 0 0 0 0 0 0 0 0 0 0 0 0 127 0" result="hardAlpha"/>
<feOffset dy="100"/>
<feGaussianBlur stdDeviation="40"/>
<feColorMatrix type="matrix" values="0 0 0 0 0 0 0 0 0 0 0 0 0 0 0 0 0 0 0.03 0"/>
<feBlend mode="normal" in2="effect5_dropShadow_133_1801" result="effect6_dropShadow_133_1801"/>
<feBlend mode="normal" in="SourceGraphic" in2="effect6_dropShadow_133_1801" result="shape"/>
</filter>
<filter id="filter1_dddddd_133_1801" x="352.292" y="126.024" width="228.416" height="255.655" filterUnits="userSpaceOnUse" color-interpolation-filters="sRGB">
<feFlood flood-opacity="0" result="BackgroundImageFix"/>
<feColorMatrix in="SourceAlpha" type="matrix" values="0 0 0 0 0 0 0 0 0 0 0 0 0 0 0 0 0 0 127 0" result="hardAlpha"/>
<feOffset dy="1.85185"/>
<feGaussianBlur stdDeviation="1.57407"/>
<feColorMatrix type="matrix" values="0 0 0 0 0 0 0 0 0 0 0 0 0 0 0 0 0 0 0.01 0"/>
<feBlend mode="normal" in2="BackgroundImageFix" result="effect1_dropShadow_133_1801"/>
<feColorMatrix in="SourceAlpha" type="matrix" values="0 0 0 0 0 0 0 0 0 0 0 0 0 0 0 0 0 0 127 0" result="hardAlpha"/>
<feOffset dy="8.14815"/>
<feGaussianBlur stdDeviation="3.25926"/>
<feColorMatrix type="matrix" values="0 0 0 0 0 0 0 0 0 0 0 0 0 0 0 0 0 0 0.0117778 0"/>
<feBlend mode="normal" in2="effect1_dropShadow_133_1801" result="effect2_dropShadow_133_1801"/>
<feColorMatrix in="SourceAlpha" type="matrix" values="0 0 0 0 0 0 0 0 0 0 0 0 0 0 0 0 0 0 127 0" result="hardAlpha"/>
<feOffset dy="20"/>
<feGaussianBlur stdDeviation="6.5"/>
<feColorMatrix type="matrix" values="0 0 0 0 0 0 0 0 0 0 0 0 0 0 0 0 0 0 0.015 0"/>
<feBlend mode="normal" in2="effect2_dropShadow_133_1801" result="effect3_dropShadow_133_1801"/>
<feColorMatrix in="SourceAlpha" type="matrix" values="0 0 0 0 0 0 0 0 0 0 0 0 0 0 0 0 0 0 127 0" result="hardAlpha"/>
<feOffset dy="38.5185"/>
<feGaussianBlur stdDeviation="12.7407"/>
<feColorMatrix type="matrix" values="0 0 0 0 0 0 0 0 0 0 0 0 0 0 0 0 0 0 0.0182222 0"/>
<feBlend mode="normal" in2="effect3_dropShadow_133_1801" result="effect4_dropShadow_133_1801"/>
<feColorMatrix in="SourceAlpha" type="matrix" values="0 0 0 0 0 0 0 0 0 0 0 0 0 0 0 0 0 0 127 0" result="hardAlpha"/>
<feOffset dy="64.8148"/>
<feGaussianBlur stdDeviation="23.4259"/>
<feColorMatrix type="matrix" values="0 0 0 0 0 0 0 0 0 0 0 0 0 0 0 0 0 0 0.0227778 0"/>
<feBlend mode="normal" in2="effect4_dropShadow_133_1801" result="effect5_dropShadow_133_1801"/>
<feColorMatrix in="SourceAlpha" type="matrix" values="0 0 0 0 0 0 0 0 0 0 0 0 0 0 0 0 0 0 127 0" result="hardAlpha"/>
<feOffset dy="100"/>
<feGaussianBlur stdDeviation="40"/>
<feColorMatrix type="matrix" values="0 0 0 0 0 0 0 0 0 0 0 0 0 0 0 0 0 0 0.03 0"/>
<feBlend mode="normal" in2="effect5_dropShadow_133_1801" result="effect6_dropShadow_133_1801"/>
<feBlend mode="normal" in="SourceGraphic" in2="effect6_dropShadow_133_1801" result="shape"/>
</filter>
<filter id="filter2_dddddd_133_1801" x="205.68" y="436.941" width="194.641" height="218.821" filterUnits="userSpaceOnUse" color-interpolation-filters="sRGB">
<feFlood flood-opacity="0" result="BackgroundImageFix"/>
<feColorMatrix in="SourceAlpha" type="matrix" values="0 0 0 0 0 0 0 0 0 0 0 0 0 0 0 0 0 0 127 0" result="hardAlpha"/>
<feOffset dy="1.85185"/>
<feGaussianBlur stdDeviation="1.57407"/>
<feColorMatrix type="matrix" values="0 0 0 0 0 0 0 0 0 0 0 0 0 0 0 0 0 0 0.01 0"/>
<feBlend mode="normal" in2="BackgroundImageFix" result="effect1_dropShadow_133_1801"/>
<feColorMatrix in="SourceAlpha" type="matrix" values="0 0 0 0 0 0 0 0 0 0 0 0 0 0 0 0 0 0 127 0" result="hardAlpha"/>
<feOffset dy="8.14815"/>
<feGaussianBlur stdDeviation="3.25926"/>
<feColorMatrix type="matrix" values="0 0 0 0 0 0 0 0 0 0 0 0 0 0 0 0 0 0 0.0117778 0"/>
<feBlend mode="normal" in2="effect1_dropShadow_133_1801" result="effect2_dropShadow_133_1801"/>
<feColorMatrix in="SourceAlpha" type="matrix" values="0 0 0 0 0 0 0 0 0 0 0 0 0 0 0 0 0 0 127 0" result="hardAlpha"/>
<feOffset dy="20"/>
<feGaussianBlur stdDeviation="6.5"/>
<feColorMatrix type="matrix" values="0 0 0 0 0 0 0 0 0 0 0 0 0 0 0 0 0 0 0.015 0"/>
<feBlend mode="normal" in2="effect2_dropShadow_133_1801" result="effect3_dropShadow_133_1801"/>
<feColorMatrix in="SourceAlpha" type="matrix" values="0 0 0 0 0 0 0 0 0 0 0 0 0 0 0 0 0 0 127 0" result="hardAlpha"/>
<feOffset dy="38.5185"/>
<feGaussianBlur stdDeviation="12.7407"/>
<feColorMatrix type="matrix" values="0 0 0 0 0 0 0 0 0 0 0 0 0 0 0 0 0 0 0.0182222 0"/>
<feBlend mode="normal" in2="effect3_dropShadow_133_1801" result="effect4_dropShadow_133_1801"/>
<feColorMatrix in="SourceAlpha" type="matrix" values="0 0 0 0 0 0 0 0 0 0 0 0 0 0 0 0 0 0 127 0" result="hardAlpha"/>
<feOffset dy="64.8148"/>
<feGaussianBlur stdDeviation="23.4259"/>
<feColorMatrix type="matrix" values="0 0 0 0 0 0 0 0 0 0 0 0 0 0 0 0 0 0 0.0227778 0"/>
<feBlend mode="normal" in2="effect4_dropShadow_133_1801" result="effect5_dropShadow_133_1801"/>
<feColorMatrix in="SourceAlpha" type="matrix" values="0 0 0 0 0 0 0 0 0 0 0 0 0 0 0 0 0 0 127 0" result="hardAlpha"/>
<feOffset dy="100"/>
<feGaussianBlur stdDeviation="40"/>
<feColorMatrix type="matrix" values="0 0 0 0 0 0 0 0 0 0 0 0 0 0 0 0 0 0 0.03 0"/>
<feBlend mode="normal" in2="effect5_dropShadow_133_1801" result="effect6_dropShadow_133_1801"/>
<feBlend mode="normal" in="SourceGraphic" in2="effect6_dropShadow_133_1801" result="shape"/>
</filter>
<filter id="filter3_dddd_133_1801" x="840.519" y="377.704" width="238.963" height="129.296" filterUnits="userSpaceOnUse" color-interpolation-filters="sRGB">
<feFlood flood-opacity="0" result="BackgroundImageFix"/>
<feColorMatrix in="SourceAlpha" type="matrix" values="0 0 0 0 0 0 0 0 0 0 0 0 0 0 0 0 0 0 127 0" result="hardAlpha"/>
<feOffset dy="1.85185"/>
<feGaussianBlur stdDeviation="1.57407"/>
<feColorMatrix type="matrix" values="0 0 0 0 1 0 0 0 0 1 0 0 0 0 1 0 0 0 0.0240741 0"/>
<feBlend mode="normal" in2="BackgroundImageFix" result="effect1_dropShadow_133_1801"/>
<feColorMatrix in="SourceAlpha" type="matrix" values="0 0 0 0 0 0 0 0 0 0 0 0 0 0 0 0 0 0 127 0" result="hardAlpha"/>
<feOffset dy="8.14815"/>
<feGaussianBlur stdDeviation="3.25926"/>
<feColorMatrix type="matrix" values="0 0 0 0 1 0 0 0 0 1 0 0 0 0 1 0 0 0 0.0392593 0"/>
<feBlend mode="normal" in2="effect1_dropShadow_133_1801" result="effect2_dropShadow_133_1801"/>
<feColorMatrix in="SourceAlpha" type="matrix" values="0 0 0 0 0 0 0 0 0 0 0 0 0 0 0 0 0 0 127 0" result="hardAlpha"/>
<feOffset dy="20"/>
<feGaussianBlur stdDeviation="6.5"/>
<feColorMatrix type="matrix" values="0 0 0 0 1 0 0 0 0 1 0 0 0 0 1 0 0 0 0.05 0"/>
<feBlend mode="normal" in2="effect2_dropShadow_133_1801" result="effect3_dropShadow_133_1801"/>
<feColorMatrix in="SourceAlpha" type="matrix" values="0 0 0 0 0 0 0 0 0 0 0 0 0 0 0 0 0 0 127 0" result="hardAlpha"/>
<feOffset dy="38.5185"/>
<feGaussianBlur stdDeviation="12.7407"/>
<feColorMatrix type="matrix" values="0 0 0 0 1 0 0 0 0 1 0 0 0 0 1 0 0 0 0.0607407 0"/>
<feBlend mode="normal" in2="effect3_dropShadow_133_1801" result="effect4_dropShadow_133_1801"/>
<feBlend mode="normal" in="SourceGraphic" in2="effect4_dropShadow_133_1801" result="shape"/>
</filter>
</defs>
</svg>
