<svg width="194" height="41" viewBox="0 0 194 41" fill="none" xmlns="http://www.w3.org/2000/svg">
<path d="M9.53968 17.0447C9.42785 16.7961 9.25094 16.591 9.03134 16.437C8.80224 16.2816 8.5318 16.1726 8.22273 16.108C7.90823 16.045 7.54493 16.0164 7.12402 16.0119L5.18078 16.0134C4.9788 16.0164 4.78089 16.1907 4.73344 16.407L3.42597 22.718C3.37853 22.9314 3.50528 23.1101 3.70726 23.1101H4.63787C4.83985 23.1101 5.0398 22.9366 5.08454 22.718L5.40378 21.1857C5.44648 20.9724 5.64575 20.7944 5.84977 20.7944H6.11614C7.25416 20.7929 8.13529 20.5352 8.76835 20.0192C9.4048 19.5024 9.71862 18.8196 9.71862 17.9739C9.71794 17.6036 9.66304 17.2926 9.53968 17.0447ZM7.53273 19.1066C7.25145 19.3349 6.86036 19.4491 6.35608 19.4491H6.12834C5.92568 19.4491 5.80164 19.2718 5.8457 19.0555L6.12563 17.7155C6.16494 17.5007 6.36896 17.3226 6.56891 17.3241L6.87392 17.3219C7.22976 17.3219 7.50155 17.3902 7.6832 17.5224C7.86282 17.6531 7.95296 17.8612 7.95161 18.1369C7.95703 18.556 7.81266 18.8782 7.53273 19.1066Z" fill="#B6B8B8"/>
<path d="M36.0694 16.5062L36.0111 16.5257L35.9332 16.5378L35.8376 16.5212L35.7888 16.4687L35.7664 16.386L35.7651 16.2621V15.8031H36.0762V15.6612H35.7651V15.375H35.6112V15.6612H35.5068V15.8031H35.6112V16.3372L35.6831 16.6016L35.8945 16.6857L35.9833 16.6775L36.0775 16.6572V16.5062H36.0694Z" fill="#B6B8B8"/>
<path d="M37.5114 15.7341L37.289 15.6327L37.125 15.6695L36.9583 15.7942L36.8613 15.6748L36.7041 15.6334L36.553 15.6702L36.4099 15.7724V15.6612H36.2588V16.664H36.4093V15.9151L36.536 15.828L36.6621 15.7934L36.7651 15.8137L36.8159 15.8716L36.8383 15.9677L36.8458 16.0916V16.6647H36.9969V16.0233L36.9942 15.9699L36.9915 15.9211L37.1203 15.8302L37.2477 15.7949L37.3473 15.8152L37.4015 15.8731L37.4205 15.9699L37.4307 16.0924V16.6655H37.5825V16.0143L37.5114 15.7341Z" fill="#B6B8B8"/>
<path d="M14.0283 17.9471C13.6772 17.7277 13.1228 17.6181 12.365 17.6181C11.9902 17.6181 11.6168 17.6504 11.2392 17.715C10.9606 17.7623 10.9335 17.7713 10.7621 17.8126C10.4082 17.8982 10.3527 18.2896 10.3527 18.2896L10.2388 18.8086C10.1744 19.1399 10.3466 19.1271 10.4184 19.0993C10.5729 19.0482 10.659 18.9957 10.9749 18.9175C11.2765 18.8417 11.5944 18.7846 11.8465 18.7883C12.2186 18.7883 12.5033 18.8319 12.6931 18.9205C12.8802 19.0107 12.9737 19.1654 12.9737 19.3892L12.9574 19.535L12.8232 19.6266C12.2952 19.6634 11.9136 19.7175 11.4507 19.7919C10.9979 19.8617 10.6007 19.9841 10.2707 20.1517C9.91617 20.3244 9.65318 20.5565 9.4695 20.8517C9.29192 21.1484 9.20312 21.5082 9.20312 21.9303C9.20312 22.3277 9.33191 22.6559 9.58201 22.9098C9.83347 23.1592 10.1656 23.2809 10.5628 23.2809C10.8142 23.2794 11.0088 23.2576 11.147 23.2208L11.5978 23.0488L11.9794 22.8144L12.3305 22.5575L12.3352 22.565L12.3 22.7303L12.2979 22.7371V22.7386C12.26 22.9399 12.3698 23.1051 12.5467 23.1246L12.5501 23.1292H12.5663H13.2801H13.4143L13.4265 23.1231C13.6122 23.0991 13.7864 22.9339 13.827 22.7371L14.5055 19.4824L14.5408 19.2172L14.557 18.9686C14.5597 18.5074 14.3801 18.1656 14.0283 17.9471ZM12.5277 21.6066L12.3827 21.8184L12.0167 22.028C11.8445 22.1054 11.6811 22.1444 11.53 22.1444C11.3009 22.1444 11.1213 22.1076 11 22.0325L10.8203 21.6457C10.8203 21.4361 10.8637 21.2701 10.9566 21.1424L11.3511 20.8449C11.5198 20.7819 11.7259 20.7285 11.9645 20.6917C12.1773 20.6624 12.5975 20.6091 12.6524 20.6076L12.7168 20.733C12.7039 20.8044 12.5846 21.3572 12.5277 21.6066Z" fill="#B6B8B8"/>
<path d="M30.9326 17.9514C30.5795 17.7321 30.0258 17.6216 29.27 17.6216C28.8952 17.6216 28.521 17.6539 28.1449 17.7208C27.8656 17.7659 27.8378 17.7756 27.6657 17.8162C27.3125 17.9011 27.2576 18.2939 27.2576 18.2939L27.1438 18.8122C27.0801 19.1434 27.2481 19.1284 27.3268 19.1029C27.482 19.0518 27.5654 19.0015 27.8785 18.9204C28.1788 18.8452 28.4994 18.7897 28.7522 18.7912C29.1229 18.7912 29.4076 18.8355 29.5967 18.9241C29.7851 19.0142 29.8773 19.1705 29.8773 19.3921L29.8631 19.537L29.7302 19.6309C29.1968 19.6662 28.8145 19.7203 28.3563 19.7947C27.9049 19.8645 27.5064 19.9862 27.1756 20.1545C26.8225 20.328 26.5561 20.5601 26.3745 20.856C26.1949 21.1527 26.1074 21.5118 26.1074 21.9302C26.1074 22.3305 26.2348 22.6588 26.4883 22.9111C26.7412 23.1598 27.0699 23.2844 27.4671 23.2844C27.7172 23.2814 27.9117 23.2634 28.0507 23.2236L28.5 23.0539L28.885 22.8195L29.2334 22.5596L29.2395 22.5679L29.2077 22.7346L29.2043 22.7376L29.2056 22.7406C29.1636 22.9419 29.2741 23.1087 29.453 23.1267L29.4544 23.1305H29.4706C29.5879 23.1305 29.9932 23.1305 30.1864 23.1305H30.3179L30.3321 23.1252C30.5158 23.1004 30.6893 22.9352 30.7279 22.7361L31.4085 19.486L31.4444 19.2193L31.464 18.9699C31.4647 18.5102 31.2871 18.17 30.9326 17.9514ZM29.4354 21.6109L29.2842 21.825L28.9216 22.0331C28.7495 22.1097 28.5854 22.1495 28.437 22.1495C28.2005 22.1495 28.0256 22.1119 27.9076 22.0368L27.726 21.6515C27.726 21.4412 27.7701 21.2767 27.8588 21.1467C27.949 21.0243 28.0866 20.9236 28.2574 20.85C28.4241 20.7869 28.6302 20.7358 28.8701 20.6975C29.0816 20.6682 29.5005 20.6134 29.5547 20.6127L29.6204 20.7381C29.6109 20.8095 29.491 21.36 29.4354 21.6109Z" fill="#B6B8B8"/>
<path d="M26.4396 17.0681C26.323 16.818 26.1482 16.616 25.9272 16.4582C25.7008 16.302 25.4324 16.1923 25.1186 16.1292C24.8102 16.0684 24.4421 16.0353 24.0239 16.0346L22.078 16.0361C21.8753 16.0398 21.6808 16.2141 21.634 16.4282L20.3252 22.7422C20.2778 22.9563 20.4079 23.1336 20.6058 23.1336L21.5378 23.1321C21.7357 23.1336 21.9384 22.9578 21.9851 22.7415L22.3003 21.2084C22.3464 20.9951 22.5463 20.8155 22.7477 20.8171H23.014C24.1534 20.8171 25.0366 20.5572 25.6723 20.0426C26.3007 19.5221 26.6185 18.8408 26.6185 17.9943C26.6152 17.6255 26.5575 17.3138 26.4396 17.0681ZM24.4327 19.133C24.152 19.3568 23.7603 19.471 23.2587 19.471H23.0269C22.827 19.4733 22.6975 19.293 22.7422 19.0782L23.0242 17.7404C23.0655 17.5263 23.2675 17.3468 23.4688 17.3491L23.7704 17.3468C24.1283 17.3491 24.3967 17.4144 24.5797 17.5466C24.7621 17.6788 24.8481 17.8861 24.8502 18.161C24.8522 18.5802 24.7119 18.9032 24.4327 19.133Z" fill="#B6B8B8"/>
<path d="M34.42 16.4784C34.4627 16.2628 34.3407 16.0878 34.1407 16.0908H33.307C33.1362 16.0908 32.9824 16.2312 32.9071 16.404L32.861 16.4836L32.819 16.6879L31.6539 22.5573L31.6159 22.7376L31.6173 22.7421C31.5786 22.9351 31.6857 23.0808 31.8511 23.1086L31.8653 23.1304H32.7309C32.9003 23.1304 33.0596 22.9877 33.1321 22.8119L33.1769 22.7368L34.4227 16.4791L34.42 16.4784Z" fill="#B6B8B8"/>
<path d="M20.3514 17.6967C20.1311 17.6997 19.2357 17.6967 19.2357 17.6967C19.0351 17.6967 18.7775 17.8762 18.6501 18.0903C18.6501 18.0903 17.3176 20.6246 17.1881 20.8793L17.0336 20.877L16.6187 18.1076C16.5727 17.8898 16.3673 17.7035 16.1118 17.7035L15.2781 17.705C15.0774 17.705 14.9541 17.8822 14.9995 18.0986C14.9995 18.0986 15.6326 22.0908 15.7593 23.0305C15.8183 23.5488 15.7518 23.6412 15.7518 23.6412L14.9276 25.2321C14.8056 25.4484 14.8714 25.6249 15.0713 25.6249L16.0352 25.6234C16.2358 25.6234 16.4995 25.4484 16.6187 25.2313L20.3263 18.2818C20.3263 18.2826 20.6828 17.6884 20.3514 17.6967Z" fill="#B6B8B8"/>
<path d="M68.0977 15.55L66.3613 25.7398H69.1384L70.8763 15.55H68.0977Z" fill="#B6B8B8"/>
<path d="M64.0328 15.5614L61.3129 22.5106L61.0229 21.4613C60.4864 20.1971 58.9636 18.3814 57.1758 17.2371L59.6629 25.7348L62.6014 25.7298L66.9749 15.5593L64.0328 15.5614Z" fill="#B6B8B8"/>
<path d="M59.9674 16.2907C59.8059 15.67 59.3381 15.485 58.7574 15.4628H54.4517L54.416 15.6657C57.7667 16.4785 59.9838 18.4371 60.9038 20.792L59.9674 16.2907Z" fill="#B6B8B8"/>
<path d="M76.5045 17.5035C77.413 17.4893 78.0716 17.6878 78.583 17.8935L78.8337 18.0114L79.2094 15.8029C78.6594 15.5964 77.7973 15.375 76.7216 15.375C73.9774 15.375 72.0431 16.7571 72.0281 18.7378C72.0102 20.2014 73.4059 21.0185 74.4602 21.5063C75.5423 22.0063 75.9052 22.3242 75.9002 22.7706C75.8916 23.4527 75.0373 23.7656 74.2395 23.7656C73.1274 23.7656 72.5367 23.612 71.6245 23.232L71.2667 23.0692L70.876 25.3499C71.526 25.6349 72.7252 25.8798 73.9702 25.8927C76.8895 25.8927 78.7866 24.527 78.8066 22.4106C78.8187 21.2528 78.078 20.3692 76.473 19.6442C75.5016 19.1714 74.9073 18.8571 74.9131 18.38C74.9131 17.9564 75.4173 17.5035 76.5045 17.5035Z" fill="#B6B8B8"/>
<path d="M86.3365 15.5614H84.1908C83.5244 15.5614 83.0287 15.7428 82.7358 16.4071L78.6123 25.7455H81.5287C81.5287 25.7455 82.0044 24.4898 82.1123 24.2148C82.4315 24.2148 85.2651 24.2191 85.6686 24.2191C85.7515 24.5748 86.0072 25.7455 86.0072 25.7455H88.5836L86.3365 15.5614ZM82.9115 22.1292C83.1401 21.5442 84.0179 19.2813 84.0179 19.2813C84.0029 19.3092 84.2444 18.6921 84.3879 18.3085L84.5751 19.1871C84.5751 19.1871 85.1072 21.6199 85.2186 22.1292H82.9115Z" fill="#B6B8B8"/>
<path d="M130.063 16.6575L129.435 18.1831H130.698L130.063 16.6575Z" fill="#B6B8B8"/>
<path d="M108.345 16.6575L107.724 18.1832H108.971L108.345 16.6575Z" fill="#B6B8B8"/>
<path d="M122.763 16.8736C122.654 16.8123 122.487 16.8044 122.329 16.8044H121.202V17.6539H122.314C122.49 17.6539 122.639 17.6511 122.766 17.5755C122.884 17.5134 122.955 17.3786 122.955 17.2117C122.955 17.0476 122.881 16.9292 122.763 16.8736Z" fill="#B6B8B8"/>
<path d="M126.683 23.457C126.571 23.3907 126.407 23.3878 126.246 23.3878H125.119V24.2473H126.231C126.409 24.2473 126.561 24.2416 126.685 24.1696C126.803 24.0968 126.874 23.9663 126.874 23.8015C126.872 23.6368 126.801 23.5184 126.683 23.457Z" fill="#B6B8B8"/>
<path d="M122.229 23.3864H121.036V24.3614H122.217C122.569 24.3614 122.788 24.1874 122.788 23.8571C122.787 23.5205 122.56 23.3864 122.229 23.3864Z" fill="#B6B8B8"/>
<path d="M139.127 23.9613C139.12 23.9549 139.113 23.9478 139.107 23.9428C139.28 23.8301 139.396 23.6346 139.396 23.4121V22.5968C139.396 22.2466 139.112 21.9642 138.763 21.9642H136.93C136.358 21.9642 135.928 22.1325 135.614 22.3864C135.526 22.1411 135.301 21.9642 135.025 21.9642H133.192C132.687 21.9642 132.29 22.089 131.988 22.2944C131.878 22.0983 131.68 21.9642 131.443 21.9642H128.391C128.145 21.9642 127.937 22.1075 127.832 22.3123C127.789 22.2816 127.757 22.2459 127.711 22.2188C127.268 21.982 126.797 21.9642 126.312 21.9642H124.199C123.953 21.9642 123.744 22.109 123.64 22.3151C123.319 22.1061 122.869 21.9642 122.229 21.9642H119.306C119.13 21.9642 118.962 22.0355 118.841 22.1653L118.149 22.9121L117.484 22.1739C117.365 22.0376 117.195 21.9635 117.014 21.9635H113.335C112.986 21.9635 112.703 22.2466 112.703 22.5961V26.4242C112.703 26.7744 112.986 27.0569 113.335 27.0569H116.959C117.135 27.0569 117.303 26.9834 117.423 26.8536L118.121 26.0983L118.784 26.8436C118.904 26.9791 119.076 27.0555 119.257 27.0555H121.035C121.385 27.0555 121.667 26.7723 121.667 26.4242V25.7709H122.176C122.794 25.7709 123.242 25.6439 123.567 25.4506V26.4242C123.567 26.773 123.85 27.0555 124.199 27.0555H125.119C125.469 27.0555 125.752 26.7723 125.752 26.4242V25.6567H126.096C126.18 25.6567 126.239 25.6596 126.282 25.6624C126.285 25.7309 126.285 25.8129 126.284 25.8672V26.4242C126.284 26.773 126.568 27.0555 126.916 27.0555H127.834C127.937 27.0555 128.03 27.0276 128.114 26.9841C128.199 27.0262 128.291 27.0555 128.393 27.0555H131.446C131.545 27.0555 131.637 27.0276 131.721 26.987C131.804 27.0276 131.894 27.0555 131.995 27.0555H133.777C134.344 27.0555 134.806 26.9164 135.152 26.671C135.247 26.8964 135.471 27.0555 135.733 27.0555H137.515C138.811 27.0555 139.583 26.3672 139.583 25.2152C139.583 24.6817 139.439 24.2844 139.127 23.9613ZM122.177 25.1382H121.035V26.4228H119.257L118.13 25.156L116.959 26.4228H113.335V22.594H117.014L118.141 23.8493L119.305 22.594H122.228C122.953 22.594 123.77 22.7973 123.77 23.8572C123.77 24.9192 122.977 25.1403 122.177 25.1382ZM127.236 24.6453C127.438 24.7195 127.605 24.8543 127.682 24.967C127.812 25.1539 127.829 25.3279 127.834 25.6653V26.4242H126.916V25.9449C126.916 25.7152 126.938 25.3736 126.767 25.1953C126.635 25.059 126.432 25.0269 126.097 25.0269H125.12V26.4242H124.2V22.5961H126.314C126.776 22.5961 127.112 22.6154 127.414 22.7759C127.702 22.9499 127.884 23.1896 127.884 23.6254C127.884 24.2374 127.476 24.549 127.236 24.6453ZM131.445 23.3871H129.302V24.084H131.392V24.8657H129.302V25.6261L131.445 25.6304V26.4242H128.392V22.5961H131.445V23.3871ZM133.778 26.4199H131.996V25.5975H133.77C133.943 25.5975 134.066 25.5761 134.143 25.5027C134.206 25.4442 134.25 25.3565 134.25 25.2523C134.25 25.1411 134.203 25.0533 134.139 24.9998C134.067 24.9413 133.973 24.915 133.813 24.915C132.958 24.8871 131.886 24.9413 131.886 23.7309C131.886 23.1739 132.234 22.5911 133.194 22.5911H135.028V23.4057H133.349C133.182 23.4057 133.074 23.4128 132.983 23.4756C132.882 23.5384 132.844 23.6304 132.844 23.7516C132.844 23.8964 132.929 23.9927 133.044 24.0369C133.142 24.0704 133.244 24.0804 133.401 24.0804L133.892 24.0947C134.388 24.1083 134.729 24.1938 134.936 24.4028C135.115 24.5876 135.21 24.8215 135.21 25.2145C135.21 26.0398 134.697 26.4242 133.778 26.4199ZM137.516 26.4199H135.734V25.5975H137.509C137.682 25.5975 137.805 25.5761 137.881 25.5027C137.944 25.4442 137.988 25.3565 137.988 25.2523C137.988 25.1411 137.941 25.0533 137.877 24.9998C137.806 24.9413 137.712 24.915 137.551 24.915C136.696 24.8871 135.625 24.9413 135.625 23.7309C135.625 23.1739 135.973 22.5911 136.933 22.5911H138.766V23.4057H137.088C136.92 23.4057 136.811 23.4128 136.721 23.4756C136.62 23.5384 136.583 23.6304 136.583 23.7516C136.583 23.8964 136.669 23.9927 136.782 24.0369C136.881 24.0704 136.983 24.0804 137.139 24.0804L137.63 24.0947C138.127 24.1083 138.469 24.1938 138.675 24.4028C138.853 24.5876 138.95 24.8215 138.95 25.2145C138.95 26.0398 138.436 26.4242 137.516 26.4199Z" fill="#B6B8B8"/>
<path d="M136.255 15.375H135.318C134.968 15.375 134.685 15.6582 134.685 16.007V16.4021L134.251 15.681C134.135 15.492 133.931 15.3757 133.71 15.3757H132.316C131.966 15.3757 131.684 15.6589 131.684 16.0077V16.5448L131.348 15.7587C131.249 15.5269 131.021 15.3757 130.768 15.3757H129.397C129.258 15.3757 129.126 15.4214 129.02 15.5012C128.915 15.4221 128.783 15.3757 128.641 15.3757H127.757C127.006 15.3757 126.449 15.5576 126.04 15.9128C125.993 15.6111 125.743 15.3757 125.427 15.3757H124.493C124.243 15.3757 124.034 15.5234 123.93 15.7316C123.891 15.7031 123.861 15.6689 123.817 15.6432C123.387 15.395 122.936 15.3757 122.392 15.3757H120.287C120.169 15.3757 120.066 15.4171 119.97 15.4734C119.877 15.4171 119.772 15.3757 119.653 15.3757H116.598C116.469 15.3757 116.357 15.4235 116.257 15.4891C116.156 15.4235 116.044 15.3757 115.916 15.3757H114.391C114.138 15.3757 113.909 15.5276 113.81 15.7616L113.267 17.0426L112.668 15.743C112.564 15.5191 112.34 15.3757 112.094 15.3757H110.601C110.251 15.3757 109.969 15.6589 109.969 16.0077V16.5576L109.626 15.7573C109.526 15.5255 109.298 15.375 109.044 15.375H107.686C107.433 15.375 107.205 15.5262 107.105 15.758L105.467 19.5861C105.383 19.7823 105.404 20.0048 105.52 20.1831C105.637 20.36 105.835 20.467 106.048 20.467H107.042C107.296 20.467 107.526 20.3129 107.624 20.0775L107.818 19.6125H108.877L109.068 20.0747C109.165 20.3115 109.396 20.4663 109.653 20.4663H111.514C111.863 20.4663 112.146 20.1831 112.146 19.8343V19.8193L112.265 20.0911C112.367 20.3193 112.594 20.467 112.843 20.467L113.647 20.4684C113.898 20.4684 114.123 20.3208 114.225 20.0918L114.346 19.8208V19.8365C114.346 20.1852 114.628 20.4677 114.978 20.4677H115.916C116.044 20.4677 116.156 20.4192 116.257 20.3543C116.357 20.4192 116.469 20.4677 116.598 20.4677H119.653C119.772 20.4677 119.877 20.4263 119.97 20.37C120.065 20.4263 120.169 20.4677 120.287 20.4677H121.203C121.553 20.4677 121.835 20.1845 121.835 19.8357V19.0754H122.185C122.264 19.0754 122.32 19.0775 122.362 19.0804C122.367 19.1453 122.365 19.2223 122.365 19.2737L122.364 19.3579L122.367 19.8407C122.37 20.1874 122.653 20.4677 123 20.4677H123.923C124.026 20.4677 124.12 20.4356 124.206 20.3914C124.294 20.4363 124.388 20.4677 124.492 20.4677H125.427C125.733 20.4677 125.976 20.2466 126.035 19.9584C126.553 20.3942 127.284 20.4677 127.69 20.4677H128.762C129.018 20.4677 129.249 20.3108 129.345 20.0718L129.531 19.6132H130.586L130.779 20.0783C130.877 20.3129 131.106 20.467 131.362 20.467H133.224C133.573 20.467 133.856 20.1838 133.856 19.835V19.2309L134.417 20.1617C134.532 20.3507 134.737 20.467 134.959 20.467H136.255C136.604 20.467 136.887 20.1838 136.887 19.835V16.007C136.887 15.6582 136.603 15.375 136.255 15.375ZM115.915 19.8343H114.977L114.974 16.8365L113.647 19.8343H112.843L111.514 16.8336V19.8343H109.652L109.3 18.9805H107.396L107.041 19.8343H106.046L107.685 16.0062H109.043L110.6 19.631V16.0062H112.094L113.291 18.6032L114.39 16.0062H115.915V19.8343ZM119.653 16.8037H117.511V17.4934H119.602V18.278H117.511V19.0426H119.653V19.8343H116.597V16.0062H119.653V16.8037ZM123.317 18.0583C123.517 18.1353 123.688 18.2694 123.77 18.3807C123.899 18.5711 123.922 18.7409 123.922 19.0825V19.8336H122.999L122.994 19.3507C122.994 19.1211 123.016 18.7901 122.85 18.6054C122.717 18.4713 122.513 18.442 122.183 18.442H121.203V19.8343H120.287H120.286V16.007H122.39C122.858 16.007 123.203 16.0191 123.498 16.1903C123.787 16.3614 123.961 16.6111 123.961 17.0383C123.961 17.6482 123.554 17.9641 123.317 18.0583ZM125.427 19.8343H124.493V16.0062H125.427V19.8343ZM136.255 19.8343H134.959L133.223 16.9613V19.8343H131.362L131.005 18.9805H129.103L128.76 19.8343H127.688C127.244 19.8343 126.683 19.7359 126.364 19.4114C126.041 19.0861 125.874 18.6453 125.874 17.9499C125.874 17.3821 125.974 16.8629 126.364 16.452C126.658 16.1468 127.121 16.0062 127.753 16.0062H128.637V16.8265H127.77C127.437 16.8265 127.248 16.8757 127.067 17.0533C126.911 17.2145 126.805 17.5191 126.805 17.9206C126.805 18.33 126.886 18.6253 127.057 18.8186C127.199 18.9706 127.456 19.0162 127.695 19.0162H128.105L129.397 16.0062H130.768L132.316 19.6268V16.0062H133.71L135.318 18.6724V16.0062H136.255V19.8343ZM128.089 17.4592L127.692 18.3857C127.604 18.3857 127.545 18.3757 127.512 18.3671C127.481 18.3101 127.439 18.1838 127.439 17.9214C127.439 17.656 127.504 17.5184 127.512 17.5062C127.539 17.4806 127.561 17.4584 127.775 17.4584L128.089 17.4592Z" fill="#B6B8B8"/>
<path d="M118.721 24.5162L120.126 26.0768V23.0076L118.721 24.5162Z" fill="#B6B8B8"/>
<path d="M116.541 23.3879H114.249V24.0833H116.257V24.865H114.249V25.6268H116.497L117.542 24.502L116.541 23.3879Z" fill="#B6B8B8"/>
<path d="M180.356 10.25C177.717 10.2507 175.311 11.2532 173.498 12.8997C171.683 11.2553 169.279 10.2521 166.642 10.2521C166.621 10.2521 166.598 10.2521 166.577 10.2521C160.962 10.2889 156.416 14.8658 156.416 20.4996C156.416 26.1561 160.998 30.7464 166.642 30.7464C169.278 30.7464 171.683 29.7447 173.497 28.0988C173.118 27.756 172.775 27.3763 172.451 26.979H174.563C174.244 27.3699 173.897 27.7362 173.524 28.0769H173.523C173.514 28.0861 173.505 28.0918 173.497 28.0995C175.312 29.7468 177.719 30.7507 180.36 30.75C186.007 30.7478 190.584 26.1582 190.583 20.4996C190.583 20.4975 190.583 20.4961 190.583 20.4947C190.583 14.8361 186.004 10.2486 180.356 10.25ZM172.568 13.958H174.512C174.798 14.3059 175.064 14.6721 175.305 15.0552H171.838C172.062 14.689 172.307 14.3122 172.568 13.958ZM171.234 16.1312H175.895C176.061 16.4861 176.208 16.8531 176.336 17.2292H170.682C170.738 17.1231 170.936 16.6961 171.234 16.1312ZM160.591 23.1097L161.211 19.1917L159.812 23.1097H159.062L158.964 19.1917L158.302 23.1097H157.251L158.122 17.9135H159.711L159.767 21.102L160.84 17.9135H162.563L161.705 23.1097H160.591ZM164.305 23.1013L164.341 22.6863C164.324 22.6884 163.993 23.1875 163.224 23.1875C162.822 23.1875 162.173 22.9676 162.173 22.0118C162.173 20.7965 163.162 20.3936 164.104 20.3936C164.252 20.3936 164.572 20.4204 164.572 20.4204C164.572 20.4204 164.608 20.3462 164.608 20.1454C164.608 19.8153 164.311 19.77 163.906 19.77C163.191 19.77 162.719 19.9616 162.719 19.9616L162.877 19.0213C162.877 19.0213 163.45 18.781 164.196 18.781C164.582 18.781 165.691 18.822 165.691 20.0966L165.264 23.1013H164.305ZM168.357 21.7778C168.357 23.2278 166.955 23.1656 166.71 23.1656C165.797 23.1656 165.514 23.039 165.488 23.032L165.634 22.0776C165.635 22.0691 166.092 22.2437 166.601 22.2437C166.894 22.2437 167.275 22.2147 167.275 21.8634C167.275 21.3374 165.912 21.4632 165.912 20.214C165.912 19.1118 166.729 18.7895 167.535 18.7895C168.157 18.7895 168.54 18.875 168.54 18.875L168.402 19.8379C168.402 19.8379 167.811 19.7891 167.658 19.7891C167.271 19.7891 167.06 19.8739 167.06 20.1454C167.059 20.6912 168.357 20.424 168.357 21.7778ZM170.04 22.1582C170.137 22.1582 170.246 22.1249 170.321 22.1249L170.185 23.0518C170.075 23.0822 169.766 23.1925 169.369 23.1953C168.861 23.1995 168.501 22.9153 168.501 22.2706C168.501 21.8379 169.12 18.2727 169.144 18.2493H170.232L170.121 18.887H170.665L170.526 19.9142H169.949L169.643 21.8068C169.62 21.9574 169.661 22.1582 170.04 22.1582ZM172.435 18.7668C173.63 18.7668 173.988 19.6435 173.988 20.3625C173.988 20.6502 173.844 21.3572 173.844 21.3572H171.631C171.631 21.3572 171.427 22.2303 172.596 22.2303C173.144 22.2303 173.752 21.9616 173.752 21.9616L173.56 23.0129C173.56 23.0129 173.209 23.1925 172.41 23.1925C171.544 23.1925 170.529 22.8255 170.529 21.2844C170.53 19.9489 171.34 18.7668 172.435 18.7668ZM175.318 25.9235H171.69C171.47 25.57 171.264 25.2073 171.086 24.8263H175.914C175.737 25.2052 175.538 25.5714 175.318 25.9235ZM175.075 23.1175H173.957L174.637 18.8884H175.65L175.553 19.5014C175.553 19.5014 175.914 18.8347 176.402 18.8347C176.544 18.8347 176.612 18.8488 176.612 18.8488C176.467 19.1444 176.34 19.4151 176.207 20.1143C175.451 19.8457 175.393 21.3112 175.075 23.1175ZM179.333 23.0518C179.333 23.0518 178.747 23.2017 178.38 23.2017C177.081 23.2017 176.421 22.3031 176.421 20.9422C176.421 18.8898 177.644 17.7969 178.9 17.7969C179.468 17.7969 180.126 18.0641 180.126 18.0641L179.948 19.22C179.948 19.22 179.503 18.9082 178.949 18.9082C178.209 18.9082 177.544 19.6166 177.544 20.904C177.544 21.5382 177.854 22.1292 178.627 22.1292C178.995 22.1292 179.527 21.8612 179.527 21.8612L179.333 23.0518ZM181.954 23.1034L181.99 22.6856C181.973 22.6877 181.641 23.1868 180.873 23.1868C180.471 23.1868 179.822 22.9669 179.822 22.0111C179.822 20.7958 180.811 20.3929 181.752 20.3929C181.901 20.3929 182.221 20.4197 182.221 20.4197C182.221 20.4197 182.258 20.3462 182.258 20.1454C182.258 19.8153 181.961 19.77 181.555 19.77C180.84 19.77 180.369 19.9616 180.369 19.9616L180.527 19.0213C180.527 19.0213 181.1 18.781 181.846 18.781C182.232 18.781 183.342 18.822 183.341 20.0966L182.914 23.1013C182.913 23.1034 181.954 23.1034 181.954 23.1034ZM184.216 23.1175H183.099L183.778 18.8884H184.793L184.695 19.5014C184.695 19.5014 185.057 18.8347 185.545 18.8347C185.686 18.8347 185.754 18.8488 185.754 18.8488C185.61 19.1444 185.481 19.4151 185.349 20.1143C184.592 19.8457 184.534 21.3112 184.216 23.1175ZM187.552 23.1062L187.6 22.7167C187.6 22.7167 187.239 23.1734 186.585 23.1734C185.68 23.1734 185.236 22.2974 185.236 21.4024C185.236 20.0182 186.067 18.8114 187.065 18.8114C187.707 18.8128 188.117 19.3805 188.117 19.3805L188.353 17.9206L189.444 17.9185L188.611 23.1062H187.552ZM189.706 22.9599C189.677 23.0122 189.636 23.0525 189.584 23.0836C189.532 23.1126 189.477 23.1274 189.419 23.1274C189.363 23.1274 189.309 23.1126 189.256 23.0836C189.204 23.0525 189.163 23.0122 189.134 22.9599C189.105 22.9068 189.091 22.8531 189.091 22.7959C189.091 22.7379 189.105 22.6827 189.134 22.6304C189.163 22.5781 189.206 22.5357 189.258 22.5074C189.311 22.4784 189.364 22.4636 189.419 22.4636C189.476 22.4636 189.529 22.4784 189.582 22.5074C189.635 22.5364 189.676 22.5767 189.706 22.6304C189.736 22.6834 189.749 22.7386 189.749 22.7959C189.749 22.8531 189.735 22.9076 189.706 22.9599Z" fill="#B6B8B8"/>
<path d="M189.619 26.0868C189.612 26.0818 189.606 26.0741 189.594 26.0698C189.583 26.0656 189.566 26.0635 189.538 26.0635H189.472V26.1693H189.542C189.575 26.1693 189.597 26.1665 189.61 26.1545C189.622 26.1446 189.628 26.1326 189.628 26.1157C189.628 26.1044 189.625 26.0966 189.619 26.0868Z" fill="#B6B8B8"/>
<path d="M189.847 26.0229C189.817 25.9678 189.775 25.929 189.722 25.9001C189.669 25.8712 189.616 25.8564 189.561 25.8564C189.504 25.8564 189.451 25.8712 189.398 25.9001C189.346 25.929 189.303 25.9692 189.274 26.0229C189.244 26.0751 189.23 26.1301 189.23 26.1865C189.23 26.243 189.245 26.2987 189.274 26.3502C189.305 26.4024 189.345 26.4448 189.397 26.4737C189.449 26.5026 189.504 26.5174 189.562 26.5174C189.619 26.5174 189.674 26.5026 189.725 26.4737C189.777 26.4448 189.818 26.4024 189.847 26.3502C189.877 26.2987 189.891 26.2437 189.891 26.1865C189.891 26.1294 189.876 26.0744 189.847 26.0229ZM189.644 26.37L189.613 26.3142C189.588 26.2705 189.568 26.2416 189.552 26.2303C189.542 26.2232 189.527 26.2176 189.507 26.2176H189.474V26.3693H189.416V26.013H189.539C189.581 26.013 189.611 26.0165 189.628 26.0236C189.647 26.0306 189.664 26.0405 189.674 26.0581C189.685 26.0744 189.69 26.092 189.69 26.1103C189.69 26.1364 189.68 26.1583 189.662 26.1788C189.644 26.1971 189.619 26.2091 189.588 26.2112C189.601 26.2155 189.611 26.2225 189.619 26.2303C189.633 26.2444 189.65 26.2677 189.671 26.3001L189.715 26.37H189.644Z" fill="#B6B8B8"/>
<path d="M164.193 21.2045C163.395 21.2045 163.233 21.5636 163.233 21.8627C163.233 22.0168 163.322 22.2741 163.66 22.2741C164.315 22.2741 164.451 21.413 164.43 21.2299C164.399 21.2236 164.379 21.2052 164.193 21.2045Z" fill="#B6B8B8"/>
<path d="M172.44 19.7432C171.847 19.7432 171.732 20.4183 171.732 20.4896H172.941C172.941 20.4353 173.055 19.7432 172.44 19.7432Z" fill="#B6B8B8"/>
<path d="M187.254 19.8612C186.775 19.8612 186.396 20.4183 186.396 21.2646C186.396 21.7807 186.58 22.1115 186.972 22.1115C187.562 22.1115 187.846 21.3402 187.846 20.7655C187.846 20.1313 187.645 19.8612 187.254 19.8612Z" fill="#B6B8B8"/>
<path d="M189.657 22.6585C189.633 22.6147 189.598 22.5809 189.554 22.5562C189.511 22.5315 189.466 22.5195 189.42 22.5195C189.375 22.5195 189.329 22.5322 189.285 22.5562C189.241 22.5788 189.207 22.614 189.182 22.6585C189.157 22.7029 189.145 22.7502 189.145 22.7961C189.145 22.8433 189.157 22.8899 189.181 22.9329C189.207 22.9767 189.24 23.0098 189.284 23.0359C189.327 23.0599 189.372 23.074 189.42 23.074C189.467 23.074 189.514 23.0599 189.556 23.0359C189.6 23.0112 189.633 22.9774 189.659 22.9329C189.684 22.8892 189.695 22.8433 189.695 22.7961C189.695 22.7495 189.682 22.7029 189.657 22.6585ZM189.504 22.9774L189.473 22.9224C189.448 22.8779 189.428 22.8497 189.413 22.8391C189.401 22.8299 189.387 22.8257 189.367 22.8257H189.334V22.9767H189.275V22.6211H189.399C189.44 22.6211 189.471 22.6246 189.489 22.6324C189.506 22.6387 189.522 22.6507 189.534 22.6662C189.546 22.6818 189.55 22.6994 189.55 22.7185C189.55 22.7446 189.54 22.7664 189.522 22.7862C189.504 22.8066 189.478 22.8151 189.449 22.8186C189.463 22.8243 189.472 22.8306 189.479 22.837C189.494 22.8518 189.511 22.873 189.531 22.9068L189.575 22.9774H189.504Z" fill="#B6B8B8"/>
<path d="M181.843 21.2045C181.045 21.2045 180.884 21.5636 180.884 21.8627C180.884 22.0168 180.971 22.2741 181.31 22.2741C181.965 22.2741 182.101 21.413 182.08 21.2299C182.049 21.2236 182.029 21.2052 181.843 21.2045Z" fill="#B6B8B8"/>
<path d="M189.48 22.694C189.474 22.6869 189.467 22.6813 189.456 22.6764C189.444 22.6728 189.426 22.6693 189.398 22.6693V22.67H189.334V22.7773H189.404C189.437 22.7773 189.459 22.773 189.472 22.7624C189.483 22.7519 189.489 22.7385 189.489 22.7229C189.489 22.7109 189.486 22.7039 189.48 22.694Z" fill="#B6B8B8"/>
</svg>
