<svg width="200" height="200" viewBox="0 0 200 200" fill="none" xmlns="http://www.w3.org/2000/svg">
<path d="M23.1497 153.461C23.1497 115.033 3.24414 88.6445 3.24414 70.1278C3.24414 51.6111 13.8886 12.7222 99.0719 12.7222C184.255 12.7222 196.755 65.0389 196.755 85.4056C196.761 180.778 23.1497 221.517 23.1497 153.461Z" fill="#EFEFEF"/>
<path d="M29.8594 12.5H35.4149V23.6111H29.8594V12.5Z" fill="#A4AFC1"/>
<path d="M11.8047 29.1667H22.9158V34.7222H11.8047V29.1667Z" fill="#A4AFC1"/>
<path d="M147.557 81.9444C155.001 81.9444 160.334 89.1111 158.168 96.2778L149.168 126.056C148.057 131.111 143.557 134.722 138.334 134.722H79.8344C74.5566 134.722 70.0566 131.056 68.9455 125.944L59.0566 81.9444H147.557Z" fill="#F4F4F5"/>
<path d="M160.873 71.9833L144.206 88.65C143.201 89.6556 141.812 90.2778 140.279 90.2778C138.729 90.2778 137.329 89.6445 136.323 88.6222L112.923 66.1333C110.945 64.1278 109.729 61.3722 109.729 58.3333V40.2778C109.729 38.7444 110.973 37.5 112.506 37.5H130.562C133.601 37.5 136.356 38.7167 138.362 40.6944L160.851 64.0944C161.873 65.1 162.506 66.5056 162.506 68.05C162.501 69.5889 161.879 70.9778 160.873 71.9833Z" fill="#975BEC"/>
<path d="M81.4455 125.944L71.5566 81.9444H59.0566L68.9455 125.944C70.0566 131.056 74.5566 134.722 79.8344 134.722H92.3344C87.0566 134.722 82.5566 131.056 81.4455 125.944Z" fill="#D5DBE1"/>
<path d="M125.417 66.1333C123.439 64.1222 122.223 61.3722 122.223 58.3333V40.2778C122.223 38.7444 123.467 37.5 125 37.5H112.5C110.967 37.5 109.723 38.7444 109.723 40.2778V58.3333C109.723 61.3722 110.939 64.1222 112.917 66.1333L136.317 88.6222C137.323 89.6445 138.728 90.2778 140.273 90.2778C141.806 90.2778 143.195 89.6556 144.2 88.65L146.478 86.3722L125.417 66.1333Z" fill="#975BEC"/>
<path d="M138.332 138.889H79.832C72.5654 138.889 66.4154 133.928 64.8765 126.833L51.9876 69.4111C51.2765 66.15 48.4765 63.8889 45.1654 63.8889H33.332V55.5556H45.1654C52.432 55.5556 58.582 60.5167 60.1209 67.6111L73.0042 125.028C73.7154 128.289 76.5209 130.55 79.832 130.55H138.332C141.565 130.55 144.41 128.283 145.093 125.161L151.565 96.35L159.699 98.1778L153.226 126.967C151.721 133.867 145.454 138.889 138.332 138.889Z" fill="#1D1F1F"/>
<path d="M59.7227 77.7778H101.389V86.1111H59.7227V77.7778Z" fill="#1D1F1F"/>
<path d="M86.1107 166.667C90.713 166.667 94.444 162.936 94.444 158.333C94.444 153.731 90.713 150 86.1107 150C81.5083 150 77.7773 153.731 77.7773 158.333C77.7773 162.936 81.5083 166.667 86.1107 166.667Z" fill="#1D1F1F"/>
<path d="M130.556 166.667C135.158 166.667 138.889 162.936 138.889 158.333C138.889 153.731 135.158 150 130.556 150C125.954 150 122.223 153.731 122.223 158.333C122.223 162.936 125.954 166.667 130.556 166.667Z" fill="#1D1F1F"/>
<path d="M140.277 94.4444C137.644 94.4444 135.188 93.4111 133.349 91.5389L110.032 69.1389C107.11 66.1778 105.555 62.3667 105.555 58.3333V40.2778C105.555 36.45 108.671 33.3333 112.499 33.3333H130.555C134.599 33.3333 138.405 34.8944 141.277 37.7333L163.849 61.2167C165.632 62.9722 166.666 65.4333 166.666 68.0555C166.666 70.65 165.655 73.0944 163.816 74.9278L147.149 91.5944C145.321 93.4333 142.877 94.4444 140.277 94.4444ZM113.888 41.6667V58.3333C113.888 60.1667 114.599 61.9 115.882 63.2111L139.205 85.6167C139.682 86.0889 140.949 86.0111 141.249 85.7111L157.921 69.0444C158.071 68.8944 158.327 68.5611 158.327 68.0611C158.327 67.5555 158.066 67.2222 157.916 67.0667L135.344 43.5833C134.121 42.3722 132.388 41.6667 130.555 41.6667H113.888Z" fill="#1D1F1F"/>
</svg>
