<svg width="500" height="500" viewBox="0 0 500 500" fill="none" xmlns="http://www.w3.org/2000/svg">
<path d="M500 382.4H0V382.65H500V382.4Z" fill="#EBEBEB"/>
<path d="M449.901 398.49H428.221V398.74H449.901V398.49Z" fill="#EBEBEB"/>
<path d="M344.671 393.31H310.561V393.56H344.671V393.31Z" fill="#EBEBEB"/>
<path d="M441.12 389.21H396.59V389.46H441.12V389.21Z" fill="#EBEBEB"/>
<path d="M173.021 394.25H161.881V394.5H173.021V394.25Z" fill="#EBEBEB"/>
<path d="M152.97 394.25H114.58V394.5H152.97V394.25Z" fill="#EBEBEB"/>
<path d="M94.0106 390.03H66.3105V390.28H94.0106V390.03Z" fill="#EBEBEB"/>
<path d="M237.001 337.8H43.9109C42.3983 337.797 40.9485 337.195 39.8798 336.124C38.8112 335.053 38.2109 333.603 38.2109 332.09V60.66C38.2241 59.156 38.8301 57.718 39.8974 56.6582C40.9646 55.5985 42.4069 55.0026 43.9109 55H237.001C238.515 55 239.968 55.6016 241.039 56.6724C242.109 57.7433 242.711 59.1956 242.711 60.71V332.09C242.711 333.604 242.109 335.057 241.039 336.128C239.968 337.198 238.515 337.8 237.001 337.8ZM43.9109 55.2C42.4646 55.2026 41.0784 55.7791 40.0566 56.8027C39.0348 57.8264 38.4609 59.2136 38.4609 60.66V332.09C38.4609 333.536 39.0348 334.924 40.0566 335.947C41.0784 336.971 42.4646 337.547 43.9109 337.55H237.001C238.448 337.547 239.835 336.971 240.859 335.948C241.882 334.924 242.458 333.537 242.461 332.09V60.66C242.458 59.2127 241.882 57.8255 240.859 56.8021C239.835 55.7787 238.448 55.2026 237.001 55.2H43.9109Z" fill="#EBEBEB"/>
<path d="M453.31 337.8H260.21C258.696 337.797 257.246 337.195 256.175 336.125C255.105 335.054 254.503 333.604 254.5 332.09V60.66C254.516 59.1551 255.124 57.7171 256.193 56.6576C257.262 55.5981 258.705 55.0025 260.21 55H453.31C454.812 55.0052 456.252 55.6022 457.317 56.6617C458.382 57.7212 458.987 59.1578 459 60.66V332.09C459 333.601 458.401 335.05 457.335 336.121C456.268 337.191 454.821 337.795 453.31 337.8ZM260.21 55.2C258.763 55.2026 257.375 55.7787 256.352 56.8021C255.329 57.8255 254.753 59.2127 254.75 60.66V332.09C254.753 333.537 255.329 334.924 256.352 335.948C257.375 336.971 258.763 337.547 260.21 337.55H453.31C454.757 337.547 456.145 336.971 457.168 335.948C458.191 334.924 458.767 333.537 458.77 332.09V60.66C458.767 59.2127 458.191 57.8255 457.168 56.8021C456.145 55.7787 454.757 55.2026 453.31 55.2H260.21Z" fill="#EBEBEB"/>
<path d="M216.071 200.88L216.521 187.74L208.461 185.1C208.114 180.647 207.392 176.231 206.301 171.9L213.141 166.9L208.501 154.56L200.041 155.24C198.035 151.264 195.693 147.467 193.041 143.89L197.421 136.58L188.421 126.97L180.861 130.84C177.461 127.934 173.829 125.312 170.001 123L171.221 114.6L159.221 109.16L153.721 115.6C149.478 114.243 145.13 113.239 140.721 112.6L138.721 104.37L125.541 103.92L122.941 111.99C118.492 112.34 114.08 113.059 109.751 114.14L104.671 107.34L92.3308 111.95L93.0108 120.41C89.0371 122.446 85.2405 124.811 81.6608 127.48L74.3008 123L64.6508 132L68.5208 139.6C65.6142 142.982 63.0045 146.609 60.7208 150.44L52.3308 149.18L46.8508 161.18L53.3308 166.67C51.9639 170.91 50.9603 175.259 50.3308 179.67L42.0008 181.76L41.5508 194.9L49.6508 197.54C49.9858 201.99 50.7052 206.403 51.8008 210.73L44.9608 215.73L49.6108 228.08L58.0708 227.4C60.0715 231.379 62.4136 235.176 65.0708 238.75L60.6808 246.06L69.6808 255.67L77.2408 251.8C80.6314 254.705 84.2572 257.324 88.0808 259.63L86.8208 268.02L98.8208 273.47L104.351 267.03C108.594 268.399 112.942 269.42 117.351 270.08L119.351 278.31L132.531 278.76L135.131 270.69C139.582 270.336 143.997 269.617 148.331 268.54L153.331 275.34L165.671 270.73L165.031 262.27C168.997 260.221 172.793 257.856 176.381 255.2L183.651 259.58L193.301 250.58L189.431 242.98C192.338 239.598 194.948 235.971 197.231 232.14L205.621 233.4L211.101 221.4L204.621 215.9C206.011 211.663 207.031 207.313 207.671 202.9L216.071 200.88ZM127.281 243.45C116.969 243.102 106.992 239.703 98.6116 233.683C90.2315 227.664 83.825 219.294 80.2024 209.633C76.5798 199.972 75.9039 189.453 78.2602 179.408C80.6165 169.363 85.8991 160.242 93.4398 153.199C100.98 146.157 110.441 141.509 120.623 139.844C130.806 138.178 141.254 139.57 150.645 143.844C160.036 148.117 167.949 155.08 173.383 163.851C178.817 172.622 181.527 182.808 181.171 193.12C180.696 206.939 174.753 220.005 164.647 229.443C154.541 238.881 141.101 243.919 127.281 243.45Z" fill="#EBEBEB"/>
<path d="M441.001 157.42L444.311 154.33L443.001 151.72C444 150.55 444.9 149.299 445.691 147.98L448.591 148.41L450.461 144.27L448.241 142.38C448.719 140.916 449.07 139.414 449.291 137.89L452.141 137.18L452.281 132.64L449.501 131.74C449.379 130.202 449.131 128.677 448.761 127.18L451.111 125.43L449.511 121.18L446.601 121.41C445.899 120.039 445.086 118.728 444.171 117.49L445.681 114.99L442.571 111.67L439.971 113C438.8 112.003 437.549 111.103 436.231 110.31L436.651 107.41L432.521 105.52L430.621 107.75C429.154 107.293 427.653 106.959 426.131 106.75L425.421 103.91L420.881 103.74L419.971 106.54C418.439 106.657 416.92 106.905 415.431 107.28L413.691 104.93L409.431 106.52L409.671 109.44C408.296 110.135 406.985 110.948 405.751 111.87L403.231 110.36L399.911 113.45L401.201 116C400.194 117.166 399.291 118.417 398.501 119.74L395.611 119.31L393.731 123.45L395.961 125.35C395.499 126.812 395.164 128.311 394.961 129.83L392.101 130.54L391.961 135.08L394.751 135.98C394.865 137.518 395.109 139.043 395.481 140.54L393.121 142.28L394.721 146.53L397.641 146.31C398.343 147.681 399.155 148.992 400.071 150.23L398.561 152.73L401.671 156.05L404.271 154.72C405.44 155.72 406.691 156.62 408.011 157.41L407.581 160.3L411.721 162.19L413.621 159.97C415.089 160.422 416.59 160.756 418.111 160.97L418.821 163.81L423.361 163.98L424.271 161.18C425.803 161.064 427.322 160.816 428.811 160.44L430.551 162.79L434.811 161.2L434.581 158.28C435.952 157.584 437.26 156.771 438.491 155.85L441.001 157.42ZM417.381 138.29C416.508 137.354 415.932 136.181 415.726 134.917C415.519 133.654 415.693 132.358 416.223 131.193C416.754 130.029 417.618 129.047 418.706 128.374C419.795 127.7 421.058 127.365 422.337 127.41C423.617 127.454 424.854 127.878 425.892 128.626C426.931 129.374 427.724 130.413 428.172 131.612C428.62 132.811 428.702 134.116 428.408 135.361C428.114 136.607 427.457 137.738 426.521 138.61C425.899 139.196 425.168 139.653 424.368 139.954C423.569 140.256 422.718 140.396 421.864 140.366C421.01 140.336 420.171 140.137 419.395 139.781C418.618 139.425 417.92 138.918 417.341 138.29H417.381Z" fill="#EBEBEB"/>
<path d="M320 292.34L309.66 285.19C308.646 281.467 307.252 277.858 305.5 274.42L308.15 264.02L293.15 247.96L282.59 249.89C279.277 247.905 275.769 246.267 272.12 245L265.7 234.19L243.7 233.44L236.56 243.78C232.841 244.793 229.236 246.183 225.8 247.93L215.4 245.28L199.34 260.28L201.27 270.82C199.287 274.14 197.652 277.655 196.39 281.31L185.58 287.73L184.83 309.73L195.18 316.87C196.177 320.613 197.568 324.24 199.33 327.69L196.65 338L211.65 354.06L222.14 352.14C225.478 354.127 229.009 355.769 232.68 357.04L239.09 367.83L261.09 368.59L268.22 358.25C271.972 357.237 275.611 355.843 279.08 354.09L289.42 356.73L305.49 341.73L303.56 331.19C305.549 327.87 307.185 324.351 308.44 320.69L319.25 314.27L320 292.34ZM251.55 325.73C246.666 325.563 241.941 323.952 237.973 321.1C234.005 318.248 230.971 314.283 229.256 309.707C227.541 305.131 227.221 300.149 228.337 295.392C229.453 290.634 231.955 286.314 235.526 282.978C239.097 279.642 243.576 277.44 248.399 276.649C253.221 275.859 258.17 276.517 262.619 278.539C267.068 280.561 270.817 283.857 273.393 288.01C275.969 292.163 277.255 296.986 277.09 301.87C276.861 308.42 274.041 314.612 269.251 319.085C264.461 323.559 258.091 325.949 251.54 325.73H251.55Z" fill="#EBEBEB"/>
<path d="M343.549 230H343.479L326.159 229.41C325.809 229.404 325.465 229.309 325.161 229.134C324.857 228.959 324.602 228.71 324.419 228.41L319.749 220.56C317.232 219.639 314.797 218.509 312.469 217.18L304.999 218.47C304.651 218.534 304.293 218.508 303.957 218.397C303.622 218.285 303.32 218.09 303.079 217.83L291.249 205.17C291.001 204.908 290.825 204.586 290.737 204.236C290.649 203.885 290.654 203.518 290.749 203.17L292.639 195.76C291.468 193.359 290.511 190.859 289.779 188.29L282.249 183.09C281.957 182.889 281.721 182.618 281.562 182.302C281.403 181.985 281.326 181.634 281.339 181.28L281.929 163.96C281.941 163.61 282.038 163.269 282.213 162.965C282.387 162.662 282.633 162.406 282.929 162.22L290.799 157.55C291.707 155.039 292.835 152.613 294.169 150.3L292.789 142.77C292.725 142.42 292.75 142.06 292.862 141.723C292.973 141.385 293.169 141.082 293.429 140.84L306.089 129.02C306.351 128.771 306.673 128.593 307.023 128.504C307.373 128.414 307.74 128.417 308.089 128.51L315.529 130.41C317.924 129.238 320.417 128.278 322.979 127.54L328.179 120.01C328.373 119.711 328.642 119.469 328.961 119.309C329.279 119.149 329.634 119.077 329.989 119.1L347.299 119.7C347.651 119.707 347.996 119.803 348.301 119.977C348.607 120.152 348.864 120.401 349.049 120.7L353.719 128.56C356.219 129.477 358.634 130.608 360.939 131.94L368.499 130.55C368.847 130.485 369.206 130.51 369.542 130.622C369.878 130.734 370.18 130.929 370.419 131.19L382.249 143.85C382.496 144.113 382.671 144.435 382.759 144.785C382.846 145.135 382.843 145.502 382.749 145.85L380.849 153.28C382.021 155.676 382.984 158.169 383.729 160.73L391.249 165.93C391.541 166.13 391.778 166.402 391.937 166.718C392.096 167.034 392.173 167.386 392.159 167.74L391.569 185.05C391.558 185.401 391.46 185.744 391.286 186.049C391.112 186.354 390.866 186.612 390.569 186.8L382.699 191.47C381.786 193.975 380.658 196.398 379.329 198.71L380.709 206.25C380.774 206.598 380.749 206.957 380.637 207.293C380.525 207.628 380.33 207.93 380.069 208.17L367.329 220C367.067 220.248 366.745 220.425 366.395 220.512C366.045 220.6 365.678 220.596 365.329 220.5L357.929 218.61C355.518 219.776 353.013 220.736 350.439 221.48L345.289 229C345.104 229.297 344.848 229.543 344.545 229.718C344.241 229.892 343.899 229.989 343.549 230ZM327.459 225.23L342.459 225.74L347.459 218.55C347.736 218.13 348.161 217.83 348.649 217.71C351.463 216.94 354.194 215.892 356.799 214.58C357.254 214.361 357.77 214.308 358.259 214.43L365.259 216.22L376.259 205.97L374.999 198.74C374.902 198.235 374.995 197.711 375.259 197.27C376.745 194.794 377.968 192.17 378.909 189.44C379.068 188.945 379.403 188.525 379.849 188.26L387.379 183.8L387.889 168.8L380.689 163.8C380.31 163.541 380.026 163.165 379.879 162.73C379.879 162.68 379.879 162.62 379.879 162.56C379.109 159.796 378.064 157.116 376.759 154.56C376.528 154.102 376.471 153.576 376.599 153.08L378.399 146L368.149 135L360.959 136.32C360.457 136.411 359.939 136.319 359.499 136.06C357.018 134.572 354.391 133.342 351.659 132.39C351.503 132.34 351.352 132.273 351.209 132.19C350.921 132.01 350.681 131.763 350.509 131.47L345.999 123.92L330.999 123.4L325.999 130.61C325.701 131.033 325.261 131.334 324.759 131.46C321.974 132.221 319.274 133.263 316.699 134.57C316.246 134.802 315.722 134.858 315.229 134.73L308.149 132.93L297.149 143.18L298.469 150.35C298.548 150.802 298.481 151.268 298.279 151.68L298.179 151.85C296.692 154.336 295.469 156.97 294.529 159.71C294.364 160.18 294.038 160.576 293.609 160.83L286.079 165.3L285.569 180.3L292.779 185.3C293.19 185.581 293.488 185.999 293.619 186.48C294.369 189.288 295.411 192.01 296.729 194.6C296.801 194.747 296.858 194.902 296.899 195.06C296.975 195.389 296.975 195.731 296.899 196.06L295.099 203.06L305.349 214.06L312.489 212.75C312.988 212.659 313.503 212.751 313.939 213.01C316.439 214.495 319.083 215.725 321.829 216.68C322.325 216.827 322.744 217.16 322.999 217.61L327.459 225.23ZM336.729 206.26C336.359 206.26 335.989 206.26 335.619 206.26C327.306 206.114 319.388 202.69 313.587 196.734C307.786 190.778 304.572 182.771 304.646 174.457C304.719 166.143 308.073 158.195 313.978 152.342C319.882 146.489 327.86 143.205 336.174 143.205C344.489 143.205 352.466 146.489 358.371 152.342C364.276 158.195 367.63 166.143 367.703 174.457C367.776 182.771 364.563 190.778 358.762 196.734C352.961 202.69 345.042 206.114 336.729 206.26ZM336.729 147.17C329.465 147.295 322.544 150.285 317.473 155.489C312.403 160.692 309.593 167.688 309.655 174.953C309.718 182.219 312.648 189.165 317.808 194.28C322.967 199.396 329.939 202.266 337.204 202.266C344.47 202.266 351.441 199.396 356.601 194.28C361.761 189.165 364.691 182.219 364.753 174.953C364.816 167.688 362.006 160.692 356.935 155.489C351.865 150.285 344.944 147.295 337.679 147.17H336.729Z" fill="#EBEBEB"/>
<path d="M383.44 105.32L376.26 103.4L374.34 96.2199L377.15 93.4199L380.11 99.5499L386.25 102.52L383.44 105.32Z" fill="#E0E0E0"/>
<path d="M383.88 100.52C384.191 100.209 384.437 99.8406 384.605 99.4349C384.773 99.0291 384.86 98.5942 384.86 98.1549C384.86 97.7157 384.773 97.2808 384.605 96.875C384.437 96.4692 384.191 96.1005 383.88 95.7899C383.57 95.4794 383.201 95.233 382.795 95.0649C382.39 94.8968 381.955 94.8103 381.515 94.8103C381.076 94.8103 380.641 94.8968 380.235 95.0649C379.83 95.233 379.461 95.4794 379.15 95.7899L382.72 90.4299L387.5 92.8499L388.55 97.8499L383.88 100.52Z" fill="#E0E0E0"/>
<path d="M376.58 94L381.84 88.74L389 90.65L390.93 97.82L385.67 103.08L378.5 101.15L376.58 94ZM386.13 98.3C386.598 97.8314 386.917 97.2344 387.046 96.5847C387.175 95.9349 387.108 95.2615 386.855 94.6496C386.601 94.0377 386.172 93.5147 385.621 93.1467C385.07 92.7788 384.423 92.5824 383.76 92.5824C383.098 92.5824 382.45 92.7788 381.899 93.1467C381.348 93.5147 380.919 94.0377 380.665 94.6496C380.412 95.2615 380.345 95.9349 380.474 96.5847C380.603 97.2344 380.922 97.8314 381.39 98.3C382.024 98.9215 382.877 99.2679 383.764 99.2642C384.652 99.2604 385.502 98.9068 386.13 98.28V98.3Z" fill="#F0F0F0"/>
<path d="M90.2209 296.71L94.0709 295.67L95.1009 291.82L93.6009 290.32L92.0109 293.61L88.7109 295.2L90.2209 296.71Z" fill="#E0E0E0"/>
<path d="M89.9995 294.13C89.6986 293.786 89.5396 293.341 89.5547 292.885C89.5698 292.428 89.7579 291.994 90.0809 291.671C90.4039 291.348 90.8376 291.16 91.2941 291.145C91.7506 291.13 92.1958 291.289 92.5395 291.59L90.6294 288.72L87.9995 290L87.4395 292.7L89.9995 294.13Z" fill="#E0E0E0"/>
<path d="M93.9005 290.62L91.0805 287.8L87.2305 288.8L86.2305 292.65L89.0005 295.5L92.8505 294.5L93.9005 290.62ZM88.7805 292.93C88.5951 292.768 88.445 292.569 88.3395 292.346C88.234 292.124 88.1754 291.882 88.1672 291.635C88.159 291.389 88.2015 291.144 88.292 290.915C88.3826 290.685 88.5192 290.477 88.6934 290.303C88.8677 290.129 89.0758 289.992 89.305 289.902C89.5342 289.811 89.7795 289.769 90.0258 289.777C90.2721 289.785 90.5141 289.844 90.7368 289.949C90.9595 290.055 91.1581 290.205 91.3205 290.39C91.6214 290.734 91.7803 291.179 91.7652 291.635C91.7501 292.092 91.562 292.526 91.239 292.849C90.916 293.172 90.4823 293.36 90.0258 293.375C89.5693 293.39 89.1241 293.231 88.7805 292.93Z" fill="#F0F0F0"/>
<path d="M76.3597 85.66L79.5597 88.86C79.9599 89.2533 80.4986 89.4737 81.0597 89.4737C81.6208 89.4737 82.1595 89.2533 82.5597 88.86C82.9506 88.4586 83.1694 87.9204 83.1694 87.36C83.1694 86.7997 82.9506 86.2615 82.5597 85.86L79.3697 82.67C78.9682 82.2791 78.43 82.0603 77.8697 82.0603C77.3093 82.0603 76.7711 82.2791 76.3697 82.67C75.978 83.0685 75.7577 83.6043 75.7559 84.163C75.754 84.7217 75.9707 85.259 76.3597 85.66Z" fill="#F0F0F0"/>
<path d="M74.1092 77.71C74.9443 77.4778 75.8289 77.4945 76.6546 77.7581C77.4802 78.0216 78.211 78.5206 78.7571 79.1936C79.3031 79.8666 79.6408 80.6845 79.7285 81.5467C79.8163 82.409 79.6504 83.2781 79.2511 84.0474C78.8518 84.8166 78.2366 85.4526 77.481 85.8771C76.7253 86.3016 75.8622 86.4962 74.9975 86.437C74.1328 86.3778 73.3043 86.0674 72.6135 85.5439C71.9228 85.0204 71.4 84.3065 71.1092 83.49C70.9247 82.9136 70.8559 82.3064 70.907 81.7032C70.958 81.1001 71.1279 80.5131 71.4067 79.9759C71.6855 79.4387 72.0678 78.9619 72.5317 78.573C72.9955 78.1842 73.5316 77.8909 74.1092 77.71Z" fill="#E0E0E0"/>
<path d="M70.6306 82.9546L71.0938 84.2439L80.599 80.8293L80.1359 79.5399L70.6306 82.9546Z" fill="#F0F0F0"/>
<path d="M249.999 427.56C357.082 427.56 443.889 422.492 443.889 416.24C443.889 409.988 357.082 404.92 249.999 404.92C142.917 404.92 56.1094 409.988 56.1094 416.24C56.1094 422.492 142.917 427.56 249.999 427.56Z" fill="#F5F5F5"/>
<path d="M86.7192 120.65C85.7192 116.24 86.1592 112.54 88.0592 109.52C89.9592 106.5 93.0592 104.52 97.4692 103.52C101.879 102.52 105.689 102.92 108.669 104.78C111.649 106.64 113.669 109.78 114.669 114.08C115.375 116.734 115.434 119.519 114.839 122.2C114.258 124.427 113.029 126.431 111.309 127.96C109.266 129.68 106.814 130.844 104.189 131.34C101.617 132.023 98.9226 132.115 96.3092 131.61C94.0375 131.058 91.9828 129.839 90.4092 128.11C88.5293 126.001 87.2543 123.424 86.7192 120.65ZM95.0592 118.79C95.6792 121.51 96.6292 123.35 97.9092 124.31C98.57 124.751 99.313 125.053 100.094 125.199C100.874 125.345 101.676 125.332 102.452 125.16C103.227 124.988 103.959 124.661 104.605 124.199C105.251 123.737 105.797 123.149 106.209 122.47C106.929 121.08 106.939 118.87 106.259 115.86C105.679 113.32 104.743 111.58 103.449 110.64C102.798 110.173 102.05 109.857 101.261 109.717C100.472 109.577 99.6615 109.616 98.8892 109.83C98.1163 109.975 97.3862 110.293 96.754 110.761C96.1218 111.228 95.6039 111.833 95.2392 112.53C94.4992 114 94.4292 116 95.0592 118.79Z" fill="#263238"/>
<path d="M118.589 117.35C118.234 115.987 118.17 114.565 118.403 113.176C118.636 111.787 119.159 110.463 119.939 109.29C120.813 108.044 121.925 106.983 123.21 106.168C124.496 105.353 125.929 104.8 127.429 104.54C131.342 103.653 134.556 104.117 137.069 105.93C139.184 107.57 140.622 109.93 141.109 112.562C141.596 115.193 141.097 117.912 139.709 120.2C138.149 122.58 135.609 124.167 132.089 124.96C129.377 125.718 126.484 125.484 123.929 124.3C122.563 123.632 121.37 122.657 120.443 121.452C119.517 120.246 118.882 118.842 118.589 117.35ZM126.099 115.62C126.301 117.017 126.984 118.301 128.029 119.25C128.443 119.564 128.921 119.783 129.429 119.894C129.937 120.004 130.462 120.003 130.97 119.889C131.477 119.776 131.953 119.554 132.366 119.238C132.778 118.922 133.117 118.52 133.359 118.06C133.883 116.717 133.932 115.235 133.499 113.86C133.289 112.495 132.614 111.245 131.589 110.32C131.191 109.998 130.724 109.771 130.225 109.658C129.725 109.546 129.207 109.55 128.709 109.67C128.19 109.778 127.703 110.002 127.283 110.326C126.864 110.65 126.524 111.065 126.289 111.54C125.75 112.836 125.683 114.28 126.099 115.62Z" fill="#263238"/>
<path d="M148.579 128.57L142.449 101.57L149.449 99.97L150.109 102.86C150.603 101.707 151.32 100.664 152.219 99.79C153.206 98.9525 154.384 98.372 155.649 98.1C156.818 97.782 158.049 97.7637 159.227 98.0468C160.405 98.33 161.492 98.9054 162.389 99.72C164.366 101.568 165.706 103.993 166.219 106.65C166.959 109.9 166.739 112.56 165.579 114.65C165.028 115.649 164.265 116.517 163.345 117.192C162.424 117.867 161.368 118.334 160.249 118.56C159.171 118.816 158.054 118.86 156.959 118.69C155.909 118.506 154.908 118.108 154.019 117.52L156.139 126.85L148.579 128.57ZM152.189 109.71C152.373 110.959 152.997 112.101 153.949 112.93C154.331 113.222 154.774 113.425 155.245 113.521C155.716 113.618 156.203 113.608 156.669 113.49C157.102 113.403 157.509 113.216 157.856 112.943C158.204 112.67 158.482 112.32 158.669 111.92C159.094 110.668 159.094 109.312 158.669 108.06C158.486 106.805 157.884 105.649 156.959 104.78C156.616 104.495 156.213 104.293 155.779 104.189C155.346 104.085 154.894 104.082 154.459 104.18C154 104.279 153.569 104.481 153.198 104.77C152.828 105.059 152.527 105.428 152.319 105.85C151.83 107.083 151.784 108.447 152.189 109.71Z" fill="#263238"/>
<path d="M169.429 110.3L176.709 107.91C177.097 108.614 177.699 109.175 178.429 109.51C179.215 109.738 180.046 109.756 180.841 109.563C181.635 109.37 182.366 108.973 182.959 108.41C183.125 108.234 183.246 108.019 183.31 107.786C183.375 107.552 183.381 107.307 183.329 107.07C183.269 106.799 183.129 106.553 182.928 106.362C182.727 106.172 182.473 106.045 182.199 106C181.069 105.876 179.929 105.876 178.799 106C176.903 106.161 174.996 106.161 173.099 106C171.989 105.839 170.948 105.364 170.099 104.63C169.194 103.846 168.568 102.789 168.318 101.618C168.067 100.447 168.204 99.226 168.709 98.1402C169.292 96.9782 170.199 96.0094 171.319 95.3502C172.915 94.444 174.648 93.8055 176.449 93.4602C178.169 92.9934 179.948 92.7778 181.729 92.8202C182.848 92.8922 183.933 93.2354 184.889 93.8202C185.909 94.5078 186.774 95.4001 187.429 96.4402L180.429 98.7502C180.168 98.2291 179.733 97.8155 179.199 97.5802C178.47 97.3192 177.679 97.2844 176.929 97.4802C176.267 97.5725 175.653 97.8779 175.179 98.3502C175.029 98.5112 174.92 98.7065 174.863 98.9192C174.805 99.1318 174.801 99.3553 174.849 99.5702C174.903 99.8066 175.028 100.021 175.207 100.185C175.385 100.35 175.609 100.456 175.849 100.49C176.967 100.62 178.098 100.596 179.209 100.42C181.138 100.141 183.094 100.114 185.029 100.34C186.247 100.512 187.387 101.037 188.309 101.85C189.143 102.606 189.723 103.602 189.969 104.7C190.226 105.878 190.132 107.105 189.699 108.23C189.171 109.562 188.25 110.702 187.059 111.5C185.305 112.647 183.34 113.432 181.279 113.81C177.713 114.623 175.046 114.693 173.279 114.02C171.558 113.333 170.175 111.997 169.429 110.3Z" fill="#263238"/>
<path d="M193.85 85.5701H202.06V91.8701L200.55 104.54H195.47L193.85 91.8901V85.5701ZM194.25 106.45H201.91V113.23H194.25V106.45Z" fill="#263238"/>
<path d="M128.681 171.58H128.501C124.001 169.83 121.311 168.13 119.911 166.08C118.815 166.288 117.682 166.133 116.681 165.64C115.509 165.066 114.537 164.153 113.891 163.02C113.552 163.28 113.152 163.451 112.729 163.516C112.306 163.58 111.873 163.537 111.471 163.39C110.239 162.929 109.187 162.084 108.471 160.98C108.023 161.313 107.467 161.467 106.911 161.41C103.911 161.17 99.9112 155.25 99.6212 148.95C99.6183 148.817 99.6664 148.688 99.7557 148.589C99.8449 148.491 99.9686 148.43 100.101 148.42C100.167 148.417 100.232 148.428 100.294 148.45C100.356 148.473 100.412 148.507 100.461 148.552C100.509 148.597 100.548 148.65 100.576 148.71C100.603 148.77 100.619 148.834 100.621 148.9C100.901 154.9 104.731 160.23 107.001 160.41C107.166 160.428 107.334 160.414 107.493 160.368C107.653 160.321 107.802 160.244 107.931 160.14C107.149 158.714 106.658 157.147 106.486 155.53C106.315 153.913 106.466 152.278 106.931 150.72C107.791 147.72 108.551 146.54 109.471 146.72C111.191 147.15 110.961 153.72 110.051 158.01C109.913 158.784 109.628 159.524 109.211 160.19C109.801 161.178 110.691 161.953 111.751 162.4C112.034 162.508 112.341 162.532 112.638 162.47C112.934 162.408 113.206 162.262 113.421 162.05C112.641 160.12 112.421 157.48 113.541 154.12C114.941 149.69 115.541 149.57 115.851 149.49C115.968 149.465 116.089 149.473 116.202 149.512C116.314 149.55 116.414 149.619 116.491 149.71C117.421 150.76 116.311 157.64 115.151 161.04C115.015 161.449 114.827 161.839 114.591 162.2C115.128 163.281 116.002 164.159 117.081 164.7C117.789 165.044 118.576 165.193 119.361 165.13C119.271 164.94 119.191 164.75 119.111 164.55C118.321 162.4 118.711 159.93 120.301 156.97C121.351 155.02 122.211 154.1 123.011 154.1C123.224 154.103 123.431 154.166 123.608 154.283C123.785 154.4 123.925 154.566 124.011 154.76C124.881 156.37 124.251 161.68 122.531 164.32C122.128 164.925 121.568 165.409 120.911 165.72C122.251 167.48 124.801 169.03 128.911 170.61C128.973 170.632 129.029 170.666 129.078 170.711C129.126 170.755 129.164 170.809 129.191 170.869C129.218 170.928 129.233 170.993 129.235 171.058C129.237 171.124 129.225 171.189 129.201 171.25C129.162 171.354 129.091 171.443 128.997 171.502C128.903 171.562 128.792 171.589 128.681 171.58ZM123.001 155.11C123.001 155.11 122.431 155.11 121.171 157.46C119.721 160.14 119.351 162.35 120.041 164.21C120.125 164.44 120.225 164.664 120.341 164.88C120.883 164.656 121.343 164.272 121.661 163.78C123.061 161.64 123.731 157.24 123.211 155.52C123.141 155.17 123.001 155.11 123.001 155.11ZM115.821 150.9C115.28 152.038 114.832 153.219 114.481 154.43C113.714 156.529 113.582 158.807 114.101 160.98L114.191 160.72C115.241 157.55 115.801 154.239 115.851 150.9H115.821ZM109.241 147.75C109.071 147.9 108.581 148.53 107.891 150.97C107.075 153.708 107.333 156.655 108.611 159.21C108.816 158.763 108.967 158.293 109.061 157.81C110.131 152.9 109.831 148.46 109.271 147.75H109.241Z" fill="#263238"/>
<path d="M166.7 224C165.101 224.015 163.527 223.605 162.14 222.81C162.026 222.741 161.943 222.631 161.909 222.502C161.875 222.373 161.894 222.236 161.96 222.12C161.993 222.064 162.037 222.014 162.089 221.975C162.141 221.936 162.201 221.908 162.264 221.892C162.327 221.876 162.393 221.873 162.458 221.883C162.522 221.893 162.584 221.916 162.64 221.95C166.21 224.04 170.82 222.58 171.77 221.05C171.838 220.954 171.887 220.845 171.913 220.73C171.939 220.615 171.941 220.496 171.92 220.38C170.094 220.485 168.287 219.97 166.79 218.92C164.24 217.33 164.04 216.85 164.06 216.47C164.065 216.361 164.099 216.255 164.159 216.164C164.218 216.072 164.302 215.998 164.4 215.95C165.4 215.45 169.91 217.52 171.79 218.76C172.015 218.91 172.223 219.084 172.41 219.28C173.148 219.113 173.814 218.713 174.31 218.14C174.589 217.812 174.79 217.426 174.9 217.01H174.7C173.1 217.17 171.5 216.48 169.79 214.9C168.61 213.82 168.16 213.07 168.31 212.48C168.355 212.314 168.447 212.165 168.575 212.05C168.702 211.935 168.86 211.858 169.03 211.83C170.41 211.48 173.83 212.94 175.22 214.47C175.53 214.803 175.75 215.209 175.86 215.65C177.17 215.04 178.55 213.65 180.18 211.38C180.218 211.326 180.266 211.28 180.322 211.245C180.377 211.209 180.44 211.185 180.505 211.174C180.57 211.163 180.636 211.165 180.701 211.18C180.765 211.194 180.826 211.222 180.88 211.26C180.987 211.338 181.059 211.455 181.082 211.586C181.104 211.716 181.075 211.851 181 211.96C179.11 214.6 177.53 216.1 175.95 216.71C175.868 217.449 175.565 218.146 175.08 218.71C174.504 219.38 173.747 219.869 172.9 220.12C172.947 220.359 172.947 220.605 172.899 220.843C172.851 221.082 172.756 221.308 172.62 221.51C171.78 222.94 169.36 224 166.7 224ZM165.81 217.06C166.15 217.31 166.63 217.64 167.32 218.06C168.395 218.785 169.63 219.238 170.92 219.38C169.31 218.415 167.596 217.637 165.81 217.06ZM169.3 212.81C169.587 213.351 169.986 213.825 170.47 214.2C171.95 215.57 173.3 216.2 174.6 216.04H174.92C174.849 215.729 174.697 215.443 174.48 215.21C173.08 213.63 170 212.65 169.3 212.81Z" fill="#263238"/>
<path d="M179.94 222.63L164.36 225.46L150.21 148.24L120.15 153.7L71.1504 240.7L76.4104 269.41L139.26 258L143.56 281.48L173.62 276L169.32 252.52L184.9 249.69L179.94 222.63ZM101.09 237L127.09 191.43L134.34 230.97L101.09 237Z" fill="#7345B3"/>
<path d="M305.431 143C304.958 138.146 303.883 133.369 302.231 128.78C300.532 124.384 298.171 120.273 295.231 116.59C291.751 112.305 287.428 108.779 282.531 106.23C277.198 103.303 270.124 101.267 261.311 100.12C243.011 97.7333 228.751 100.98 218.531 109.86C208.311 118.74 201.578 135.74 198.331 160.86C197.035 170.248 196.7 179.744 197.331 189.2C197.998 197.867 199.591 204.843 202.111 210.13C205.318 217.259 210.377 223.399 216.761 227.91C223.074 232.343 231.741 235.273 242.761 236.7C262.348 239.253 276.871 235.49 286.331 225.41C295.791 215.33 302.058 198.297 305.131 174.31C306.497 163.924 306.598 153.41 305.431 143Z" fill="#7345B3"/>
<path d="M251.771 226.43C249.361 226.35 246.771 226.13 244.161 225.79C235.001 224.6 227.921 222.28 223.101 218.9C218.294 215.506 214.494 210.876 212.101 205.5L212.051 205.39C210.131 201.39 208.871 195.64 208.321 188.39C207.738 179.681 208.047 170.936 209.241 162.29C212.811 134.57 220.181 123 225.731 118.18C232.211 112.56 240.961 110.02 252.461 110.42C254.821 110.5 257.321 110.71 259.891 111.04C267.271 112.04 273.121 113.64 277.261 115.9C280.838 117.742 284.005 120.29 286.571 123.39C288.816 126.19 290.62 129.316 291.921 132.66C293.25 136.389 294.11 140.269 294.481 144.21C295.548 153.76 295.45 163.404 294.191 172.93C291.421 194.47 286.061 209.61 278.271 217.93C272.491 224.09 263.821 226.93 251.761 226.47L251.771 226.43Z" fill="#263238"/>
<path d="M271.34 143.29L271.47 139.5L269.14 138.74C269.041 137.458 268.833 136.187 268.52 134.94L270.52 133.48L269.18 129.92L266.74 130.12C266.166 128.976 265.497 127.882 264.74 126.85L266 124.74L263.4 121.97L261.22 123.09C260.244 122.251 259.201 121.495 258.1 120.83L258.45 118.41L254.99 116.84L253.41 118.7C252.186 118.303 250.932 118.009 249.66 117.82L249.07 115.45L245.27 115.32L244.52 117.64C243.238 117.742 241.967 117.95 240.72 118.26L239.25 116.26L235.69 117.59L235.89 120.03C234.746 120.604 233.652 121.273 232.62 122.03L230.52 120.76L227.74 123.35L228.86 125.54C228.019 126.515 227.266 127.562 226.61 128.67L224.19 128.3L222.61 131.76L224.48 133.34C224.074 134.564 223.779 135.823 223.6 137.1L221.22 137.7L221.09 141.48L223.42 142.24C223.517 143.525 223.725 144.8 224.04 146.05L222.04 147.5L223.38 151.06L225.82 150.86C226.388 152.007 227.057 153.102 227.82 154.13L226.55 156.24L229.15 159.01L231.33 157.9C232.305 158.735 233.349 159.488 234.45 160.15L234.09 162.57L237.55 164.14L239.14 162.29C240.367 162.684 241.624 162.975 242.9 163.16L243.49 165.54L247.28 165.67L248.03 163.34C249.315 163.242 250.59 163.035 251.84 162.72L253.29 164.72L256.85 163.39L256.66 160.96C257.8 160.378 258.893 159.71 259.93 158.96L262.03 160.22L264.81 157.63L263.7 155.44C264.538 154.468 265.287 153.424 265.94 152.32L268.36 152.68L269.94 149.22L268.08 147.64C268.478 146.417 268.769 145.163 268.95 143.89L271.34 143.29ZM245.74 155.56C242.778 155.452 239.915 154.468 237.511 152.734C235.107 151 233.272 148.593 232.235 145.816C231.198 143.039 231.007 140.018 231.687 137.133C232.366 134.248 233.884 131.629 236.05 129.606C238.217 127.583 240.934 126.248 243.859 125.768C246.783 125.288 249.785 125.685 252.484 126.909C255.183 128.134 257.459 130.13 259.024 132.647C260.59 135.163 261.375 138.088 261.28 141.05C261.217 143.024 260.764 144.967 259.948 146.766C259.132 148.565 257.969 150.185 256.525 151.534C255.081 152.882 253.385 153.932 251.534 154.622C249.683 155.313 247.714 155.632 245.74 155.56Z" fill="#7345B3"/>
<path opacity="0.3" d="M287.12 212.87L287.4 210.31L285.86 209.69C285.857 208.819 285.784 207.949 285.64 207.09L287.03 206.2L286.32 203.73H284.66C284.332 202.927 283.933 202.154 283.47 201.42L284.41 200.06L282.81 198.06L281.28 198.7C280.66 198.087 279.991 197.525 279.28 197.02L279.65 195.4L277.4 194.16L276.22 195.35C275.416 195.019 274.587 194.755 273.74 194.56L273.46 192.93L270.91 192.64L270.28 194.18C269.411 194.184 268.544 194.264 267.69 194.42L266.8 193L264.33 193.73V195.39C263.526 195.722 262.753 196.123 262.02 196.59L260.66 195.59L258.66 197.19L259.3 198.72C258.69 199.34 258.132 200.009 257.63 200.72L256.01 200.36L254.78 202.61L255.96 203.78C255.625 204.585 255.36 205.419 255.17 206.27L253.53 206.54L253.26 209.09L254.79 209.73C254.791 210.595 254.867 211.458 255.02 212.31L253.61 213.2L254.33 215.67H256C256.334 216.469 256.735 217.239 257.2 217.97L256.2 219.33L257.8 221.33L259.35 220.68C259.965 221.295 260.635 221.854 261.35 222.35L261 224L263.25 225.23L264.42 224.06C265.224 224.383 266.054 224.64 266.9 224.83L267.19 226.47L269.74 226.75L270.36 225.22C271.244 225.219 272.127 225.145 273 225L273.89 226.41L276.35 225.69V224.03C277.154 223.692 277.929 223.291 278.67 222.83L280.01 223.83L282.01 222.22L281.36 220.69C281.976 220.07 282.541 219.401 283.05 218.69L284.66 219.05L285.9 216.8L284.72 215.64C285.041 214.835 285.299 214.006 285.49 213.16L287.12 212.87ZM274.25 211.87C273.827 212.644 273.183 213.275 272.401 213.684C271.619 214.093 270.734 214.26 269.856 214.165C268.979 214.07 268.15 213.717 267.473 213.151C266.797 212.584 266.303 211.83 266.056 210.983C265.808 210.136 265.817 209.235 266.081 208.393C266.346 207.552 266.854 206.807 267.542 206.255C268.23 205.702 269.066 205.366 269.945 205.288C270.824 205.211 271.706 205.396 272.48 205.82C273.514 206.39 274.281 207.346 274.613 208.48C274.944 209.613 274.814 210.832 274.25 211.87Z" fill="#7345B3"/>
<path d="M301.291 169.65L298.291 167.59C297.996 166.519 297.594 165.48 297.091 164.49L297.851 161.49L293.531 156.86L290.531 157.42C289.579 156.853 288.574 156.381 287.531 156.01L285.681 152.89L279.351 152.68L277.291 155.68C276.218 155.971 275.179 156.373 274.191 156.88L271.191 156.11L266.561 160.44L267.121 163.44C266.546 164.387 266.074 165.393 265.711 166.44L262.601 168.29L262.381 174.62L265.381 176.68C265.672 177.759 266.074 178.804 266.581 179.8L265.821 182.8L270.141 187.43L273.141 186.88C274.093 187.446 275.098 187.918 276.141 188.29L277.981 191.4L284.321 191.62L286.371 188.62C287.452 188.327 288.501 187.924 289.501 187.42L292.501 188.18L297.131 183.86L296.581 180.86C297.149 179.909 297.621 178.904 297.991 177.86L301.101 176.01L301.291 169.65ZM281.561 179.27C280.153 179.222 278.792 178.757 277.649 177.935C276.505 177.113 275.631 175.97 275.137 174.651C274.643 173.332 274.552 171.897 274.874 170.526C275.196 169.155 275.917 167.91 276.947 166.949C277.976 165.988 279.268 165.354 280.657 165.127C282.047 164.9 283.473 165.09 284.755 165.674C286.037 166.257 287.117 167.208 287.858 168.405C288.6 169.602 288.969 170.993 288.921 172.4C288.853 174.286 288.04 176.068 286.661 177.356C285.281 178.644 283.447 179.332 281.561 179.27Z" fill="white"/>
<path d="M322.999 119.12L323.519 117.87C323.873 117.671 324.208 117.44 324.519 117.18H325.679L327.039 115.18L326.599 114.11C326.768 113.753 326.902 113.382 326.999 113L327.999 112.08L327.579 109.73L326.319 109.21C326.122 108.855 325.891 108.52 325.629 108.21V107.05L323.679 105.69L322.599 106.14C322.205 106.001 321.795 105.907 321.379 105.86L320.459 104.86L318.119 105.28L317.589 106.54C317.218 106.732 316.867 106.96 316.539 107.22H315.389L314.029 109.22L314.469 110.29C314.335 110.686 314.241 111.095 314.189 111.51L313.189 112.44L313.609 114.78L314.869 115.3C315.06 115.656 315.288 115.991 315.549 116.3V117.45L317.549 118.81L318.619 118.37C319.02 118.5 319.432 118.59 319.849 118.64L320.769 119.64L322.999 119.12ZM317.999 112.64C317.905 112.118 317.967 111.58 318.179 111.094C318.39 110.607 318.741 110.195 319.187 109.908C319.633 109.621 320.154 109.473 320.684 109.482C321.214 109.492 321.73 109.658 322.165 109.961C322.601 110.263 322.937 110.688 323.131 111.182C323.325 111.675 323.368 112.215 323.255 112.733C323.142 113.251 322.878 113.724 322.496 114.092C322.114 114.46 321.631 114.706 321.109 114.8C320.411 114.922 319.692 114.764 319.11 114.36C318.528 113.955 318.128 113.337 317.999 112.64Z" fill="#7345B3"/>
<path d="M295.61 112.49L294.84 111.84C296.49 109.793 298.529 108.094 300.84 106.84L301.31 107.72C299.112 108.916 297.175 110.538 295.61 112.49Z" fill="#7345B3"/>
<path d="M303.591 106.8L303.201 105.88C306.894 104.275 310.932 103.629 314.941 104L314.841 105C310.999 104.638 307.128 105.257 303.591 106.8Z" fill="#7345B3"/>
<path d="M301.701 113.72L300.881 113.16C303.29 109.907 306.796 107.637 310.751 106.77L310.941 107.77C307.245 108.577 303.965 110.69 301.701 113.72Z" fill="#7345B3"/>
<path d="M235.34 210C235.204 209.996 235.074 209.938 234.98 209.84L232.89 207.68C231.824 207.583 230.77 207.389 229.74 207.1L226.47 208.54C226.398 208.579 226.317 208.6 226.235 208.6C226.153 208.6 226.072 208.579 226 208.54L220.52 204.91C220.449 204.863 220.392 204.799 220.353 204.724C220.315 204.649 220.296 204.564 220.3 204.48V200.92C219.631 200.083 219.042 199.186 218.54 198.24L215.73 197.16C215.651 197.129 215.582 197.079 215.527 197.015C215.473 196.95 215.436 196.873 215.42 196.79L214.12 190.35C214.103 190.268 214.107 190.182 214.131 190.102C214.156 190.022 214.2 189.949 214.26 189.89L216.42 187.8C216.523 186.735 216.717 185.681 217 184.65L215.56 181.38C215.521 181.308 215.5 181.227 215.5 181.145C215.5 181.063 215.521 180.982 215.56 180.91L219.19 175.43C219.235 175.358 219.299 175.299 219.375 175.26C219.45 175.222 219.535 175.204 219.62 175.21L223.18 175.26C224.014 174.588 224.912 173.998 225.86 173.5L226.95 170.69C226.979 170.612 227.027 170.543 227.09 170.488C227.153 170.434 227.229 170.397 227.31 170.38L233.75 169.08C233.832 169.062 233.918 169.065 233.998 169.09C234.079 169.114 234.152 169.159 234.21 169.22L236.3 171.38C237.369 171.477 238.426 171.671 239.46 171.96L242.72 170.52C242.794 170.481 242.876 170.46 242.96 170.46C243.044 170.46 243.126 170.481 243.2 170.52L248.67 174.15C248.739 174.198 248.796 174.263 248.836 174.337C248.876 174.412 248.898 174.495 248.9 174.58L248.84 178.14C249.512 178.976 250.105 179.873 250.61 180.82L253.41 181.91C253.488 181.939 253.557 181.987 253.612 182.05C253.666 182.113 253.703 182.189 253.72 182.27L255.03 188.71C255.045 188.792 255.041 188.877 255.016 188.957C254.992 189.037 254.949 189.11 254.89 189.17L252.72 191.27C252.62 192.332 252.426 193.382 252.14 194.41L253.58 197.68C253.619 197.754 253.64 197.836 253.64 197.92C253.64 198.004 253.619 198.086 253.58 198.16L250 203.59C249.953 203.658 249.89 203.713 249.817 203.752C249.744 203.79 249.663 203.81 249.58 203.81L246.01 203.76C245.173 204.423 244.279 205.012 243.34 205.52L242.25 208.33C242.22 208.409 242.171 208.479 242.106 208.534C242.041 208.588 241.963 208.625 241.88 208.64L235.44 210H235.34ZM229.71 206C229.756 205.991 229.804 205.991 229.85 206C230.93 206.314 232.039 206.519 233.16 206.61C233.28 206.624 233.392 206.677 233.48 206.76L235.48 208.86L241.38 207.67L242.44 204.93C242.489 204.819 242.574 204.728 242.68 204.67C243.679 204.153 244.621 203.533 245.49 202.82C245.582 202.742 245.7 202.703 245.82 202.71L249.29 202.76L252.61 197.76L251.21 194.58C251.17 194.47 251.17 194.35 251.21 194.24C251.519 193.159 251.724 192.05 251.82 190.93C251.83 190.809 251.883 190.695 251.97 190.61L254.07 188.61L252.88 182.71L250.15 181.65C250.033 181.607 249.936 181.521 249.88 181.41C249.361 180.412 248.741 179.471 248.03 178.6C247.959 178.508 247.92 178.396 247.92 178.28V174.8L242.92 171.48L239.75 172.88C239.637 172.92 239.513 172.92 239.4 172.88C238.316 172.567 237.204 172.363 236.08 172.27C235.96 172.256 235.848 172.203 235.76 172.12L233.76 170.02L227.86 171.22L226.81 174C226.768 174.115 226.686 174.21 226.58 174.27C225.577 174.785 224.632 175.405 223.76 176.12C223.717 176.159 223.666 176.189 223.611 176.208C223.556 176.227 223.498 176.234 223.44 176.23L219.97 176.18L216.64 181.18L218.04 184.36C218.072 184.427 218.089 184.501 218.089 184.575C218.089 184.649 218.072 184.723 218.04 184.79C217.744 185.846 217.549 186.927 217.46 188.02C217.451 188.141 217.397 188.255 217.31 188.34L215.21 190.34L216.41 196.24L219.13 197.3C219.251 197.35 219.351 197.443 219.41 197.56C219.926 198.551 220.542 199.486 221.25 200.35C221.324 200.44 221.363 200.553 221.36 200.67V204.15L226.36 207.47L229.54 206.07C229.592 206.037 229.65 206.013 229.71 206ZM234.62 202.76C232.213 202.758 229.852 202.103 227.787 200.866C225.722 199.63 224.031 197.856 222.893 195.735C221.756 193.614 221.214 191.224 221.326 188.82C221.438 186.415 222.2 184.086 223.53 182.08C224.802 180.155 226.552 178.594 228.608 177.548C230.665 176.502 232.957 176.008 235.262 176.114C237.567 176.22 239.804 176.922 241.756 178.152C243.708 179.382 245.308 181.097 246.398 183.13C247.488 185.163 248.032 187.445 247.977 189.751C247.921 192.057 247.268 194.31 246.081 196.288C244.894 198.266 243.214 199.903 241.205 201.037C239.196 202.172 236.927 202.765 234.62 202.76ZM224.37 182.63C223.024 184.661 222.31 187.045 222.319 189.482C222.328 191.918 223.059 194.297 224.42 196.318C225.781 198.339 227.711 199.911 229.965 200.835C232.22 201.759 234.697 201.995 237.085 201.511C239.473 201.027 241.664 199.846 243.381 198.117C245.098 196.389 246.263 194.19 246.731 191.798C247.198 189.407 246.945 186.931 246.006 184.683C245.066 182.435 243.48 180.517 241.45 179.17C240.104 178.269 238.592 177.643 237.002 177.329C235.413 177.015 233.777 177.019 232.189 177.341C230.601 177.663 229.093 178.296 227.751 179.203C226.408 180.111 225.26 181.276 224.37 182.63Z" fill="white"/>
<path d="M425.83 231.65L410.13 229.53L420.51 151.72L390.23 147.64L316.78 215.26L312.92 244.19L376.21 252.73L373.05 276.4L403.33 280.48L406.49 256.82L422.19 258.94L425.83 231.65ZM346.41 220.93L385.17 185.6L379.85 225.44L346.41 220.93Z" fill="#7345B3"/>
<path d="M394.13 279.74H394C393.87 279.716 393.755 279.641 393.68 279.532C393.605 279.424 393.576 279.29 393.6 279.16L417 151.22C417.026 151.091 417.102 150.978 417.21 150.904C417.318 150.829 417.45 150.799 417.58 150.82C417.709 150.844 417.824 150.919 417.899 151.027C417.974 151.136 418.003 151.27 417.98 151.4L394.63 279.33C394.607 279.445 394.544 279.549 394.453 279.624C394.362 279.699 394.248 279.74 394.13 279.74Z" fill="#263238"/>
<path d="M414.83 153.37C414.822 153.587 414.728 153.793 414.569 153.941C414.409 154.089 414.197 154.168 413.98 154.16C413.763 154.152 413.557 154.058 413.409 153.898C413.261 153.739 413.182 153.527 413.19 153.31C413.198 153.092 413.292 152.887 413.451 152.739C413.611 152.591 413.823 152.512 414.04 152.52C414.257 152.528 414.463 152.622 414.611 152.781C414.759 152.941 414.838 153.152 414.83 153.37Z" fill="#263238"/>
<path d="M411.501 170.67C411.495 170.832 411.441 170.988 411.346 171.12C411.251 171.251 411.119 171.351 410.967 171.408C410.815 171.464 410.65 171.475 410.492 171.437C410.334 171.4 410.191 171.316 410.081 171.198C409.97 171.079 409.898 170.93 409.872 170.77C409.846 170.61 409.868 170.446 409.936 170.298C410.003 170.151 410.113 170.027 410.251 169.942C410.389 169.856 410.549 169.814 410.711 169.82C410.818 169.824 410.924 169.849 411.022 169.894C411.12 169.938 411.209 170.002 411.282 170.081C411.355 170.16 411.412 170.253 411.45 170.354C411.488 170.455 411.505 170.562 411.501 170.67Z" fill="#263238"/>
<path d="M408.17 188C408.166 188.108 408.141 188.214 408.096 188.312C408.051 188.41 407.988 188.498 407.909 188.571C407.83 188.645 407.737 188.702 407.636 188.739C407.535 188.777 407.428 188.794 407.32 188.79C407.213 188.787 407.107 188.764 407.009 188.72C406.911 188.676 406.823 188.613 406.749 188.535C406.676 188.457 406.619 188.365 406.581 188.265C406.543 188.164 406.526 188.057 406.53 187.95C406.532 187.841 406.557 187.734 406.601 187.635C406.645 187.536 406.709 187.447 406.788 187.372C406.867 187.298 406.96 187.24 407.061 187.202C407.163 187.164 407.271 187.146 407.38 187.15C407.596 187.16 407.8 187.255 407.948 187.414C408.096 187.573 408.175 187.783 408.17 188Z" fill="#263238"/>
<path d="M401.61 206C401.587 206.201 401.492 206.386 401.342 206.521C401.191 206.655 400.996 206.73 400.795 206.73C400.593 206.73 400.398 206.655 400.248 206.521C400.097 206.386 400.002 206.201 399.98 206C399.967 205.885 399.978 205.769 400.014 205.66C400.049 205.55 400.107 205.449 400.184 205.363C400.261 205.277 400.355 205.208 400.46 205.161C400.565 205.114 400.679 205.09 400.795 205.09C400.91 205.09 401.024 205.114 401.129 205.161C401.234 205.208 401.329 205.277 401.406 205.363C401.482 205.449 401.54 205.55 401.576 205.66C401.611 205.769 401.622 205.885 401.61 206Z" fill="#263238"/>
<path d="M401.501 222.57C401.498 222.678 401.474 222.785 401.43 222.883C401.385 222.982 401.322 223.071 401.242 223.144C401.163 223.218 401.07 223.275 400.968 223.312C400.867 223.349 400.759 223.365 400.651 223.36C400.489 223.354 400.332 223.3 400.201 223.205C400.069 223.11 399.969 222.978 399.913 222.826C399.856 222.674 399.846 222.509 399.883 222.351C399.921 222.193 400.004 222.05 400.123 221.94C400.242 221.829 400.391 221.757 400.551 221.731C400.711 221.705 400.875 221.727 401.022 221.795C401.17 221.862 401.294 221.972 401.379 222.11C401.464 222.248 401.507 222.408 401.501 222.57Z" fill="#263238"/>
<path d="M398.171 239.87C398.167 240.032 398.115 240.19 398.021 240.323C397.927 240.455 397.796 240.557 397.644 240.615C397.492 240.673 397.326 240.685 397.168 240.649C397.009 240.612 396.865 240.53 396.754 240.411C396.643 240.293 396.569 240.144 396.542 239.983C396.516 239.823 396.537 239.658 396.605 239.51C396.672 239.362 396.781 239.238 396.92 239.152C397.058 239.066 397.219 239.024 397.381 239.03C397.597 239.038 397.801 239.13 397.949 239.288C398.096 239.445 398.176 239.654 398.171 239.87Z" fill="#263238"/>
<path d="M394.84 257.17C394.832 257.388 394.738 257.595 394.579 257.744C394.42 257.894 394.208 257.975 393.99 257.97C393.882 257.966 393.776 257.941 393.678 257.896C393.58 257.851 393.492 257.788 393.419 257.709C393.345 257.63 393.288 257.537 393.251 257.436C393.213 257.335 393.196 257.228 393.2 257.12C393.203 257.012 393.228 256.906 393.272 256.808C393.316 256.71 393.379 256.621 393.458 256.547C393.536 256.473 393.628 256.416 393.729 256.378C393.83 256.339 393.937 256.322 394.045 256.325C394.152 256.328 394.258 256.353 394.357 256.397C394.455 256.441 394.543 256.504 394.617 256.583C394.691 256.661 394.749 256.753 394.787 256.854C394.825 256.955 394.843 257.062 394.84 257.17Z" fill="#263238"/>
<path d="M391.501 274.48C391.495 274.642 391.441 274.799 391.346 274.93C391.251 275.061 391.119 275.162 390.967 275.218C390.815 275.275 390.65 275.285 390.492 275.247C390.334 275.21 390.191 275.126 390.081 275.008C389.97 274.889 389.898 274.74 389.872 274.58C389.846 274.42 389.868 274.256 389.936 274.108C390.003 273.961 390.113 273.837 390.251 273.752C390.389 273.666 390.549 273.624 390.711 273.63C390.819 273.632 390.925 273.657 391.024 273.701C391.123 273.745 391.211 273.809 391.285 273.888C391.359 273.967 391.416 274.061 391.453 274.162C391.49 274.264 391.506 274.372 391.501 274.48Z" fill="#263238"/>
<path d="M400.79 206.45C400.677 206.45 400.568 206.411 400.48 206.34C400.393 206.269 400.332 206.17 400.309 206.06C400.295 205.996 400.293 205.929 400.304 205.864C400.315 205.799 400.339 205.737 400.374 205.681C400.41 205.625 400.456 205.577 400.51 205.539C400.564 205.501 400.625 205.474 400.689 205.46L403.17 204.93C403.235 204.915 403.302 204.914 403.368 204.926C403.433 204.937 403.496 204.962 403.552 204.999C403.608 205.035 403.656 205.082 403.693 205.137C403.73 205.192 403.756 205.255 403.769 205.32C403.783 205.384 403.783 205.451 403.77 205.515C403.758 205.58 403.733 205.641 403.697 205.696C403.661 205.75 403.614 205.798 403.559 205.834C403.505 205.871 403.444 205.897 403.38 205.91L400.899 206.44L400.79 206.45Z" fill="#263238"/>
<path d="M409.081 197.24C407.901 200.3 406.9 203.425 406.081 206.6C405.331 210.13 405.291 218.03 405.291 218.03" fill="#263238"/>
<path d="M405.291 218.53C405.158 218.525 405.033 218.469 404.94 218.374C404.847 218.279 404.793 218.153 404.791 218.02C404.791 217.7 404.851 210.02 405.601 206.5C406.415 203.297 407.417 200.145 408.601 197.06C408.621 196.994 408.654 196.933 408.699 196.881C408.744 196.828 408.799 196.786 408.86 196.756C408.922 196.726 408.99 196.709 409.058 196.706C409.127 196.703 409.196 196.714 409.26 196.739C409.324 196.764 409.382 196.802 409.431 196.85C409.48 196.898 409.518 196.956 409.544 197.02C409.569 197.084 409.581 197.153 409.579 197.221C409.577 197.29 409.561 197.358 409.531 197.42C408.353 200.456 407.351 203.558 406.531 206.71C405.801 210.15 405.751 217.95 405.741 218.03C405.742 218.154 405.696 218.274 405.613 218.367C405.529 218.459 405.415 218.517 405.291 218.53Z" fill="#263238"/>
<path d="M222.449 304.84C223.839 282.44 221.289 241.71 263.399 247.11C308.529 252.88 295.619 305.66 295.619 305.66L222.449 304.84Z" fill="#263238"/>
<path d="M251.511 291.38C261.662 291.38 269.891 283.151 269.891 273C269.891 262.849 261.662 254.62 251.511 254.62C241.36 254.62 233.131 262.849 233.131 273C233.131 283.151 241.36 291.38 251.511 291.38Z" fill="white"/>
<path d="M253.93 254.65C245.22 253.17 235.93 259.58 235 266.08L269.51 269.26C268.29 261.85 260.83 255.83 253.93 254.65Z" fill="#263238"/>
<path d="M265.579 272.54C265.329 277.35 262.709 281.12 259.729 280.96C256.749 280.8 254.529 276.79 254.729 271.96C254.929 267.13 257.599 263.38 260.579 263.54C263.559 263.7 265.819 267.74 265.579 272.54Z" fill="#263238"/>
<path d="M251.511 292.38C247.678 292.38 243.931 291.243 240.744 289.114C237.557 286.984 235.073 283.958 233.606 280.416C232.139 276.875 231.755 272.978 232.503 269.219C233.251 265.46 235.097 262.006 237.807 259.296C240.517 256.586 243.971 254.74 247.73 253.992C251.489 253.244 255.386 253.628 258.927 255.095C262.468 256.562 265.495 259.046 267.625 262.233C269.754 265.42 270.891 269.167 270.891 273C270.886 278.138 268.842 283.064 265.209 286.698C261.575 290.331 256.649 292.375 251.511 292.38ZM251.511 255.63C248.073 255.63 244.712 256.649 241.854 258.56C238.996 260.47 236.768 263.185 235.453 266.361C234.138 269.538 233.794 273.033 234.466 276.404C235.137 279.776 236.793 282.873 239.225 285.303C241.657 287.733 244.754 289.388 248.126 290.057C251.498 290.727 254.993 290.381 258.169 289.064C261.344 287.747 264.058 285.518 265.967 282.658C267.875 279.799 268.893 276.438 268.891 273C268.886 268.393 267.052 263.976 263.794 260.72C260.535 257.463 256.118 255.633 251.511 255.63Z" fill="#7345B3"/>
<path opacity="0.3" d="M290.491 304.28H290.371C290.306 304.266 290.246 304.239 290.192 304.201C290.138 304.163 290.093 304.114 290.058 304.058C290.024 304.002 290.001 303.94 289.991 303.875C289.981 303.81 289.984 303.744 290.001 303.68C290.001 303.55 293.221 289.99 289.911 276.28C289.879 276.147 289.901 276.008 289.972 275.891C290.044 275.775 290.158 275.692 290.291 275.66C290.423 275.628 290.563 275.65 290.679 275.722C290.796 275.793 290.879 275.907 290.911 276.04C294.281 290.04 291.031 303.78 291.001 303.91C290.971 304.021 290.904 304.118 290.811 304.185C290.718 304.253 290.605 304.286 290.491 304.28Z" fill="white"/>
<path opacity="0.3" d="M287.7 268.76C287.604 268.759 287.51 268.731 287.429 268.68C287.348 268.629 287.283 268.556 287.24 268.47C285.997 265.723 284.404 263.148 282.5 260.81C282.417 260.708 282.378 260.577 282.391 260.446C282.404 260.315 282.469 260.194 282.57 260.11C282.621 260.067 282.68 260.035 282.743 260.016C282.807 259.996 282.874 259.99 282.94 259.996C283.006 260.003 283.07 260.022 283.128 260.054C283.187 260.085 283.238 260.128 283.28 260.18C285.231 262.586 286.868 265.23 288.15 268.05C288.179 268.109 288.195 268.173 288.198 268.238C288.202 268.304 288.192 268.369 288.169 268.431C288.147 268.492 288.113 268.549 288.068 268.597C288.023 268.645 287.97 268.683 287.91 268.71C287.844 268.741 287.773 268.758 287.7 268.76Z" fill="white"/>
<path d="M128.73 409.92H128.36C127.034 409.883 125.777 409.32 124.865 408.357C123.954 407.393 123.463 406.106 123.5 404.78C123.537 403.454 124.1 402.197 125.063 401.285C126.027 400.374 127.314 399.883 128.64 399.92H128.73C131.62 399.92 138.57 396.41 153.11 373.49C153.496 372.881 154.009 372.363 154.614 371.971C155.219 371.579 155.901 371.323 156.615 371.219C157.328 371.116 158.055 371.168 158.746 371.372C159.438 371.575 160.077 371.926 160.62 372.4C172.039 382.216 184.492 390.76 197.76 397.88C198.374 398.159 198.925 398.56 199.38 399.058C199.835 399.556 200.185 400.14 200.408 400.777C200.632 401.414 200.724 402.089 200.679 402.762C200.634 403.435 200.454 404.092 200.149 404.693C199.844 405.295 199.42 405.829 198.903 406.262C198.387 406.696 197.787 407.02 197.142 407.216C196.496 407.412 195.818 407.475 195.147 407.402C194.477 407.329 193.828 407.121 193.24 406.79C180.909 400.237 169.252 392.487 158.44 383.65C146.25 402 137.21 409.92 128.73 409.92Z" fill="#263238"/>
<path d="M159.67 371.5H159.24C158.454 371.386 157.745 370.965 157.269 370.33C156.793 369.694 156.588 368.896 156.7 368.11C157.41 363.11 156.53 344.48 150.22 329.98C149.94 329.339 149.892 328.621 150.086 327.949C150.28 327.277 150.702 326.694 151.28 326.3C164.98 316.97 194.16 315.85 195.4 315.81C195.794 315.797 196.186 315.861 196.555 316C196.924 316.139 197.262 316.349 197.55 316.618C197.838 316.887 198.07 317.211 198.233 317.57C198.396 317.929 198.486 318.316 198.5 318.71C198.513 319.104 198.448 319.497 198.309 319.866C198.171 320.235 197.961 320.573 197.692 320.861C197.422 321.148 197.099 321.38 196.74 321.543C196.381 321.706 195.994 321.797 195.6 321.81C195.33 321.81 169.82 322.81 156.72 330.01C162.3 344.45 163.57 362.44 162.64 368.95C162.532 369.66 162.173 370.308 161.628 370.776C161.083 371.244 160.388 371.501 159.67 371.5Z" fill="#263238"/>
<path d="M164.71 367.62C162.71 362.91 153.71 363.44 148.44 367.48C145.62 369.63 141.8 376.12 141.44 378.48C141.32 379.041 141.338 379.622 141.492 380.174C141.647 380.727 141.933 381.233 142.326 381.65C142.72 382.068 143.209 382.383 143.751 382.569C144.294 382.755 144.873 382.807 145.44 382.72C148.89 382.42 153.62 377.41 153.62 377.41C150.47 380.5 154.54 382.68 160.62 378.21C163.94 375.72 166.94 372.89 164.71 367.62Z" fill="#7345B3"/>
<path d="M336.71 306.16C336.663 306.17 336.616 306.17 336.57 306.16C336.506 306.143 336.446 306.113 336.394 306.072C336.342 306.031 336.299 305.98 336.267 305.922C336.236 305.864 336.216 305.801 336.209 305.735C336.203 305.669 336.21 305.603 336.23 305.54C337.56 300.9 339.01 298.07 340.92 296.54C340.62 295.464 340.676 294.321 341.08 293.28C341.546 292.065 342.368 291.019 343.44 290.28C343.148 289.965 342.942 289.582 342.838 289.166C342.735 288.75 342.739 288.314 342.85 287.9C343.212 286.647 343.961 285.541 344.99 284.74C344.619 284.325 344.415 283.787 344.42 283.23C344.42 280.23 349.93 275.71 356.18 274.85C356.312 274.831 356.447 274.866 356.554 274.947C356.661 275.027 356.731 275.147 356.75 275.28C356.768 275.412 356.733 275.547 356.653 275.654C356.572 275.761 356.452 275.831 356.32 275.85C350.38 276.66 345.4 280.96 345.42 283.23C345.418 283.568 345.547 283.894 345.78 284.14C347.125 283.228 348.638 282.592 350.231 282.271C351.825 281.95 353.466 281.95 355.06 282.27C358.13 282.86 359.38 283.51 359.24 284.44C358.96 286.19 352.43 286.56 348.05 286.04C347.265 285.969 346.501 285.748 345.8 285.39C344.857 286.061 344.155 287.018 343.8 288.12C343.714 288.411 343.714 288.721 343.801 289.012C343.888 289.304 344.058 289.563 344.29 289.76C346.15 288.76 348.76 288.4 352.21 289.16C356.74 290.16 356.91 290.71 357.02 291.04C357.055 291.156 357.058 291.28 357.028 291.398C356.998 291.517 356.936 291.624 356.85 291.71C355.9 292.71 348.95 292.24 345.46 291.38C345.038 291.284 344.631 291.132 344.25 290.93C343.217 291.558 342.422 292.511 341.99 293.64C341.701 294.37 341.621 295.167 341.76 295.94C341.938 295.833 342.121 295.737 342.31 295.65C344.38 294.65 346.88 294.83 349.97 296.15C351.97 297.02 352.97 297.8 353.07 298.59C353.074 298.793 353.023 298.993 352.923 299.169C352.822 299.345 352.676 299.49 352.5 299.59C350.97 300.59 345.63 300.45 342.85 298.97C342.21 298.622 341.678 298.107 341.31 297.48C339.68 298.98 338.36 301.65 337.16 305.84C337.123 305.931 337.061 306.009 336.982 306.066C336.902 306.123 336.807 306.155 336.71 306.16ZM342.13 296.83C342.408 297.347 342.832 297.771 343.35 298.05C345.61 299.25 350.05 299.52 351.71 298.85C352.05 298.71 352.1 298.6 352.1 298.6C352.1 298.6 352.05 298.04 349.6 296.99C346.8 295.79 344.6 295.62 342.77 296.47C342.549 296.576 342.335 296.696 342.13 296.83ZM345.47 290.26L345.72 290.33C348.976 291.08 352.327 291.333 355.66 291.08C354.478 290.641 353.26 290.307 352.02 290.08C349.866 289.496 347.588 289.559 345.47 290.26ZM346.73 284.64C347.191 284.805 347.671 284.913 348.16 284.96C353.16 285.55 357.55 284.86 358.16 284.23C357.99 284.08 357.32 283.65 354.84 283.18C352.049 282.623 349.151 283.145 346.73 284.64Z" fill="#263238"/>
<path d="M206.53 408.25C207.19 408.04 206.97 407.4 206.23 407.4H192.69C166.91 404.67 148.9 408.33 160.25 409.19C171.6 410.05 159.45 409.87 151.16 413.01C142.87 416.15 212.81 416.94 219.16 413.01C225 409.39 197.39 411.18 206.53 408.25Z" fill="#263238"/>
<path d="M303.469 412.24L185.669 408.33L180.779 294.11L319.889 297.22L303.469 412.24Z" fill="#7345B3"/>
<path d="M222.451 410.05C222.325 410.05 222.203 410.003 222.111 409.918C222.018 409.833 221.961 409.715 221.951 409.59L212.511 294.87C212.502 294.738 212.546 294.608 212.632 294.507C212.717 294.406 212.839 294.343 212.971 294.33C213.102 294.324 213.231 294.368 213.331 294.454C213.432 294.539 213.496 294.659 213.511 294.79L223.001 409.51C223.006 409.576 222.999 409.642 222.978 409.704C222.958 409.767 222.926 409.825 222.883 409.876C222.84 409.926 222.788 409.967 222.729 409.997C222.671 410.027 222.607 410.045 222.541 410.05H222.451Z" fill="#263238"/>
<path d="M303.471 412.24L335.131 407.42L345.101 301.21L319.891 297.22L303.471 412.24Z" fill="#7345B3"/>
<path opacity="0.2" d="M303.471 412.24L335.131 407.42L345.101 301.21L319.891 297.22L303.471 412.24Z" fill="black"/>
<path d="M195.73 386.32L192.83 318.45C192.758 316.773 193.031 315.1 193.632 313.533C194.233 311.966 195.149 310.539 196.324 309.34C197.498 308.142 198.906 307.196 200.46 306.563C202.014 305.93 203.682 305.623 205.36 305.66L293.42 307.66C295.154 307.699 296.859 308.105 298.425 308.852C299.99 309.599 301.38 310.669 302.501 311.992C303.623 313.315 304.452 314.86 304.932 316.527C305.413 318.193 305.535 319.943 305.29 321.66L295.53 390C295.107 392.993 293.595 395.725 291.283 397.672C288.97 399.619 286.021 400.644 283 400.55L207.61 398.05C204.515 397.954 201.57 396.692 199.367 394.517C197.164 392.341 195.864 389.413 195.73 386.32Z" fill="#263238"/>
<path d="M205.251 326.49L218.871 326.92L218.761 330.43L210.231 330.16L210.151 332.78L218.061 333.03L217.951 336.39L210.041 336.13L209.941 339.38L218.711 339.66L218.591 343.38L204.721 342.94L205.251 326.49Z" fill="white"/>
<path d="M221.4 343.47L221.92 327.02L230.4 327.29C231.616 327.284 232.826 327.459 233.99 327.81C234.816 328.086 235.521 328.637 235.99 329.37C236.338 329.904 236.572 330.504 236.677 331.132C236.783 331.76 236.758 332.404 236.604 333.022C236.45 333.64 236.171 334.22 235.783 334.726C235.395 335.231 234.908 335.651 234.35 335.96C233.782 336.253 233.171 336.455 232.54 336.56C233.005 336.71 233.447 336.925 233.85 337.2C234.142 337.471 234.404 337.773 234.63 338.1C234.888 338.411 235.116 338.746 235.31 339.1L237.62 343.95L231.88 343.76L229.32 338.65C229.117 338.162 228.818 337.72 228.44 337.35C228.081 337.09 227.653 336.944 227.21 336.93H226.76L226.55 343.6L221.4 343.47ZM226.82 333.85L228.96 333.92C229.415 333.892 229.866 333.829 230.31 333.73C230.645 333.679 230.949 333.504 231.16 333.24C231.377 332.973 231.5 332.643 231.51 332.3C231.529 332.071 231.497 331.841 231.416 331.627C231.334 331.412 231.206 331.219 231.04 331.06C230.482 330.699 229.823 330.528 229.16 330.57L226.92 330.5L226.82 333.85Z" fill="white"/>
<path d="M239.279 344L239.799 327.55L248.269 327.82C249.485 327.813 250.695 327.988 251.859 328.34C252.686 328.613 253.393 329.165 253.859 329.9C254.367 330.701 254.605 331.644 254.539 332.59C254.542 333.388 254.329 334.172 253.922 334.859C253.516 335.545 252.931 336.109 252.229 336.49C251.66 336.781 251.05 336.984 250.419 337.09C250.881 337.239 251.319 337.455 251.719 337.73C252.018 337.993 252.284 338.292 252.509 338.62C252.765 338.933 252.992 339.267 253.189 339.62L255.499 344.46L249.759 344.28L247.199 339.17C246.995 338.683 246.696 338.241 246.319 337.87C245.962 337.6 245.527 337.453 245.079 337.45H244.639L244.419 344.13L239.279 344ZM244.689 334.38L246.839 334.44C247.294 334.423 247.746 334.363 248.189 334.26C248.522 334.211 248.823 334.035 249.029 333.77C249.253 333.508 249.377 333.175 249.379 332.83C249.401 332.602 249.371 332.372 249.291 332.157C249.212 331.943 249.084 331.749 248.919 331.59C248.362 331.221 247.696 331.048 247.029 331.1L244.799 331.03L244.689 334.38Z" fill="white"/>
<path d="M256.321 336.36C256.243 335.212 256.421 334.061 256.842 332.99C257.262 331.919 257.915 330.955 258.752 330.166C259.59 329.377 260.592 328.784 261.686 328.428C262.78 328.073 263.939 327.964 265.081 328.11C266.232 328.072 267.38 328.265 268.455 328.679C269.531 329.093 270.512 329.719 271.341 330.52C272.08 331.372 272.639 332.365 272.983 333.439C273.327 334.514 273.448 335.647 273.341 336.77C273.349 338.404 272.965 340.015 272.221 341.47C271.546 342.66 270.538 343.627 269.321 344.25C267.886 344.936 266.297 345.239 264.711 345.13C263.128 345.143 261.563 344.802 260.131 344.13C258.911 343.468 257.915 342.459 257.271 341.23C256.514 339.724 256.186 338.04 256.321 336.36ZM261.401 336.54C261.251 337.801 261.536 339.074 262.211 340.15C262.526 340.502 262.909 340.787 263.337 340.988C263.764 341.188 264.228 341.301 264.7 341.319C265.172 341.336 265.643 341.259 266.085 341.091C266.527 340.923 266.93 340.667 267.271 340.34C268.012 339.217 268.363 337.882 268.271 336.54C268.405 335.335 268.111 334.121 267.441 333.11C267.137 332.761 266.763 332.481 266.342 332.289C265.92 332.097 265.463 331.999 265.001 332C264.534 331.966 264.066 332.039 263.631 332.212C263.196 332.385 262.806 332.655 262.491 333C261.733 334.021 261.349 335.27 261.401 336.54Z" fill="white"/>
<path d="M275.91 345.21L276.43 328.75L284.9 329.02C286.116 329.018 287.325 329.193 288.49 329.54C289.313 329.821 290.018 330.37 290.49 331.1C290.995 331.902 291.233 332.844 291.17 333.79C291.175 334.59 290.963 335.376 290.556 336.064C290.149 336.753 289.563 337.318 288.86 337.7C288.288 337.983 287.679 338.182 287.05 338.29C287.513 338.442 287.951 338.661 288.35 338.94C288.649 339.203 288.914 339.502 289.14 339.83C289.398 340.141 289.625 340.476 289.82 340.83L292.13 345.68L286.39 345.5L283.83 340.38C283.627 339.895 283.327 339.456 282.95 339.09C282.591 338.822 282.158 338.671 281.71 338.66H281.27L281.05 345.34L275.91 345.21ZM281.32 335.58L283.47 335.65C283.925 335.633 284.377 335.572 284.82 335.47C285.151 335.417 285.451 335.242 285.66 334.98C285.896 334.701 286.021 334.345 286.01 333.98C286.032 333.754 286.002 333.525 285.922 333.312C285.842 333.099 285.715 332.907 285.55 332.75C284.992 332.38 284.327 332.208 283.66 332.26L281.43 332.19L281.32 335.58Z" fill="white"/>
<path d="M284 373.16C283.812 373.164 283.626 373.127 283.453 373.053C283.281 372.979 283.126 372.869 283 372.73L274.44 363.36L265.2 371.8C264.944 372.035 264.605 372.158 264.258 372.143C263.911 372.128 263.585 371.976 263.35 371.72L254.79 362.35L245.55 370.79C245.294 371.025 244.955 371.148 244.608 371.133C244.261 371.118 243.935 370.966 243.7 370.71L235.13 361.34L225.9 369.78C225.765 369.902 225.607 369.995 225.435 370.054C225.263 370.112 225.081 370.135 224.9 370.12C224.552 370.099 224.226 369.945 223.99 369.69L215.43 360.33L206.2 368.76C205.942 368.995 205.602 369.119 205.253 369.104C204.905 369.089 204.576 368.936 204.34 368.68C204.223 368.553 204.133 368.404 204.074 368.242C204.015 368.08 203.989 367.908 203.998 367.736C204.006 367.564 204.049 367.395 204.123 367.24C204.197 367.084 204.301 366.945 204.43 366.83L214.63 357.5C214.888 357.265 215.228 357.141 215.576 357.156C215.925 357.171 216.253 357.324 216.49 357.58L225.05 366.95L234.28 358.51C234.542 358.28 234.881 358.158 235.23 358.17C235.578 358.189 235.905 358.343 236.14 358.6L244.7 367.97L253.94 359.53C254.066 359.413 254.214 359.321 254.376 359.262C254.538 359.202 254.709 359.175 254.882 359.183C255.054 359.19 255.223 359.232 255.379 359.305C255.535 359.379 255.674 359.482 255.79 359.61L264.35 368.98L273.59 360.54C273.846 360.305 274.185 360.182 274.531 360.197C274.878 360.212 275.205 360.364 275.44 360.62L285 371C285.171 371.191 285.282 371.427 285.321 371.681C285.36 371.934 285.324 372.193 285.218 372.426C285.112 372.66 284.94 372.857 284.724 372.994C284.508 373.132 284.256 373.203 284 373.2V373.16Z" fill="white"/>
<path d="M125.75 414.67L119.49 411.68L113.91 384.51L116.94 381.18L125.75 414.67Z" fill="#7345B3"/>
<path d="M125.749 414.67L134.059 409.81L126.939 387.43L116.939 381.18L125.749 414.67Z" fill="#7345B3"/>
<path opacity="0.2" d="M125.749 414.67L134.059 409.81L126.939 387.43L116.939 381.18L125.749 414.67Z" fill="black"/>
<path d="M262 419.61H261.31C259.984 419.574 258.727 419.013 257.814 418.05C256.902 417.087 256.409 415.801 256.445 414.475C256.481 413.149 257.042 411.891 258.005 410.979C258.968 410.067 260.254 409.574 261.58 409.61C269.28 409.86 285.58 405.13 294.9 396.09C295.463 395.538 296.148 395.127 296.9 394.89C312.69 390.15 318.56 399.72 318.8 400.13L310.2 405.22C310.23 405.284 310.267 405.344 310.31 405.4C310.22 405.27 307.98 402.4 300.86 404.16C289.17 414.82 271.23 419.61 262 419.61Z" fill="#263238"/>
<path d="M261.39 426.25L243.18 425.11L241.75 391.53L266.22 392.44L261.39 426.25Z" fill="#7345B3"/>
<path d="M261.391 426.25L265.651 422.01L268.291 401.08L266.221 392.44L261.391 426.25Z" fill="#7345B3"/>
<path opacity="0.2" d="M261.391 426.25L265.651 422.01L268.291 401.08L266.221 392.44L261.391 426.25Z" fill="black"/>
<path d="M366.91 413.54C366.257 413.539 365.621 413.325 365.1 412.93C354.7 405.03 340.65 391 335.26 377.47C335.18 377.274 335.122 377.069 335.09 376.86C332.46 361.22 329.95 328.31 329.84 326.92C329.811 326.526 329.859 326.13 329.983 325.755C330.106 325.379 330.302 325.032 330.56 324.733C331.08 324.128 331.82 323.755 332.615 323.695C333.411 323.635 334.198 323.894 334.803 324.415C335.407 324.935 335.781 325.674 335.84 326.47C335.84 326.8 338.41 360.03 340.97 375.54C346.35 388.7 360.97 402.21 368.75 408.15C369.251 408.53 369.62 409.058 369.805 409.659C369.99 410.26 369.981 410.904 369.78 411.5C369.578 412.095 369.195 412.613 368.684 412.979C368.173 413.345 367.559 413.541 366.93 413.54H366.91Z" fill="#263238"/>
<path d="M380.779 415.05C378.459 415.05 375.829 414 372.959 411.93C372.315 411.463 371.882 410.759 371.756 409.974C371.631 409.188 371.822 408.384 372.289 407.74C372.756 407.095 373.46 406.663 374.245 406.537C375.031 406.412 375.835 406.603 376.479 407.07C378.959 408.86 380.309 409.07 380.779 409.07C381.575 409.07 382.338 409.386 382.9 409.949C383.463 410.511 383.779 411.274 383.779 412.07C383.779 412.866 383.463 413.629 382.9 414.191C382.338 414.754 381.575 415.07 380.779 415.07V415.05Z" fill="#263238"/>
<path d="M373.801 411.84C377.011 402.31 390.171 404.19 394.711 405.61C398.589 406.736 402.308 408.348 405.781 410.41C408.231 412.01 408.271 414.7 405.001 416.23C401.001 418.11 390.841 416.44 390.841 416.44C396.081 418.73 390.841 422.44 381.631 418.8C378.641 417.62 372.671 415.34 373.801 411.84Z" fill="#7345B3"/>
<path d="M341.861 331C340.671 339.1 333.961 345.07 328.501 344.27C323.041 343.47 322.821 336.27 324.011 328.13C325.201 319.99 327.361 314.13 332.821 314.93C338.281 315.73 343.051 322.93 341.861 331Z" fill="#263238"/>
<path d="M209.881 298.7C210.333 298.7 210.701 298.333 210.701 297.88C210.701 297.427 210.333 297.06 209.881 297.06C209.428 297.06 209.061 297.427 209.061 297.88C209.061 298.333 209.428 298.7 209.881 298.7Z" fill="#263238"/>
<path d="M218.21 303.78C218.21 303.942 218.162 304.101 218.072 304.236C217.982 304.37 217.854 304.475 217.704 304.538C217.554 304.6 217.389 304.616 217.23 304.584C217.071 304.553 216.925 304.474 216.81 304.36C216.696 304.245 216.618 304.099 216.586 303.94C216.554 303.781 216.571 303.616 216.633 303.466C216.695 303.316 216.8 303.188 216.935 303.098C217.07 303.008 217.228 302.96 217.39 302.96C217.608 302.96 217.816 303.046 217.97 303.2C218.124 303.354 218.21 303.562 218.21 303.78Z" fill="#263238"/>
<path d="M219.13 400.68C219.13 400.842 219.082 401.001 218.992 401.135C218.902 401.27 218.774 401.375 218.624 401.437C218.474 401.5 218.309 401.516 218.15 401.484C217.991 401.452 217.845 401.374 217.73 401.26C217.616 401.145 217.538 400.999 217.506 400.84C217.474 400.681 217.491 400.516 217.553 400.366C217.615 400.216 217.72 400.088 217.855 399.998C217.99 399.908 218.148 399.86 218.31 399.86C218.528 399.86 218.736 399.946 218.89 400.1C219.044 400.254 219.13 400.462 219.13 400.68Z" fill="#263238"/>
<path d="M226.64 406.59C226.64 406.752 226.592 406.911 226.502 407.046C226.412 407.18 226.284 407.286 226.134 407.348C225.984 407.41 225.819 407.426 225.66 407.394C225.501 407.363 225.355 407.285 225.24 407.17C225.125 407.055 225.047 406.909 225.016 406.75C224.984 406.591 225 406.426 225.062 406.276C225.124 406.126 225.23 405.998 225.364 405.908C225.499 405.818 225.658 405.77 225.82 405.77C226.037 405.77 226.246 405.856 226.4 406.01C226.554 406.164 226.64 406.373 226.64 406.59Z" fill="#263238"/>
<path d="M82.5091 416.42C81.0694 416.353 79.6633 415.963 78.3945 415.279C77.1258 414.595 76.0269 413.635 75.179 412.47C75.1375 412.416 75.1073 412.355 75.0902 412.289C75.0732 412.223 75.0697 412.155 75.08 412.088C75.0903 412.021 75.1141 411.957 75.15 411.899C75.1859 411.841 75.2331 411.792 75.2888 411.753C75.3445 411.714 75.4076 411.687 75.474 411.674C75.5405 411.66 75.609 411.66 75.6755 411.674C75.7419 411.688 75.8049 411.715 75.8605 411.754C75.9161 411.793 75.9633 411.842 75.999 411.9C77.869 414.6 81.9991 416.03 83.7991 415.18C83.9793 415.103 84.14 414.987 84.269 414.84C83.3595 414.44 82.5626 413.822 81.9487 413.04C81.3348 412.259 80.9227 411.338 80.749 410.36C80.519 409.09 80.339 407.36 81.379 407.14C82.819 406.82 84.699 410.29 85.379 412.92C85.5022 413.355 85.5462 413.809 85.5091 414.26C86.0858 414.432 86.6925 414.48 87.289 414.4C87.5579 414.379 87.8194 414.303 88.057 414.175C88.2946 414.048 88.5031 413.872 88.669 413.66C88.0109 413.163 87.465 412.533 87.0669 411.811C86.6689 411.089 86.4277 410.292 86.359 409.47C85.979 406.73 86.269 406.26 86.569 406.02C86.6662 405.945 86.7823 405.899 86.9041 405.887C87.026 405.875 87.1489 405.896 87.2591 405.95C88.3291 406.4 89.6191 410.28 89.8691 412.48C89.899 412.709 89.899 412.941 89.8691 413.17C90.3002 413.336 90.7572 413.424 91.219 413.43C92.067 413.463 92.9057 413.244 93.629 412.8C93.489 412.71 93.3591 412.61 93.2291 412.51C92.2291 411.62 91.769 410.2 91.949 408.18C92.089 406.61 92.439 405.75 93.069 405.48C93.2723 405.398 93.4949 405.378 93.7097 405.42C93.9245 405.463 94.1223 405.567 94.279 405.72C94.9541 406.465 95.4586 407.349 95.7573 408.309C96.0561 409.269 96.142 410.283 96.0091 411.28C95.9222 411.695 95.7484 412.087 95.499 412.43C97.339 412.75 99.9191 412.23 102.149 411.68C102.215 411.664 102.283 411.662 102.35 411.672C102.416 411.683 102.48 411.706 102.538 411.742C102.595 411.777 102.645 411.823 102.685 411.878C102.725 411.932 102.753 411.994 102.769 412.06C102.785 412.126 102.787 412.194 102.777 412.26C102.766 412.327 102.743 412.391 102.707 412.449C102.672 412.506 102.626 412.556 102.571 412.596C102.517 412.636 102.455 412.664 102.389 412.68C99.679 413.35 96.759 413.9 94.699 413.3C93.6935 414.064 92.4621 414.472 91.199 414.46C90.6385 414.453 90.0836 414.348 89.559 414.15C89.3264 414.51 89.0143 414.811 88.6467 415.032C88.2792 415.252 87.866 415.385 87.4391 415.42C86.6874 415.517 85.9237 415.452 85.199 415.23C84.9657 415.623 84.6164 415.934 84.199 416.12C83.6627 416.336 83.0871 416.439 82.5091 416.42ZM81.649 408.14C81.5107 408.82 81.5382 409.523 81.7291 410.19C81.8701 410.99 82.2019 411.743 82.6963 412.387C83.1907 413.032 83.8331 413.547 84.569 413.89C84.5551 413.653 84.5148 413.418 84.449 413.19C83.669 410.33 82.169 408.36 81.649 408.14ZM87.219 407.27C87.2256 407.96 87.2824 408.648 87.389 409.33C87.4993 410.549 88.0378 411.69 88.9091 412.55C88.663 410.704 88.0907 408.916 87.219 407.27ZM93.5091 406.4C93.5091 406.4 93.129 406.59 92.989 408.26C92.849 409.93 93.139 411.08 93.919 411.75C94.1036 411.899 94.305 412.027 94.519 412.13C94.782 411.849 94.968 411.504 95.059 411.13C95.2372 409.556 94.8119 407.973 93.8691 406.7C93.6591 406.44 93.5391 406.4 93.5091 406.4Z" fill="#263238"/>
<path d="M228.869 423.98L231.579 419.28L228.869 414.58H225.969L227.609 419.28L225.969 423.98H228.869Z" fill="#263238"/>
<path d="M226.158 421.73C225.824 421.751 225.489 421.704 225.174 421.591C224.858 421.478 224.57 421.301 224.325 421.072C224.081 420.843 223.887 420.566 223.753 420.259C223.62 419.951 223.552 419.62 223.552 419.285C223.552 418.95 223.62 418.619 223.753 418.311C223.887 418.004 224.081 417.727 224.325 417.498C224.57 417.269 224.858 417.092 225.174 416.979C225.489 416.866 225.824 416.819 226.158 416.84L221.558 415.92L220.328 419.64L222.388 422.78L226.158 421.73Z" fill="#263238"/>
<path d="M226.56 414.58H221.13L218.42 419.28L221.13 423.98H226.56L229.27 419.28L226.56 414.58ZM223.85 421.73C223.365 421.732 222.89 421.59 222.486 421.322C222.082 421.054 221.766 420.672 221.579 420.224C221.392 419.777 221.342 419.284 221.436 418.808C221.529 418.332 221.762 417.895 222.104 417.551C222.446 417.207 222.883 416.973 223.358 416.878C223.834 416.782 224.327 416.83 224.775 417.015C225.223 417.201 225.607 417.515 225.876 417.918C226.146 418.321 226.29 418.795 226.29 419.28C226.29 419.928 226.033 420.55 225.576 421.009C225.119 421.468 224.498 421.727 223.85 421.73Z" fill="#7345B3"/>
<path d="M417.889 414.26L415.879 410.77L417.889 407.28H420.039L418.829 410.77L420.039 414.26H417.889Z" fill="#7345B3"/>
<path d="M419.898 412.59C420.148 412.609 420.399 412.575 420.635 412.493C420.871 412.41 421.088 412.279 421.272 412.109C421.455 411.938 421.601 411.732 421.702 411.503C421.802 411.273 421.853 411.025 421.853 410.775C421.853 410.525 421.802 410.277 421.702 410.048C421.601 409.818 421.455 409.612 421.272 409.441C421.088 409.271 420.871 409.14 420.635 409.057C420.399 408.975 420.148 408.941 419.898 408.96L423.318 408.28L424.228 411.04L422.708 413.37L419.898 412.59Z" fill="#7345B3"/>
<path d="M419.609 407.28H423.609L425.609 410.77L423.609 414.26H419.609L417.609 410.77L419.609 407.28ZM421.609 412.59C421.97 412.592 422.323 412.487 422.623 412.288C422.924 412.089 423.159 411.806 423.298 411.473C423.437 411.141 423.475 410.775 423.406 410.421C423.337 410.067 423.164 409.742 422.91 409.487C422.656 409.231 422.331 409.057 421.978 408.986C421.625 408.915 421.258 408.95 420.925 409.088C420.592 409.225 420.307 409.458 420.107 409.758C419.906 410.057 419.799 410.41 419.799 410.77C419.798 411.009 419.844 411.247 419.935 411.468C420.026 411.689 420.16 411.891 420.329 412.06C420.499 412.229 420.7 412.363 420.921 412.454C421.143 412.545 421.38 412.591 421.619 412.59H421.609Z" fill="#263238"/>
<path d="M342.999 418.9H347.519C348.085 418.897 348.627 418.671 349.026 418.27C349.425 417.869 349.649 417.326 349.649 416.76C349.649 416.194 349.425 415.651 349.026 415.25C348.627 414.849 348.085 414.623 347.519 414.62H342.999C342.432 414.62 341.888 414.845 341.486 415.247C341.085 415.648 340.859 416.192 340.859 416.76C340.859 417.327 341.085 417.872 341.486 418.273C341.888 418.674 342.432 418.9 342.999 418.9Z" fill="#263238"/>
<path d="M335.73 414.86C336.149 414.097 336.783 413.474 337.552 413.067C338.322 412.659 339.194 412.486 340.06 412.569C340.927 412.651 341.751 412.986 342.43 413.531C343.109 414.076 343.613 414.807 343.881 415.636C344.149 416.464 344.169 417.353 343.938 418.192C343.707 419.031 343.236 419.785 342.582 420.359C341.928 420.934 341.12 421.305 340.257 421.426C339.395 421.547 338.517 421.412 337.73 421.04C336.648 420.482 335.831 419.52 335.456 418.362C335.082 417.204 335.18 415.946 335.73 414.86Z" fill="#7345B3"/>
<path d="M336.948 421.039L338.188 421.623L342.494 412.487L341.255 411.903L336.948 421.039Z" fill="#263238"/>
</svg>
