<svg width="21" height="20" viewBox="0 0 21 20" fill="none" xmlns="http://www.w3.org/2000/svg">
<path d="M18.8082 15.275C18.8082 15.575 18.7415 15.8833 18.5998 16.1833C18.4582 16.4833 18.2748 16.7667 18.0332 17.0333C17.6248 17.4833 17.1748 17.8083 16.6665 18.0167C16.1665 18.225 15.6248 18.3333 15.0415 18.3333C14.1915 18.3333 13.2832 18.1333 12.3248 17.725C11.3665 17.3167 10.4082 16.7667 9.45817 16.075C8.49984 15.375 7.5915 14.6 6.72484 13.7417C5.8665 12.875 5.0915 11.9667 4.39984 11.0167C3.7165 10.0667 3.1665 9.11666 2.7665 8.175C2.3665 7.225 2.1665 6.31666 2.1665 5.45C2.1665 4.88333 2.2665 4.34166 2.4665 3.84166C2.6665 3.33333 2.98317 2.86666 3.42484 2.45C3.95817 1.925 4.5415 1.66666 5.15817 1.66666C5.3915 1.66666 5.62484 1.71666 5.83317 1.81666C6.04984 1.91666 6.2415 2.06666 6.3915 2.28333L8.32484 5.00833C8.47484 5.21666 8.58317 5.40833 8.65817 5.59166C8.73317 5.76666 8.77484 5.94166 8.77484 6.1C8.77484 6.3 8.7165 6.5 8.59984 6.69166C8.4915 6.88333 8.33317 7.08333 8.13317 7.28333L7.49984 7.94166C7.40817 8.03333 7.3665 8.14166 7.3665 8.275C7.3665 8.34166 7.37484 8.4 7.3915 8.46666C7.4165 8.53333 7.4415 8.58333 7.45817 8.63333C7.60817 8.90833 7.8665 9.26666 8.23317 9.7C8.60817 10.1333 9.00817 10.575 9.4415 11.0167C9.8915 11.4583 10.3248 11.8667 10.7665 12.2417C11.1998 12.6083 11.5582 12.8583 11.8415 13.0083C11.8832 13.025 11.9332 13.05 11.9915 13.075C12.0582 13.1 12.1248 13.1083 12.1998 13.1083C12.3415 13.1083 12.4498 13.0583 12.5415 12.9667L13.1748 12.3417C13.3832 12.1333 13.5832 11.975 13.7748 11.875C13.9665 11.7583 14.1582 11.7 14.3665 11.7C14.5248 11.7 14.6915 11.7333 14.8748 11.8083C15.0582 11.8833 15.2498 11.9917 15.4582 12.1333L18.2165 14.0917C18.4332 14.2417 18.5832 14.4167 18.6748 14.625C18.7582 14.8333 18.8082 15.0417 18.8082 15.275Z" fill="black"/>
</svg>
