<svg width="16" height="16" viewBox="0 0 16 16" fill="none" xmlns="http://www.w3.org/2000/svg">
<path d="M7.22812 0.0535074C4.66504 0.350317 2.11098 2.50141 2.00557 5.57417C1.93931 7.45032 2.45283 8.85782 4.1741 9.25305C4.92104 7.88616 3.93315 7.58466 3.77955 6.59582C3.14857 2.54359 8.28529 -0.21987 10.9734 2.6092C12.8332 4.56814 11.6089 10.5949 8.60906 9.96851C5.73575 9.37021 10.0156 4.57283 7.72207 3.63085C5.85773 2.86539 4.86683 5.97252 5.75081 7.51593C5.23277 10.17 4.11688 12.671 4.56866 16C6.03392 14.8971 6.52787 12.7851 6.93296 10.5824C7.66936 11.0464 8.06241 11.5291 9.00211 11.6041C12.4672 11.8822 14.4024 8.01582 13.9295 4.44942C13.5093 1.28761 10.4674 -0.32141 7.22812 0.0535074Z" fill="#975BEC"/>
</svg>
