<svg width="16" height="16" viewBox="0 0 16 16" fill="none" xmlns="http://www.w3.org/2000/svg">
<g clip-path="url(#clip0_577_3472)">
<path d="M8 16C12.4183 16 16 12.4183 16 8C16 3.58172 12.4183 0 8 0C3.58172 0 0 3.58172 0 8C0 12.4183 3.58172 16 8 16Z" fill="#975BEC"/>
<path d="M13.9999 7.56736C14.0015 7.67152 13.9875 7.77549 13.9578 7.87604C13.928 7.9766 13.883 8.07297 13.824 8.16192C13.7651 8.25088 13.6929 8.33185 13.6095 8.40237C13.5261 8.47289 13.4324 8.5322 13.331 8.57858C13.3333 8.60633 13.3351 8.63427 13.3361 8.66221C13.3386 8.71794 13.3386 8.77375 13.3361 8.82948C13.3351 8.85742 13.3333 8.88536 13.331 8.91312C13.331 10.6162 11.1757 12 8.51667 12C5.85765 12 3.70236 10.6162 3.70236 8.91312C3.70009 8.88536 3.69823 8.85742 3.6972 8.82948C3.69472 8.77375 3.69472 8.71794 3.6972 8.66221C3.69823 8.63427 3.70009 8.60633 3.70236 8.57858C3.54355 8.51137 3.4025 8.41319 3.28897 8.29083C3.17544 8.16848 3.09214 8.02488 3.04483 7.86996C2.9976 7.71498 2.98754 7.55239 3.01535 7.39347C3.04315 7.23454 3.10816 7.08309 3.20586 6.9496C3.30347 6.81613 3.43146 6.70381 3.58094 6.62044C3.73041 6.53707 3.8978 6.48465 4.07149 6.4668C4.24519 6.44887 4.42106 6.46594 4.58689 6.51681C4.75272 6.56768 4.90456 6.65115 5.03187 6.76142C5.26822 6.61392 5.51584 6.48236 5.7728 6.36777C6.02983 6.25334 6.29553 6.15602 6.56783 6.07695C6.84013 5.99787 7.11842 5.93724 7.40022 5.89523C7.68201 5.85322 7.96691 5.83022 8.25242 5.82623L8.8635 3.18793C8.87032 3.15733 8.88373 3.12844 8.90293 3.10259C8.92193 3.07693 8.94649 3.05488 8.97478 3.03796C9.00327 3.02104 9.03506 3.00945 9.0685 3.00375C9.10174 2.99823 9.13601 2.9988 9.16904 3.00546L11.1922 3.37801C11.3964 3.05507 11.825 2.91669 12.2034 3.05127C12.5818 3.18584 12.7982 3.55365 12.7135 3.91898C12.6291 4.28431 12.2686 4.53902 11.8636 4.51982C11.4583 4.50062 11.1282 4.21322 11.0849 3.84181L9.31768 3.49966L8.78092 5.87185C9.06293 5.87736 9.34431 5.90169 9.6226 5.94446C10.1799 6.02999 10.7209 6.18914 11.2288 6.417C11.4824 6.53066 11.7269 6.66101 11.9602 6.80704C12.1279 6.65874 12.3388 6.55833 12.5671 6.51793C12.7955 6.47739 13.0318 6.49858 13.2474 6.57894C13.463 6.65927 13.6488 6.79533 13.7823 6.9707C13.9158 7.14608 13.9914 7.3533 13.9999 7.56736ZM5.8048 8.61868C5.84651 8.71087 5.9072 8.7947 5.984 8.86522C6.06059 8.93592 6.15163 8.99181 6.25176 9.0302C6.35198 9.06837 6.45937 9.088 6.56783 9.08799C6.90186 9.08799 7.20285 8.90266 7.33085 8.61868C7.45864 8.33451 7.38783 8.00758 7.15166 7.79013C6.91548 7.57268 6.56039 7.50748 6.25176 7.62514C5.94333 7.74299 5.74204 8.02012 5.74204 8.32767C5.74204 8.42746 5.76331 8.5263 5.8048 8.61868ZM10.5345 10.4438C10.5768 10.4058 10.6009 10.3539 10.6018 10.2996C10.6026 10.245 10.5797 10.1925 10.5384 10.1536C10.4971 10.1146 10.4407 10.0924 10.3817 10.0916C10.3225 10.0908 10.2655 10.1119 10.2178 10.1448C10.0936 10.2268 9.96212 10.299 9.82471 10.3606C9.6873 10.4222 9.54448 10.473 9.39778 10.5124C9.25121 10.5518 9.10112 10.5797 8.94938 10.5959C8.79744 10.612 8.64446 10.6162 8.4919 10.6086C8.33954 10.6149 8.18677 10.6092 8.03545 10.5917C7.88409 10.5744 7.73462 10.5451 7.5887 10.5043C7.44254 10.4636 7.30071 10.4115 7.16425 10.3488C7.02779 10.2861 6.89731 10.2127 6.77427 10.1296C6.73154 10.0973 6.67724 10.0808 6.62192 10.0832C6.56659 10.0857 6.51436 10.1072 6.47513 10.1431C6.43611 10.1792 6.41279 10.2273 6.4101 10.2783C6.40742 10.3292 6.42538 10.3792 6.46048 10.4185C6.60561 10.5193 6.75982 10.6082 6.92147 10.6847C7.08312 10.7611 7.25178 10.8244 7.4252 10.8742C7.59861 10.924 7.77636 10.9599 7.95659 10.9817C8.13681 11.0034 8.31869 11.0108 8.50016 11.004C8.68162 11.0108 8.8635 11.0034 9.04373 10.9817C9.4047 10.938 9.75484 10.8375 10.0788 10.6847C10.2405 10.6082 10.3947 10.5193 10.5398 10.4185L10.5345 10.4438ZM10.3829 9.14881C10.4948 9.14995 10.6059 9.13 10.7093 9.09046C10.8128 9.05073 10.9063 8.99219 10.9843 8.91825C11.0624 8.84431 11.1231 8.75649 11.1631 8.66012C11.2032 8.56386 11.2215 8.46109 11.217 8.35808C11.217 8.05054 11.0157 7.7734 10.7073 7.65555C10.3986 7.53789 10.0435 7.60309 9.80737 7.82054C9.5712 8.03799 9.50039 8.36493 9.62818 8.6491C9.75617 8.93307 10.0572 9.1184 10.3912 9.1184L10.3829 9.14881Z" fill="white"/>
</g>
<defs>
<clipPath id="clip0_577_3472">
<rect width="16" height="16" fill="white"/>
</clipPath>
</defs>
</svg>
