<svg width="21" height="20" viewBox="0 0 21 20" fill="none" xmlns="http://www.w3.org/2000/svg">
<path d="M14.6665 2.91666H6.33317C3.83317 2.91666 2.1665 4.16666 2.1665 7.08333V12.9167C2.1665 15.8333 3.83317 17.0833 6.33317 17.0833H14.6665C17.1665 17.0833 18.8332 15.8333 18.8332 12.9167V7.08333C18.8332 4.16666 17.1665 2.91666 14.6665 2.91666ZM15.0582 7.99166L12.4498 10.075C11.8998 10.5167 11.1998 10.7333 10.4998 10.7333C9.79984 10.7333 9.0915 10.5167 8.54984 10.075L5.9415 7.99166C5.67484 7.775 5.63317 7.375 5.8415 7.10833C6.05817 6.84166 6.44984 6.79166 6.7165 7.00833L9.32484 9.09166C9.95817 9.6 11.0332 9.6 11.6665 9.09166L14.2748 7.00833C14.5415 6.79166 14.9415 6.83333 15.1498 7.10833C15.3665 7.375 15.3248 7.775 15.0582 7.99166Z" fill="black"/>
</svg>
