<svg width="16" height="13" viewBox="0 0 16 13" fill="none" xmlns="http://www.w3.org/2000/svg">
<path d="M5.03184 13C11.0699 13 14.3718 7.99903 14.3718 3.66236C14.3718 3.52033 14.3689 3.37896 14.3625 3.23817C15.005 2.77339 15.5595 2.19792 16 1.53874C15.4118 1.80017 14.7789 1.97613 14.1149 2.05546C14.7926 1.64918 15.3129 1.00643 15.5584 0.240272C14.914 0.622438 14.2091 0.891845 13.4739 1.03688C12.8749 0.39897 12.0221 0 11.0778 0C9.26494 0 7.79489 1.46971 7.79489 3.28136C7.79489 3.53892 7.82374 3.78937 7.88006 4.02968C5.15177 3.89243 2.73252 2.58651 1.11343 0.600795C0.821818 1.10163 0.668434 1.67084 0.668943 2.2503C0.668943 3.3889 1.24846 4.39403 2.12976 4.98209C1.60846 4.96617 1.0986 4.8254 0.643057 4.57161C0.642569 4.58539 0.642569 4.59881 0.642569 4.61354C0.642569 6.20288 1.77408 7.52989 3.27613 7.83058C2.99402 7.90739 2.70292 7.94622 2.41054 7.94605C2.19938 7.94605 1.99359 7.92529 1.79359 7.8869C2.21151 9.19087 3.42335 10.1398 4.86013 10.1663C3.73659 11.0467 2.32127 11.5711 0.783024 11.5711C0.521349 11.5713 0.259888 11.5561 0 11.5256C1.45281 12.4566 3.17789 12.9998 5.032 12.9998" fill="#975BEC"/>
</svg>
