<svg width="32" height="32" viewBox="0 0 32 32" fill="none" xmlns="http://www.w3.org/2000/svg">
<rect width="32" height="32" rx="16" fill="#B6B8B8"/>
<path d="M19.0816 9.3361L17.4826 9.33333C15.6861 9.33333 14.5252 10.6213 14.5252 12.6147V14.1276H12.9174C12.7785 14.1276 12.666 14.2494 12.666 14.3996V16.5917C12.666 16.7419 12.7786 16.8635 12.9174 16.8635H14.5252V22.3948C14.5252 22.545 14.6377 22.6667 14.7766 22.6667H16.8743C17.0132 22.6667 17.1257 22.5449 17.1257 22.3948V16.8635H19.0056C19.1445 16.8635 19.257 16.7419 19.257 16.5917L19.2578 14.3996C19.2578 14.3275 19.2312 14.2584 19.1841 14.2074C19.1371 14.1563 19.0729 14.1276 19.0062 14.1276H17.1257V12.8451C17.1257 12.2286 17.2616 11.9157 18.0042 11.9157L19.0814 11.9153C19.2202 11.9153 19.3327 11.7935 19.3327 11.6434V9.60798C19.3327 9.45803 19.2203 9.33638 19.0816 9.3361Z" fill="white"/>
</svg>
