<svg width="32" height="32" viewBox="0 0 32 32" fill="none" xmlns="http://www.w3.org/2000/svg">
<rect width="32" height="32" rx="16" fill="#B6B8B8"/>
<path d="M16.138 15.0451H22.561C22.6319 15.4328 22.6673 15.8032 22.6673 16.1562C22.6673 17.412 22.3986 18.5333 21.8611 19.5199C21.3236 20.5066 20.5573 21.2778 19.5621 21.8333C18.5669 22.3889 17.4255 22.6666 16.138 22.6666C15.2107 22.6666 14.3277 22.4916 13.489 22.1415C12.6503 21.7914 11.9268 21.3183 11.3185 20.7222C10.7101 20.1261 10.2273 19.4172 9.86998 18.5955C9.51265 17.7737 9.33398 16.9085 9.33398 16C9.33398 15.0914 9.51265 14.2263 9.86998 13.4045C10.2273 12.5827 10.7101 11.8738 11.3185 11.2778C11.9268 10.6817 12.6503 10.2086 13.489 9.85849C14.3277 9.50837 15.2107 9.33331 16.138 9.33331C17.9098 9.33331 19.4307 9.91491 20.7005 11.0781L18.8489 12.8229C18.1225 12.1342 17.2188 11.7899 16.138 11.7899C15.3761 11.7899 14.6717 11.978 14.025 12.3541C13.3783 12.7303 12.8659 13.241 12.4879 13.8863C12.1099 14.5315 11.9209 15.2361 11.9209 16C11.9209 16.7639 12.1099 17.4684 12.4879 18.1137C12.8659 18.7589 13.3783 19.2697 14.025 19.6458C14.6717 20.022 15.3761 20.21 16.138 20.21C16.6518 20.21 17.1243 20.1406 17.5555 20.0017C17.9866 19.8628 18.341 19.6892 18.6186 19.4809C18.8962 19.2725 19.1383 19.0353 19.3451 18.7691C19.5518 18.5029 19.7039 18.2511 19.8013 18.0139C19.8988 17.7766 19.9652 17.5509 20.0007 17.3368H16.138V15.0451Z" fill="white"/>
</svg>
