<svg width="32" height="32" viewBox="0 0 32 32" fill="none" xmlns="http://www.w3.org/2000/svg">
<rect width="32" height="32" rx="16" fill="#B6B8B8"/>
<path fill-rule="evenodd" clip-rule="evenodd" d="M9.33398 12.9333C9.33398 11.4334 9.33398 10.6835 9.71595 10.1578C9.83931 9.98797 9.98862 9.83865 10.1584 9.71529C10.6841 9.33333 11.4341 9.33333 12.934 9.33333H19.0673C20.5672 9.33333 21.3172 9.33333 21.8429 9.71529C22.0127 9.83865 22.162 9.98797 22.2854 10.1578C22.6673 10.6835 22.6673 11.4334 22.6673 12.9333V19.0667C22.6673 20.5666 22.6673 21.3165 22.2854 21.8422C22.162 22.012 22.0127 22.1613 21.8429 22.2847C21.3172 22.6667 20.5672 22.6667 19.0673 22.6667H12.934C11.4341 22.6667 10.6841 22.6667 10.1584 22.2847C9.98862 22.1613 9.83931 22.012 9.71595 21.8422C9.33398 21.3165 9.33398 20.5666 9.33398 19.0667V12.9333ZM16.0007 12.4706C14.0515 12.4706 12.4712 14.0509 12.4712 16C12.4712 17.9491 14.0515 19.5294 16.0007 19.5294C17.9498 19.5294 19.5301 17.9491 19.5301 16C19.5301 14.0509 17.9498 12.4706 16.0007 12.4706ZM16.0007 18.2059C14.7848 18.2059 13.7948 17.2159 13.7948 16C13.7948 14.7832 14.7848 13.7941 16.0007 13.7941C17.2165 13.7941 18.2065 14.7832 18.2065 16C18.2065 17.2159 17.2165 18.2059 16.0007 18.2059ZM20.2651 12.2059C20.2651 12.4656 20.0545 12.6762 19.7948 12.6762C19.535 12.6762 19.3245 12.4656 19.3245 12.2059C19.3245 11.9461 19.535 11.7356 19.7948 11.7356C20.0545 11.7356 20.2651 11.9461 20.2651 12.2059Z" fill="white"/>
</svg>
