<svg width="32" height="32" viewBox="0 0 32 32" fill="none" xmlns="http://www.w3.org/2000/svg">
<rect width="32" height="32" rx="16" fill="#B6B8B8"/>
<path d="M22.6673 11.9287C22.1766 12.1428 21.65 12.2881 21.0968 12.3529C21.6617 12.0198 22.0941 11.4913 22.299 10.8636C21.7691 11.1721 21.1842 11.3961 20.561 11.5176C20.062 10.9932 19.3521 10.6666 18.5647 10.6666C17.0542 10.6666 15.8294 11.8729 15.8294 13.3598C15.8294 13.5706 15.8536 13.7766 15.9002 13.9736C13.6273 13.8611 11.6119 12.7886 10.263 11.159C10.0272 11.5561 9.89303 12.0189 9.89303 12.5129C9.89303 13.4476 10.3763 14.2722 11.1095 14.7547C10.6612 14.74 10.2396 14.6185 9.87054 14.4167V14.4503C9.87054 15.755 10.8137 16.8439 12.0643 17.0917C11.8352 17.1525 11.5936 17.1861 11.3436 17.1861C11.167 17.1861 10.9962 17.1689 10.8287 17.136C11.177 18.2069 12.1868 18.9856 13.3832 19.007C12.4476 19.7291 11.2678 20.1582 9.98636 20.1582C9.76558 20.1582 9.5481 20.1451 9.33398 20.1213C10.5446 20.8869 11.9818 21.3333 13.5265 21.3333C18.5581 21.3333 21.3084 17.2288 21.3084 13.6691L21.2993 13.3204C21.8366 12.9429 22.3015 12.4686 22.6673 11.9287Z" fill="white"/>
</svg>
