<svg width="32" height="32" viewBox="0 0 32 32" fill="none" xmlns="http://www.w3.org/2000/svg">
<rect width="32" height="32" rx="16" fill="#B6B8B8"/>
<path fill-rule="evenodd" clip-rule="evenodd" d="M21.2175 11.6189C21.7886 11.7727 22.2389 12.2229 22.3926 12.7941C22.6782 13.8374 22.6673 16.0121 22.6673 16.0121C22.6673 16.0121 22.6673 18.1757 22.3927 19.219C22.2389 19.7901 21.7887 20.2405 21.2175 20.3942C20.1741 20.6688 16.0006 20.6688 16.0006 20.6688C16.0006 20.6688 11.838 20.6688 10.7838 20.3833C10.2126 20.2295 9.76235 19.7791 9.60854 19.2081C9.33398 18.1757 9.33398 16.0011 9.33398 16.0011C9.33398 16.0011 9.33398 13.8374 9.60854 12.7941C9.76225 12.223 10.2236 11.7617 10.7837 11.608C11.8271 11.3333 16.0005 11.3333 16.0005 11.3333C16.0005 11.3333 20.1741 11.3333 21.2175 11.6189ZM18.1422 16.0011L14.6717 18V14.0022L18.1422 16.0011Z" fill="white"/>
</svg>
