<svg width="48" height="48" viewBox="0 0 48 48" fill="none" xmlns="http://www.w3.org/2000/svg">
<rect x="0.5" y="0.5" width="47" height="47" rx="23.5" fill="white" stroke="#975BEC"/>
<path fill-rule="evenodd" clip-rule="evenodd" d="M24 34C29.5228 34 34 29.5228 34 24C34 18.4772 29.5228 14 24 14C18.4772 14 14 18.4772 14 24C14 29.5228 18.4772 34 24 34ZM23.5349 20.9021C22.915 20.9739 22.4582 21.3459 22.4582 21.9397C22.4582 22.4096 22.7584 22.7489 23.3522 22.9447C23.4109 22.9643 23.4697 22.9838 23.5349 22.9969V20.9021ZM24.5399 27.1343C25.2316 27.0755 25.7211 26.6514 25.7211 26.0118C25.7211 25.4767 25.4013 25.1178 24.6704 24.9155C24.6313 24.909 24.5856 24.8959 24.5399 24.8829V27.1343ZM24.5464 28.5438L24.553 29.3726H23.4958L23.5023 28.5569C21.3423 28.4003 20.5331 27.1277 20.52 25.9205H22.2298C22.2624 26.5208 22.6996 27.0233 23.5349 27.1343V24.7067L22.9737 24.5827C21.7599 24.3151 20.6897 23.5581 20.6897 22.0768C20.6897 20.5106 21.9296 19.6426 23.5088 19.4991V18.6572H24.566V19.5056C26.217 19.6818 27.2808 20.7129 27.3069 22.0702H25.6362C25.6167 21.5482 25.2316 21.0261 24.5399 20.9152V23.1927L25.0946 23.3101C26.4063 23.5907 27.47 24.2564 27.47 25.8356C27.47 27.3888 26.3345 28.3742 24.5464 28.5438Z" fill="#975BEC"/>
</svg>
