<svg width="48" height="48" viewBox="0 0 48 48" fill="none" xmlns="http://www.w3.org/2000/svg">
<rect x="0.5" y="0.5" width="47" height="47" rx="23.5" fill="white" stroke="#975BEC"/>
<path fill-rule="evenodd" clip-rule="evenodd" d="M21.6263 15.2563C20.5677 14.5819 19.1628 14.8934 18.4884 15.952C17.814 17.0106 18.1255 18.4155 19.1841 19.0899C20.2427 19.7643 23.181 20.4298 23.8554 19.3712C23.9555 19.2141 24.0001 19.0279 24.0001 18.8225C24 19.0279 24.0446 19.2141 24.1447 19.3712C24.8191 20.4298 27.7574 19.7643 28.816 19.0899C29.8747 18.4155 30.1861 17.0106 29.5117 15.952C28.8373 14.8934 27.4324 14.5819 26.3738 15.2563C25.4723 15.8306 24.0007 17.6429 24.0001 18.8221C23.9994 17.6429 22.5278 15.8306 21.6263 15.2563ZM34 22.5707V20.9343C34 20.382 33.5523 19.9343 33 19.9343H24.9V23.3979H33.4684C33.782 23.2546 34 22.9381 34 22.5707ZM33.0909 25.1979H24.9V33.5707L31.0909 33.5707C32.1955 33.5707 33.0909 32.6752 33.0909 31.5707V25.1979ZM23.1 33.5707V25.1979H14.9091V31.5707C14.9091 32.6752 15.8045 33.5707 16.9091 33.5707L23.1 33.5707ZM14.5316 23.3979C14.218 23.2546 14 22.9381 14 22.5707V20.9343C14 20.382 14.4477 19.9343 15 19.9343H23.1V23.3979H14.5316Z" fill="#975BEC"/>
</svg>
