<svg width="48" height="48" viewBox="0 0 48 48" fill="none" xmlns="http://www.w3.org/2000/svg">
<rect x="0.5" y="0.5" width="47" height="47" rx="23.5" fill="white" stroke="#975BEC"/>
<path d="M28.1169 27.6803L27.4983 28.6082C27.3748 28.7934 27.2115 28.9514 26.9963 29.0083C26.2914 29.1946 24.4199 29.2787 21.5706 26.4294C18.7213 23.5801 18.8054 21.7086 18.9917 21.0037C19.0486 20.7885 19.2066 20.6252 19.3918 20.5017L20.3197 19.8831C21.0105 19.4226 21.1972 18.4892 20.7367 17.7983L18.9842 15.1696C18.5822 14.5666 17.8072 14.3362 17.1411 14.6217L16.3505 14.9605C15.75 15.2179 15.2601 15.6798 14.9679 16.2642C14.7238 16.7525 14.5346 17.2666 14.5089 17.8119C14.4281 19.5303 14.8049 23.7638 19.5206 28.4795C24.2362 33.1951 28.4697 33.5719 30.1881 33.4911C30.7334 33.4654 31.2475 33.2762 31.7358 33.0321C32.3202 32.7399 32.7821 32.25 33.0395 31.6495L33.3783 30.8589C33.6638 30.1928 33.4334 29.4178 32.8304 29.0158L30.2017 27.2633C29.5108 26.8028 28.5774 26.9895 28.1169 27.6803Z" fill="#975BEC"/>
</svg>
